<?xml version="1.0" encoding="UTF-8"?>
<svg version="1.1" xmlns="http://www.w3.org/2000/svg" width="195" height="199">
<path d="M0 0 C2.63208008 0.30200195 2.63208008 0.30200195 4.30126953 1.90673828 C4.77781982 2.64174561 5.25437012 3.37675293 5.74536133 4.1340332 C6.2706543 4.93260742 6.79594727 5.73118164 7.3371582 6.55395508 C7.86760742 7.39893555 8.39805664 8.24391602 8.94458008 9.11450195 C9.49436523 9.94788086 10.04415039 10.78125977 10.6105957 11.63989258 C14.63208008 17.85945537 14.63208008 17.85945537 14.63208008 21.30200195 C16.55455566 21.31602051 16.55455566 21.31602051 18.51586914 21.33032227 C23.2722445 21.37020257 28.0279717 21.43595611 32.78393555 21.50952148 C34.84211906 21.53774244 36.90041118 21.55895136 38.95874023 21.57299805 C41.91812793 21.59441185 44.87620827 21.64105416 47.83520508 21.69262695 C49.21509613 21.69446991 49.21509613 21.69446991 50.62286377 21.6963501 C56.9838111 21.84209793 56.9838111 21.84209793 60.2199707 24.13793945 C63.12188784 28.5851375 61.8357289 34.21078152 61.63208008 39.30200195 C69.55208008 39.30200195 77.47208008 39.30200195 85.63208008 39.30200195 C85.63208008 42.27200195 85.63208008 45.24200195 85.63208008 48.30200195 C77.71208008 48.30200195 69.79208008 48.30200195 61.63208008 48.30200195 C61.63208008 75.03200195 61.63208008 101.76200195 61.63208008 129.30200195 C62.95208008 129.63200195 64.27208008 129.96200195 65.63208008 130.30200195 C65.96208008 130.96200195 66.29208008 131.62200195 66.63208008 132.30200195 C67.95208008 129.00200195 69.27208008 125.70200195 70.63208008 122.30200195 C71.62208008 122.30200195 72.61208008 122.30200195 73.63208008 122.30200195 C73.63208008 123.29200195 73.63208008 124.28200195 73.63208008 125.30200195 C77.22461898 121.84763762 80.42447757 118.10835693 83.63208008 114.30200195 C84.62208008 114.63200195 85.61208008 114.96200195 86.63208008 115.30200195 C86.17844837 116.88668872 85.71896556 118.46970119 85.25708008 120.05200195 C85.0018457 120.9337207 84.74661133 121.81543945 84.48364258 122.72387695 C83.71108667 125.06280767 82.79582332 127.13642757 81.63208008 129.30200195 C82.95208008 129.30200195 84.27208008 129.30200195 85.63208008 129.30200195 C85.05632344 132.65450897 84.03901745 134.24018824 81.56958008 136.55200195 C80.74780273 137.33317383 80.74780273 137.33317383 79.90942383 138.13012695 C79.48790039 138.5168457 79.06637695 138.90356445 78.63208008 139.30200195 C80.28208008 139.96200195 81.93208008 140.62200195 83.63208008 141.30200195 C83.50708008 143.05200195 83.50708008 143.05200195 82.63208008 145.30200195 C79.56958008 147.55200195 79.56958008 147.55200195 76.63208008 149.30200195 C78.28208008 149.96200195 79.93208008 150.62200195 81.63208008 151.30200195 C80.98364258 153.22387695 80.98364258 153.22387695 79.63208008 155.30200195 C77.03051758 156.13012695 77.03051758 156.13012695 74.00708008 156.55200195 C72.50274414 156.77629883 72.50274414 156.77629883 70.96801758 157.00512695 C70.1971582 157.1030957 69.42629883 157.20106445 68.63208008 157.30200195 C68.63208008 157.96200195 68.63208008 158.62200195 68.63208008 159.30200195 C69.29208008 159.30200195 69.95208008 159.30200195 70.63208008 159.30200195 C70.96208008 159.96200195 71.29208008 160.62200195 71.63208008 161.30200195 C72.37458008 160.80700195 73.11708008 160.31200195 73.88208008 159.80200195 C76.63208008 158.30200195 76.63208008 158.30200195 80.63208008 158.30200195 C81.65312559 157.3235 82.65269217 156.32219769 83.63208008 155.30200195 C84.56020508 155.08543945 84.56020508 155.08543945 85.50708008 154.86450195 C89.42125733 153.82839621 92.05653298 150.89399325 94.81958008 148.05200195 C96.63208008 146.30200195 96.63208008 146.30200195 98.63208008 146.30200195 C98.96208008 147.95200195 99.29208008 149.60200195 99.63208008 151.30200195 C100.58083008 150.47700195 101.52958008 149.65200195 102.50708008 148.80200195 C105.38208008 146.30200195 105.38208008 146.30200195 107.63208008 146.30200195 C107.12905418 150.70347852 105.60762207 153.05595615 102.63208008 156.30200195 C101.97208008 156.63200195 101.31208008 156.96200195 100.63208008 157.30200195 C102.94208008 158.29200195 105.25208008 159.28200195 107.63208008 160.30200195 C107.63208008 161.29200195 107.63208008 162.28200195 107.63208008 163.30200195 C103.29874674 163.30200195 98.96541341 163.30200195 94.63208008 163.30200195 C95.43645508 163.75575195 96.24083008 164.20950195 97.06958008 164.67700195 C99.63208008 166.30200195 99.63208008 166.30200195 100.63208008 168.30200195 C95.30365045 169.73158063 92.53463409 168.61452743 87.63208008 166.30200195 C86.64208008 166.30200195 85.65208008 166.30200195 84.63208008 166.30200195 C86.94208008 168.28200195 89.25208008 170.26200195 91.63208008 172.30200195 C91.30208008 172.96200195 90.97208008 173.62200195 90.63208008 174.30200195 C89.19197527 174.0453795 87.75501138 173.77109374 86.31958008 173.48950195 C85.11881836 173.26327148 85.11881836 173.26327148 83.89379883 173.0324707 C81.63208008 172.30200195 81.63208008 172.30200195 80.08911133 170.7277832 C78.49535615 168.8357349 78.49535615 168.8357349 74.63208008 169.30200195 C75.45708008 170.08575195 76.28208008 170.86950195 77.13208008 171.67700195 C79.63208008 174.30200195 79.63208008 174.30200195 79.63208008 176.30200195 C81.32977539 176.26139648 81.32977539 176.26139648 83.06176758 176.2199707 C87.72121462 176.22304828 92.1709665 176.83726011 96.75708008 177.61450195 C97.91530273 177.79142578 97.91530273 177.79142578 99.09692383 177.97192383 C103.75523366 178.74566354 107.47696681 179.93239263 111.63208008 182.30200195 C111.63208008 183.29200195 111.63208008 184.28200195 111.63208008 185.30200195 C106.19482159 187.49277165 101.10976017 188.99876355 95.31958008 189.86450195 C94.5074707 189.98744629 93.69536133 190.11039063 92.85864258 190.23706055 C75.16702937 192.75831317 57.28773689 193.41770301 39.44458008 193.92700195 C38.36055908 193.95796967 38.36055908 193.95796967 37.25463867 193.98956299 C8.74930733 194.77497031 -19.82037763 194.3022104 -48.24291992 191.92700195 C-49.31541489 191.84124405 -49.31541489 191.84124405 -50.40957642 191.75375366 C-74.35616307 189.80481828 -74.35616307 189.80481828 -82.36791992 185.30200195 C-82.10595703 183.40478516 -82.10595703 183.40478516 -81.36791992 181.30200195 C-75.33911463 177.67683213 -67.13409361 177.40292295 -60.30541992 176.61450195 C-59.2490332 176.48495117 -58.19264648 176.35540039 -57.10424805 176.22192383 C-54.52635405 175.9069775 -51.9477583 175.60052474 -49.36791992 175.30200195 C-51.01791992 174.64200195 -52.66791992 173.98200195 -54.36791992 173.30200195 C-53.79447055 170.43475509 -53.50646842 169.44055045 -51.36791992 167.30200195 C-54.99791992 166.64200195 -58.62791992 165.98200195 -62.36791992 165.30200195 C-62.36791992 162.30200195 -62.36791992 162.30200195 -60.36791992 160.30200195 C-61.07819336 159.9152832 -61.7884668 159.52856445 -62.52026367 159.13012695 C-63.43936523 158.6093457 -64.3584668 158.08856445 -65.30541992 157.55200195 C-66.68020508 156.78629883 -66.68020508 156.78629883 -68.08276367 156.00512695 C-70.36791992 154.30200195 -70.36791992 154.30200195 -71.18432617 152.09887695 C-71.24491211 151.5059082 -71.30549805 150.91293945 -71.36791992 150.30200195 C-66.39698168 150.71353932 -61.92283606 151.09801027 -57.36791992 153.30200195 C-57.03791992 151.98200195 -56.70791992 150.66200195 -56.36791992 149.30200195 C-51.98932737 149.80722417 -49.55140768 152.48027417 -46.36791992 155.30200195 C-46.03791992 153.98200195 -45.70791992 152.66200195 -45.36791992 151.30200195 C-46.68791992 151.30200195 -48.00791992 151.30200195 -49.36791992 151.30200195 C-48.23292598 148.01051952 -47.37508617 147.30601505 -44.24291992 145.55200195 C-42.81979492 144.93325195 -42.81979492 144.93325195 -41.36791992 144.30200195 C-42.35791992 143.97200195 -43.34791992 143.64200195 -44.36791992 143.30200195 C-45.02791992 143.63200195 -45.68791992 143.96200195 -46.36791992 144.30200195 C-48.03236453 144.39759506 -49.70073955 144.43184841 -51.36791992 144.42700195 C-52.25479492 144.42958008 -53.14166992 144.4321582 -54.05541992 144.43481445 C-56.36791992 144.30200195 -56.36791992 144.30200195 -58.36791992 143.30200195 C-58.36791992 142.64200195 -58.36791992 141.98200195 -58.36791992 141.30200195 C-55.39791992 140.31200195 -52.42791992 139.32200195 -49.36791992 138.30200195 C-52.82944684 137.14815965 -55.51098064 137.30974564 -59.11401367 137.4621582 C-61.63901179 137.28273893 -63.19604912 136.563567 -65.36791992 135.30200195 C-65.36791992 134.64200195 -65.36791992 133.98200195 -65.36791992 133.30200195 C-60.41791992 132.31200195 -60.41791992 132.31200195 -55.36791992 131.30200195 C-56.72916992 131.21950195 -58.09041992 131.13700195 -59.49291992 131.05200195 C-64.17724982 130.5561882 -66.71300226 129.20719291 -70.36791992 126.30200195 C-69.87291992 125.31200195 -69.87291992 125.31200195 -69.36791992 124.30200195 C-66.72791992 124.30200195 -64.08791992 124.30200195 -61.36791992 124.30200195 C-61.84229492 123.60075195 -62.31666992 122.89950195 -62.80541992 122.17700195 C-64.47811667 119.09923993 -65.13556576 116.78731435 -65.36791992 113.30200195 C-64.37791992 112.31200195 -64.37791992 112.31200195 -63.36791992 111.30200195 C-59.49291992 116.05200195 -59.49291992 116.05200195 -58.36791992 118.30200195 C-57.04791992 116.98200195 -55.72791992 115.66200195 -54.36791992 114.30200195 C-53.37791992 117.76700195 -53.37791992 117.76700195 -52.36791992 121.30200195 C-51.70791992 121.30200195 -51.04791992 121.30200195 -50.36791992 121.30200195 C-49.95541992 122.20950195 -49.54291992 123.11700195 -49.11791992 124.05200195 C-47.46715247 127.11771294 -45.88308701 128.95451267 -43.36791992 131.30200195 C-42.16519173 133.70745833 -42.2672052 135.25197148 -42.30541992 137.92700195 C-42.31444336 138.74426758 -42.3234668 139.5615332 -42.33276367 140.40356445 C-42.34436523 141.03004883 -42.3559668 141.6565332 -42.36791992 142.30200195 C-41.70791992 142.30200195 -41.04791992 142.30200195 -40.36791992 142.30200195 C-40.69791992 141.64200195 -41.02791992 140.98200195 -41.36791992 140.30200195 C-41.40814383 137.96901535 -41.41112239 135.6349353 -41.36791992 133.30200195 C-37.49291992 135.17700195 -37.49291992 135.17700195 -36.36791992 136.30200195 C-36.03791992 131.35200195 -35.70791992 126.40200195 -35.36791992 121.30200195 C-38.33791992 120.31200195 -38.33791992 120.31200195 -41.36791992 119.30200195 C-47.13544178 115.53545706 -50.21862908 110.85005327 -52.36791992 104.30200195 C-53.55781533 97.01869057 -52.62641745 90.93422184 -49.00073242 84.5012207 C-45.70715953 80.06514047 -41.59228342 77.04345645 -36.36791992 75.30200195 C-36.36791992 72.99200195 -36.36791992 70.68200195 -36.36791992 68.30200195 C-38.01791992 67.97200195 -39.66791992 67.64200195 -41.36791992 67.30200195 C-42.02791992 68.29200195 -42.68791992 69.28200195 -43.36791992 70.30200195 C-45.30541992 69.92700195 -45.30541992 69.92700195 -47.36791992 69.30200195 C-47.69791992 68.64200195 -48.02791992 67.98200195 -48.36791992 67.30200195 C-50.34791992 67.79700195 -50.34791992 67.79700195 -52.36791992 68.30200195 C-52.61541992 67.68325195 -52.86291992 67.06450195 -53.11791992 66.42700195 C-54.17470712 64.1460171 -54.17470712 64.1460171 -56.39135742 63.45043945 C-58.36791992 62.30200195 -58.36791992 62.30200195 -59.04760742 60.20825195 C-59.11206055 59.41418945 -59.17651367 58.62012695 -59.24291992 57.80200195 C-59.36280273 56.6109082 -59.36280273 56.6109082 -59.48510742 55.39575195 C-59.36791992 53.30200195 -59.36791992 53.30200195 -57.36791992 51.30200195 C-57.69791992 50.31200195 -58.02791992 49.32200195 -58.36791992 48.30200195 C-58.03791992 47.64200195 -57.70791992 46.98200195 -57.36791992 46.30200195 C-56.04791992 46.30200195 -54.72791992 46.30200195 -53.36791992 46.30200195 C-53.36791992 44.98200195 -53.36791992 43.66200195 -53.36791992 42.30200195 C-52.58416992 42.34325195 -51.80041992 42.38450195 -50.99291992 42.42700195 C-48.20675873 42.58928929 -48.20675873 42.58928929 -46.36791992 40.30200195 C-42.83220564 40.83771624 -42.83220564 40.83771624 -41.36791992 42.30200195 C-39.70174877 42.34264027 -38.03403897 42.34472295 -36.36791992 42.30200195 C-36.32924805 40.76479492 -36.32924805 40.76479492 -36.28979492 39.1965332 C-36.23348934 37.83581496 -36.17614255 36.47513952 -36.11791992 35.11450195 C-36.10374023 34.4409668 -36.08956055 33.76743164 -36.07495117 33.07348633 C-35.91247483 29.74272126 -35.3870608 27.33948617 -33.86791992 24.36450195 C-30.2629527 21.39040399 -27.16747686 21.52345387 -22.61791992 21.48950195 C-21.82514648 21.46436523 -21.03237305 21.43922852 -20.21557617 21.41333008 C-18.26688798 21.35463465 -16.31735133 21.32541216 -14.36791992 21.30200195 C-14.24932617 20.721521 -14.13073242 20.14104004 -14.00854492 19.54296875 C-13.33467145 17.18569567 -12.42681575 15.51265219 -11.11791992 13.4465332 C-10.67448242 12.74206055 -10.23104492 12.03758789 -9.77416992 11.31176758 C-9.31010742 10.58666992 -8.84604492 9.86157227 -8.36791992 9.11450195 C-7.67182617 8.00945313 -7.67182617 8.00945313 -6.96166992 6.88208008 C-2.83458091 0.36151939 -2.83458091 0.36151939 0 0 Z M-49.11791992 49.92700195 C-51.63574516 52.13931075 -51.63574516 52.13931075 -51.86791992 55.36450195 C-51.58829517 58.25492754 -51.58829517 58.25492754 -50.11791992 60.11450195 C-48.05542518 61.51405195 -46.87295764 62.15464679 -44.36791992 62.30200195 C-42.12435698 61.15413254 -40.15834323 60.09242526 -38.36791992 58.30200195 C-37.96313809 54.65896548 -37.90966829 52.92391489 -40.11791992 49.92700195 C-43.53177457 47.46144026 -45.58476419 47.83922811 -49.11791992 49.92700195 Z M-54.36791992 126.30200195 C-54.69791992 127.29200195 -55.02791992 128.28200195 -55.36791992 129.30200195 C-54.37791992 129.79700195 -54.37791992 129.79700195 -53.36791992 130.30200195 C-53.69791992 128.98200195 -54.02791992 127.66200195 -54.36791992 126.30200195 Z M-49.36791992 133.30200195 C-49.03791992 134.62200195 -48.70791992 135.94200195 -48.36791992 137.30200195 C-48.03791992 136.64200195 -47.70791992 135.98200195 -47.36791992 135.30200195 C-48.02791992 134.64200195 -48.68791992 133.98200195 -49.36791992 133.30200195 Z M-41.36791992 150.30200195 C-40.70791992 150.96200195 -40.04791992 151.62200195 -39.36791992 152.30200195 C-39.03791992 151.64200195 -38.70791992 150.98200195 -38.36791992 150.30200195 C-39.35791992 150.30200195 -40.34791992 150.30200195 -41.36791992 150.30200195 Z M91.63208008 157.30200195 C91.30208008 158.29200195 90.97208008 159.28200195 90.63208008 160.30200195 C91.29208008 160.30200195 91.95208008 160.30200195 92.63208008 160.30200195 C92.30208008 159.31200195 91.97208008 158.32200195 91.63208008 157.30200195 Z M84.63208008 160.30200195 C83.97208008 161.62200195 83.31208008 162.94200195 82.63208008 164.30200195 C83.62208008 163.97200195 84.61208008 163.64200195 85.63208008 163.30200195 C85.30208008 162.31200195 84.97208008 161.32200195 84.63208008 160.30200195 Z M76.63208008 163.30200195 C75.14708008 165.28200195 75.14708008 165.28200195 73.63208008 167.30200195 C74.95208008 166.97200195 76.27208008 166.64200195 77.63208008 166.30200195 C77.30208008 165.31200195 76.97208008 164.32200195 76.63208008 163.30200195 Z " fill="#C1CCF1" transform="translate(83.367919921875,4.697998046875)"/>
<path d="M0 0 C2.63208008 0.30200195 2.63208008 0.30200195 4.30126953 1.90673828 C4.77781982 2.64174561 5.25437012 3.37675293 5.74536133 4.1340332 C6.2706543 4.93260742 6.79594727 5.73118164 7.3371582 6.55395508 C7.86760742 7.39893555 8.39805664 8.24391602 8.94458008 9.11450195 C9.49436523 9.94788086 10.04415039 10.78125977 10.6105957 11.63989258 C14.63208008 17.85945537 14.63208008 17.85945537 14.63208008 21.30200195 C16.55455566 21.31602051 16.55455566 21.31602051 18.51586914 21.33032227 C23.2722445 21.37020257 28.0279717 21.43595611 32.78393555 21.50952148 C34.84211906 21.53774244 36.90041118 21.55895136 38.95874023 21.57299805 C41.91812793 21.59441185 44.87620827 21.64105416 47.83520508 21.69262695 C49.21509613 21.69446991 49.21509613 21.69446991 50.62286377 21.6963501 C56.9838111 21.84209793 56.9838111 21.84209793 60.2199707 24.13793945 C62.21112815 27.18939513 62.02624665 29.44783768 61.88208008 33.05200195 C61.84598633 34.2224707 61.80989258 35.39293945 61.77270508 36.59887695 C61.72629883 37.4909082 61.67989258 38.38293945 61.63208008 39.30200195 C59.32208008 39.30200195 57.01208008 39.30200195 54.63208008 39.30200195 C54.63208008 35.67200195 54.63208008 32.04200195 54.63208008 28.30200195 C51.15118329 28.36248669 47.67429872 28.44972268 44.19458008 28.55200195 C42.73375 28.57327148 42.73375 28.57327148 41.2434082 28.5949707 C35.29707262 28.7938448 31.19096633 29.76855661 25.89453125 32.40698242 C21.70402002 34.06473727 17.45372392 33.8388146 13.00708008 33.73950195 C12.10473633 33.7465918 11.20239258 33.75368164 10.27270508 33.76098633 C4.81816035 33.70930332 -1.24624612 33.42367575 -5.36791992 29.30200195 C-16.25791992 28.80700195 -16.25791992 28.80700195 -27.36791992 28.30200195 C-27.36791992 43.81200195 -27.36791992 59.32200195 -27.36791992 75.30200195 C-24.72791992 75.63200195 -22.08791992 75.96200195 -19.36791992 76.30200195 C-12.76971848 79.73306671 -7.68684396 85.20694539 -5.36791992 92.30200195 C-4.41807724 99.59149232 -5.2063664 106.1466122 -9.36791992 112.30200195 C-14.14506269 117.51796368 -18.675857 120.86764161 -25.82104492 121.70825195 C-33.02860036 121.88621628 -38.67980385 121.83091113 -44.56323242 117.1574707 C-50.81958132 110.72507735 -52.81098898 104.3688133 -52.70385742 95.5090332 C-52.06976656 89.45567739 -49.77142039 84.59795279 -45.36010742 80.3840332 C-42.40999569 78.09252575 -39.9256024 76.48789611 -36.36791992 75.30200195 C-36.36791992 72.99200195 -36.36791992 70.68200195 -36.36791992 68.30200195 C-38.01791992 67.97200195 -39.66791992 67.64200195 -41.36791992 67.30200195 C-42.02791992 68.29200195 -42.68791992 69.28200195 -43.36791992 70.30200195 C-45.30541992 69.92700195 -45.30541992 69.92700195 -47.36791992 69.30200195 C-47.69791992 68.64200195 -48.02791992 67.98200195 -48.36791992 67.30200195 C-50.34791992 67.79700195 -50.34791992 67.79700195 -52.36791992 68.30200195 C-52.61541992 67.68325195 -52.86291992 67.06450195 -53.11791992 66.42700195 C-54.17470712 64.1460171 -54.17470712 64.1460171 -56.39135742 63.45043945 C-58.36791992 62.30200195 -58.36791992 62.30200195 -59.04760742 60.20825195 C-59.11206055 59.41418945 -59.17651367 58.62012695 -59.24291992 57.80200195 C-59.36280273 56.6109082 -59.36280273 56.6109082 -59.48510742 55.39575195 C-59.36791992 53.30200195 -59.36791992 53.30200195 -57.36791992 51.30200195 C-57.86291992 49.81700195 -57.86291992 49.81700195 -58.36791992 48.30200195 C-58.03791992 47.64200195 -57.70791992 46.98200195 -57.36791992 46.30200195 C-56.04791992 46.30200195 -54.72791992 46.30200195 -53.36791992 46.30200195 C-53.36791992 44.98200195 -53.36791992 43.66200195 -53.36791992 42.30200195 C-52.58416992 42.34325195 -51.80041992 42.38450195 -50.99291992 42.42700195 C-48.20675873 42.58928929 -48.20675873 42.58928929 -46.36791992 40.30200195 C-42.83220564 40.83771624 -42.83220564 40.83771624 -41.36791992 42.30200195 C-39.70174877 42.34264027 -38.03403897 42.34472295 -36.36791992 42.30200195 C-36.34213867 41.27719727 -36.31635742 40.25239258 -36.28979492 39.1965332 C-36.23348934 37.83581496 -36.17614255 36.47513952 -36.11791992 35.11450195 C-36.09665039 34.10419922 -36.09665039 34.10419922 -36.07495117 33.07348633 C-35.91247483 29.74272126 -35.3870608 27.33948617 -33.86791992 24.36450195 C-30.2629527 21.39040399 -27.16747686 21.52345387 -22.61791992 21.48950195 C-21.82514648 21.46436523 -21.03237305 21.43922852 -20.21557617 21.41333008 C-18.26688798 21.35463465 -16.31735133 21.32541216 -14.36791992 21.30200195 C-14.24932617 20.721521 -14.13073242 20.14104004 -14.00854492 19.54296875 C-13.33467145 17.18569567 -12.42681575 15.51265219 -11.11791992 13.4465332 C-10.67448242 12.74206055 -10.23104492 12.03758789 -9.77416992 11.31176758 C-9.31010742 10.58666992 -8.84604492 9.86157227 -8.36791992 9.11450195 C-7.90385742 8.37780273 -7.43979492 7.64110352 -6.96166992 6.88208008 C-2.83458091 0.36151939 -2.83458091 0.36151939 0 0 Z M-49.11791992 49.92700195 C-51.63574516 52.13931075 -51.63574516 52.13931075 -51.86791992 55.36450195 C-51.58829517 58.25492754 -51.58829517 58.25492754 -50.11791992 60.11450195 C-48.05542518 61.51405195 -46.87295764 62.15464679 -44.36791992 62.30200195 C-42.12435698 61.15413254 -40.15834323 60.09242526 -38.36791992 58.30200195 C-37.96313809 54.65896548 -37.90966829 52.92391489 -40.11791992 49.92700195 C-43.53177457 47.46144026 -45.58476419 47.83922811 -49.11791992 49.92700195 Z " fill="#6F80DD" transform="translate(83.367919921875,4.697998046875)"/>
<path d="M0 0 C0.99 0.33 1.98 0.66 3 1 C2.54636829 2.58468677 2.08688548 4.16769924 1.625 5.75 C1.24214844 7.07257813 1.24214844 7.07257813 0.8515625 8.421875 C0.0790066 10.76080572 -0.83625676 12.83442562 -2 15 C-0.68 15 0.64 15 2 15 C1.42424336 18.35250701 0.40693737 19.93818629 -2.0625 22.25 C-2.61035156 22.77078125 -3.15820312 23.2915625 -3.72265625 23.828125 C-4.14417969 24.21484375 -4.56570312 24.6015625 -5 25 C-3.35 25.66 -1.7 26.32 0 27 C-0.125 28.75 -0.125 28.75 -1 31 C-4.0625 33.25 -4.0625 33.25 -7 35 C-5.35 35.66 -3.7 36.32 -2 37 C-2.6484375 38.921875 -2.6484375 38.921875 -4 41 C-6.6015625 41.828125 -6.6015625 41.828125 -9.625 42.25 C-10.62789062 42.39953125 -11.63078125 42.5490625 -12.6640625 42.703125 C-13.82035156 42.85007812 -13.82035156 42.85007812 -15 43 C-15 43.66 -15 44.32 -15 45 C-14.34 45 -13.68 45 -13 45 C-12.89042969 45.82886719 -12.78085938 46.65773437 -12.66796875 47.51171875 C-11.909511 51.47255367 -10.73982205 55.05156143 -9.3125 58.8125 C-9.08111328 59.49248047 -8.84972656 60.17246094 -8.61132812 60.87304688 C-7.82194846 63.10303189 -7.82194846 63.10303189 -6 66 C-2.90387523 67.07121929 -2.90387523 67.07121929 0 67 C0 68.32 0 69.64 0 71 C-22.77 71 -45.54 71 -69 71 C-69 69.68 -69 68.36 -69 67 C-66.69 67 -64.38 67 -62 67 C-61.84942139 66.43909668 -61.69884277 65.87819336 -61.54370117 65.30029297 C-59.38208901 57.65835369 -56.39984363 50.43115944 -53.3125 43.125 C-52.23729736 40.56085022 -51.16549172 37.99528542 -50.09375 35.4296875 C-49.8291951 34.79764404 -49.5646402 34.16560059 -49.29206848 33.5144043 C-46.5504957 26.95242094 -43.9189385 20.34798457 -41.32348633 13.72705078 C-39.10335035 8.10335035 -39.10335035 8.10335035 -38 7 C-35.36 7 -32.72 7 -30 7 C-27.69 12.61 -25.38 18.22 -23 24 C-22.67 21.03 -22.34 18.06 -22 15 C-20.68 15.33 -19.36 15.66 -18 16 C-17.505 16.99 -17.505 16.99 -17 18 C-15.68 14.7 -14.36 11.4 -13 8 C-12.01 8 -11.02 8 -10 8 C-10 8.99 -10 9.98 -10 11 C-6.40746109 7.54563567 -3.20760251 3.80635497 0 0 Z " fill="#FECF73" transform="translate(167,119)"/>
<path d="M0 0 C0.33 1.65 0.66 3.3 1 5 C1.94875 4.175 2.8975 3.35 3.875 2.5 C6.75 0 6.75 0 9 0 C8.49697411 4.40147657 6.97554199 6.75395419 4 10 C3.34 10.33 2.68 10.66 2 11 C4.31 11.99 6.62 12.98 9 14 C9 14.99 9 15.98 9 17 C4.66666667 17 0.33333333 17 -4 17 C-2.7934375 17.680625 -2.7934375 17.680625 -1.5625 18.375 C1 20 1 20 2 22 C-3.32842962 23.42957868 -6.09744599 22.31252548 -11 20 C-11.99 20 -12.98 20 -14 20 C-11.69 21.98 -9.38 23.96 -7 26 C-7.33 26.66 -7.66 27.32 -8 28 C-9.44010481 27.74337755 -10.8770687 27.46909179 -12.3125 27.1875 C-13.11300781 27.03667969 -13.91351563 26.88585937 -14.73828125 26.73046875 C-17 26 -17 26 -18.54296875 24.42578125 C-20.13672393 22.53373295 -20.13672393 22.53373295 -24 23 C-23.175 23.78375 -22.35 24.5675 -21.5 25.375 C-19 28 -19 28 -19 30 C-17.30230469 29.95939453 -17.30230469 29.95939453 -15.5703125 29.91796875 C-10.91086545 29.92104632 -6.46111357 30.53525815 -1.875 31.3125 C-0.71677734 31.48942383 -0.71677734 31.48942383 0.46484375 31.66992188 C5.12315358 32.44366158 8.84488673 33.63039067 13 36 C13 36.99 13 37.98 13 39 C7.56274151 41.19076969 2.47768009 42.6967616 -3.3125 43.5625 C-4.12460938 43.68544434 -4.93671875 43.80838867 -5.7734375 43.93505859 C-23.46505071 46.45631122 -41.34434318 47.11570106 -59.1875 47.625 C-60.271521 47.65596771 -60.271521 47.65596771 -61.37744141 47.68756104 C-89.88277275 48.47296836 -118.4524577 48.00020844 -146.875 45.625 C-147.58999664 45.56782806 -148.30499329 45.51065613 -149.04165649 45.45175171 C-172.98824315 43.50281633 -172.98824315 43.50281633 -181 39 C-180.734375 37.1015625 -180.734375 37.1015625 -180 35 C-170.95252721 29.51002865 -157.2169642 29.63145219 -147 30 C-147.99 32.31 -148.98 34.62 -150 37 C-151.32 37 -152.64 37 -154 37 C-154 37.66 -154 38.32 -154 39 C-140.47 39 -126.94 39 -113 39 C-113 38.34 -113 37.68 -113 37 C-114.65 36.67 -116.3 36.34 -118 36 C-118 35.67 -118 35.34 -118 35 C-106.78 35 -95.56 35 -84 35 C-84 36.32 -84 37.64 -84 39 C-61.23 39 -38.46 39 -15 39 C-15 37.68 -15 36.36 -15 35 C-16.98 35 -18.96 35 -21 35 C-28.09852217 22.02216749 -28.09852217 22.02216749 -28 16 C-26.22814292 13.68336298 -25.28878861 13.07747987 -22.4375 12.3125 C-20 12 -20 12 -18 12 C-17.54625 11.525625 -17.0925 11.05125 -16.625 10.5625 C-15 9 -15 9 -13.125 8.5625 C-9.21082275 7.52639426 -6.5755471 4.5919913 -3.8125 1.75 C-2 0 -2 0 0 0 Z M-7 11 C-7.33 11.99 -7.66 12.98 -8 14 C-7.34 14 -6.68 14 -6 14 C-6.33 13.01 -6.66 12.02 -7 11 Z M-14 14 C-14.66 15.32 -15.32 16.64 -16 18 C-15.01 17.67 -14.02 17.34 -13 17 C-13.33 16.01 -13.66 15.02 -14 14 Z M-22 17 C-23.485 18.98 -23.485 18.98 -25 21 C-23.68 20.67 -22.36 20.34 -21 20 C-21.33 19.01 -21.66 18.02 -22 17 Z " fill="#EDF0FB" transform="translate(182,151)"/>
<path d="M0 0 C5.86251721 3.54272545 10.46629176 8.98395645 12.5625 15.5 C13.51234268 22.78949037 12.72405352 29.34461025 8.5625 35.5 C3.78535723 40.71596173 -0.74543708 44.06563966 -7.890625 44.90625 C-15.09818044 45.08421433 -20.74938393 45.02890918 -26.6328125 40.35546875 C-32.8891614 33.9230754 -34.88056906 27.56681135 -34.7734375 18.70703125 C-34.13934664 12.65367543 -31.84100046 7.79595083 -27.4296875 3.58203125 C-19.79487201 -2.34833281 -9.09315937 -4.06328185 0 0 Z " fill="#FED076" transform="translate(65.4375,81.5)"/>
<path d="M0 0 C0.99 0.33 1.98 0.66 3 1 C2.54636829 2.58468677 2.08688548 4.16769924 1.625 5.75 C1.24214844 7.07257813 1.24214844 7.07257813 0.8515625 8.421875 C0.0790066 10.76080572 -0.83625676 12.83442562 -2 15 C-0.68 15 0.64 15 2 15 C1.42424336 18.35250701 0.40693737 19.93818629 -2.0625 22.25 C-2.61035156 22.77078125 -3.15820312 23.2915625 -3.72265625 23.828125 C-4.14417969 24.21484375 -4.56570312 24.6015625 -5 25 C-2.525 25.99 -2.525 25.99 0 27 C-0.125 28.75 -0.125 28.75 -1 31 C-4.0625 33.25 -4.0625 33.25 -7 35 C-5.35 35.66 -3.7 36.32 -2 37 C-2.6484375 38.921875 -2.6484375 38.921875 -4 41 C-6.6015625 41.828125 -6.6015625 41.828125 -9.625 42.25 C-10.62789062 42.39953125 -11.63078125 42.5490625 -12.6640625 42.703125 C-13.82035156 42.85007812 -13.82035156 42.85007812 -15 43 C-15 43.66 -15 44.32 -15 45 C-25.23 45 -35.46 45 -46 45 C-45.05610147 40.28050734 -43.73563661 36.45228522 -42 32 C-43.98 31.67 -45.96 31.34 -48 31 C-46.5250853 27.18584126 -45.04436147 23.37396462 -43.5625 19.5625 C-43.14162109 18.47388672 -42.72074219 17.38527344 -42.28710938 16.26367188 C-41.88427734 15.22919922 -41.48144531 14.19472656 -41.06640625 13.12890625 C-40.5086853 11.69140015 -40.5086853 11.69140015 -39.93969727 10.22485352 C-39 8 -39 8 -38 7 C-35.36 7 -32.72 7 -30 7 C-27.69 12.61 -25.38 18.22 -23 24 C-22.67 21.03 -22.34 18.06 -22 15 C-20.68 15.33 -19.36 15.66 -18 16 C-17.67 16.66 -17.34 17.32 -17 18 C-15.68 14.7 -14.36 11.4 -13 8 C-12.01 8 -11.02 8 -10 8 C-10 8.99 -10 9.98 -10 11 C-6.40746109 7.54563567 -3.20760251 3.80635497 0 0 Z " fill="#FECF74" transform="translate(167,119)"/>
<path d="M0 0 C1.07318481 0.00142502 2.14636963 0.00285004 3.2520752 0.00431824 C4.46673462 0.00124161 5.68139404 -0.00183502 6.93286133 -0.00500488 C8.25056519 0.00218063 9.56826904 0.00936615 10.92590332 0.01676941 C12.28588823 0.01796127 13.64587397 0.01841436 15.00585938 0.01815796 C17.85735216 0.01972311 20.70871945 0.02801492 23.56018066 0.04142761 C27.21891409 0.05841753 30.87750952 0.06224196 34.53627777 0.06148243 C37.34492312 0.06175411 40.15353818 0.06723498 42.96217346 0.07448387 C44.96859366 0.07922262 46.97502024 0.08094714 48.98144531 0.0826416 C50.80343445 0.09221138 50.80343445 0.09221138 52.66223145 0.10197449 C54.27200867 0.10769218 54.27200867 0.10769218 55.91430664 0.11352539 C58.45715332 0.24723816 58.45715332 0.24723816 60.45715332 1.24723816 C60.48399319 4.22646409 60.50391369 7.20545111 60.51965332 10.18473816 C60.52803223 11.03487488 60.53641113 11.8850116 60.54504395 12.76091003 C60.5482666 13.56979675 60.55148926 14.37868347 60.55480957 15.21208191 C60.56004639 15.96094666 60.5652832 16.7098114 60.57067871 17.48136902 C60.45715332 19.24723816 60.45715332 19.24723816 59.45715332 20.24723816 C57.66305358 20.36006063 55.86458199 20.4040443 54.0670166 20.42082214 C52.91557159 20.43431198 51.76412659 20.44780182 50.57778931 20.46170044 C49.32368256 20.47213882 48.06957581 20.48257721 46.77746582 20.49333191 C44.82378795 20.51783269 42.87011014 20.5423447 40.91644096 20.56752872 C36.08065483 20.62842908 31.24477093 20.67897609 26.40881348 20.7240448 C23.70029753 20.74967565 20.99193201 20.78048516 18.28353882 20.8168335 C15.72725888 20.85075307 13.17085746 20.87662188 10.6144104 20.89382935 C9.45666107 20.91047134 8.29891174 20.92711334 7.1060791 20.94425964 C5.57505051 20.95972084 5.57505051 20.95972084 4.01309204 20.97549438 C1.21603846 21.07314124 1.21603846 21.07314124 -1.54284668 23.24723816 C-2.53284668 23.24723816 -3.52284668 23.24723816 -4.54284668 23.24723816 C-4.60073674 19.78897474 -4.63640489 16.33083523 -4.66784668 12.87223816 C-4.68460449 11.88739441 -4.7013623 10.90255066 -4.71862793 9.88786316 C-4.72507324 8.94684753 -4.73151855 8.00583191 -4.73815918 7.03630066 C-4.74863281 6.16698914 -4.75910645 5.29767761 -4.76989746 4.40202332 C-4.41775409 1.06006914 -3.2638043 0.31733607 0 0 Z " fill="#B2C3EC" transform="translate(68.5428466796875,56.75276184082031)"/>
<path d="M0 0 C3.15204981 1.39347376 5.26171773 3.02485079 7.671875 5.4765625 C8.33574219 6.146875 8.99960938 6.8171875 9.68359375 7.5078125 C10.36550781 8.20648438 11.04742187 8.90515625 11.75 9.625 C12.44738281 10.33140625 13.14476563 11.0378125 13.86328125 11.765625 C15.58012488 13.50598703 17.29211832 15.25084981 19 17 C21.89738929 15.68904236 23.96284089 14.28539071 26.19921875 12.03125 C26.76833984 11.46019531 27.33746094 10.88914062 27.92382812 10.30078125 C28.50583984 9.70652344 29.08785156 9.11226562 29.6875 8.5 C30.28111328 7.90574219 30.87472656 7.31148438 31.48632812 6.69921875 C34.62927605 3.63576084 34.62927605 3.63576084 37 0 C41.63268926 1.71581084 42.37625207 3.65150248 46 8 C40.39 13.61 34.78 19.22 29 25 C30.72629846 28.45259693 31.83225473 30.07238601 34.4765625 32.671875 C35.146875 33.33574219 35.8171875 33.99960938 36.5078125 34.68359375 C37.20648438 35.36550781 37.90515625 36.04742187 38.625 36.75 C39.33140625 37.44738281 40.0378125 38.14476562 40.765625 38.86328125 C42.50598703 40.58012488 44.25084981 42.29211832 46 44 C45.07347299 45.17539996 44.13336613 46.34010577 43.1875 47.5 C42.66542969 48.1496875 42.14335938 48.799375 41.60546875 49.46875 C40 51 40 51 37 51 C35.19067383 49.53125 35.19067383 49.53125 33.20703125 47.5 C32.49482422 46.778125 31.78261719 46.05625 31.04882812 45.3125 C30.31083984 44.549375 29.57285156 43.78625 28.8125 43 C28.06291016 42.236875 27.31332031 41.47375 26.54101562 40.6875 C24.68713177 38.79819161 22.84058931 36.90224794 21 35 C17.84795019 36.39347376 15.73828227 38.02485079 13.328125 40.4765625 C12.66425781 41.146875 12.00039062 41.8171875 11.31640625 42.5078125 C10.63449219 43.20648438 9.95257813 43.90515625 9.25 44.625 C8.55261719 45.33140625 7.85523437 46.0378125 7.13671875 46.765625 C5.41987512 48.50598703 3.70788168 50.25084981 2 52 C0.84775972 51.07038578 -0.29659176 50.1309875 -1.4375 49.1875 C-2.07558594 48.66542969 -2.71367188 48.14335937 -3.37109375 47.60546875 C-5 46 -5 46 -6 43 C-5.5153125 42.59910156 -5.030625 42.19820312 -4.53125 41.78515625 C0.21686569 37.7583889 4.3368261 33.49450431 8.3359375 28.72265625 C8.88507813 28.15417969 9.43421875 27.58570312 10 27 C10.66 27 11.32 27 12 27 C11.00051588 25.85371665 10.00036869 24.70801147 9 23.5625 C8.36707031 22.83546875 7.73414062 22.1084375 7.08203125 21.359375 C5.68024351 19.77085756 4.26046203 18.19805936 2.82421875 16.640625 C2.11910156 15.87234375 1.41398437 15.1040625 0.6875 14.3125 C-0.29669922 13.25482422 -0.29669922 13.25482422 -1.30078125 12.17578125 C-3.09931716 9.87282837 -4.05107746 7.75043031 -5 5 C-3.35 3.35 -1.7 1.7 0 0 Z " fill="#6F80DE" transform="translate(77,81)"/>
<path d="M0 0 C2.625 -0.1875 2.625 -0.1875 5 0 C6.40013654 3.22731701 7.79453892 6.45707993 9.1875 9.6875 C9.80661255 11.11787598 9.80661255 11.11787598 10.43823242 12.57714844 C13.16144318 18.91149197 15.64350955 25.25646532 17.83203125 31.796875 C18.79138342 34.18725724 18.79138342 34.18725724 21.13671875 34.828125 C22.05904297 34.91320312 22.05904297 34.91320312 23 35 C23 35.66 23 36.32 23 37 C9.47 37 -4.06 37 -18 37 C-18 36.34 -18 35.68 -18 35 C-16.02 34.505 -16.02 34.505 -14 34 C-13.01 30.535 -13.01 30.535 -12 27 C-13.65 26.34 -15.3 25.68 -17 25 C-16.42655063 22.13275314 -16.1385485 21.1385485 -14 19 C-17.63 18.34 -21.26 17.68 -25 17 C-25 14 -25 14 -23 12 C-23.71027344 11.61328125 -24.42054687 11.2265625 -25.15234375 10.828125 C-26.07144531 10.30734375 -26.99054687 9.7865625 -27.9375 9.25 C-28.85402344 8.73953125 -29.77054688 8.2290625 -30.71484375 7.703125 C-33 6 -33 6 -33.81640625 3.796875 C-33.90728516 2.90742188 -33.90728516 2.90742188 -34 2 C-29.02906176 2.41153737 -24.55491614 2.79600832 -20 5 C-19.67 3.68 -19.34 2.36 -19 1 C-14.62140745 1.50522222 -12.18348776 4.17827222 -9 7 C-8.34 5.35 -7.68 3.7 -7 2 C-4.525 2.495 -4.525 2.495 -2 3 C-1.34 2.01 -0.68 1.02 0 0 Z " fill="#F9AF48" transform="translate(46,153)"/>
<path d="M0 0 C1.02814316 0.00222061 2.05628632 0.00444122 3.11558533 0.00672913 C4.85727745 0.00684242 4.85727745 0.00684242 6.63415527 0.00695801 C8.52943214 0.01469994 8.52943214 0.01469994 10.46299744 0.02259827 C12.39193092 0.02472069 12.39193092 0.02472069 14.35983276 0.02688599 C17.78427561 0.03071034 21.20867628 0.0405399 24.63310242 0.05158997 C28.12522308 0.06180587 31.61735053 0.06638399 35.10948181 0.07142639 C41.96561897 0.08216225 48.82172806 0.09923767 55.67784119 0.12025452 C54.90720557 4.25318388 53.7048049 7.94631287 52.17784119 11.87025452 C51.51268494 13.59502014 51.51268494 13.59502014 50.83409119 15.35462952 C49.67784119 18.12025452 49.67784119 18.12025452 48.67784119 19.12025452 C47.25152281 19.2320794 45.81986259 19.27695381 44.38926697 19.2938385 C43.47807098 19.30732834 42.566875 19.32081818 41.62806702 19.3347168 C40.14063492 19.35037437 40.14063492 19.35037437 38.62315369 19.36634827 C36.54372239 19.39928633 34.46429541 19.43249799 32.38487244 19.46595764 C29.09079468 19.51340928 25.7967345 19.55782725 22.50254822 19.59706116 C19.33422768 19.63670671 16.16627364 19.68827211 12.99815369 19.74134827 C12.01058075 19.74976242 11.02300781 19.75817657 10.00550842 19.7668457 C8.62925797 19.7918087 8.62925797 19.7918087 7.22520447 19.817276 C6.01394394 19.8327372 6.01394394 19.8327372 4.7782135 19.84851074 C2.37557999 20.00156097 2.37557999 20.00156097 -0.32215881 22.12025452 C-1.31215881 22.12025452 -2.30215881 22.12025452 -3.32215881 22.12025452 C-3.35103695 18.64110511 -3.36891568 15.16198621 -3.38465881 11.68275452 C-3.39303772 10.68953186 -3.40141663 9.6963092 -3.41004944 8.67298889 C-3.41327209 7.72875061 -3.41649475 6.78451233 -3.41981506 5.81166077 C-3.42505188 4.93711243 -3.4302887 4.06256409 -3.4356842 3.16151428 C-3.27201425 0.21862292 -2.94842663 0.15268621 0 0 Z " fill="#B2C3EB" transform="translate(67.32215881347656,138.87974548339844)"/>
<path d="M0 0 C4.1796989 2.8497947 7.11864324 5.98092971 8.75 10.875 C9.17141936 16.3534517 8.424874 20.06022681 5.75 24.875 C1.8851424 28.97217145 -1.85592846 31.0000221 -7.5 31.1875 C-12.51422685 31.13033455 -15.19675924 29.79333335 -19.25 26.875 C-23.45890235 22.24520742 -23.60290751 17.62538952 -23.5234375 11.6015625 C-23.13073034 7.68571107 -21.94945694 5.71289063 -19.25 2.875 C-13.02469807 -1.76346026 -7.37213258 -2.55189205 0 0 Z " fill="#FFFCF7" transform="translate(62.25,88.125)"/>
<path d="M0 0 C4.875 4.75 4.875 4.75 6 7 C7.32 5.68 8.64 4.36 10 3 C10.66 5.31 11.32 7.62 12 10 C12.66 10 13.32 10 14 10 C14.4125 10.9075 14.825 11.815 15.25 12.75 C16.90076745 15.81571099 18.48483291 17.65251072 21 20 C22.20272819 22.40545638 22.10071472 23.94996953 22.0625 26.625 C22.05347656 27.44226563 22.04445313 28.25953125 22.03515625 29.1015625 C22.02355469 29.72804687 22.01195313 30.35453125 22 31 C22.66 31 23.32 31 24 31 C23.67 30.34 23.34 29.68 23 29 C22.95977609 26.6670134 22.95679753 24.33293334 23 22 C26.875 23.875 26.875 23.875 28 25 C28.33 20.05 28.66 15.1 29 10 C31.64 10 34.28 10 37 10 C37 22.54 37 35.08 37 48 C34.77174356 45.77174356 34.30760631 44.34238372 33.375 41.375 C33.11460938 40.55773437 32.85421875 39.74046875 32.5859375 38.8984375 C32.39257812 38.27195313 32.19921875 37.64546875 32 37 C31.19175781 37.2165625 30.38351563 37.433125 29.55078125 37.65625 C28.48214844 37.9346875 27.41351563 38.213125 26.3125 38.5 C25.25675781 38.7784375 24.20101562 39.056875 23.11328125 39.34375 C20.28857328 39.9391715 17.87163292 40.12786492 15 40 C16.13499394 36.70851757 16.99283376 36.0040131 20.125 34.25 C21.07375 33.8375 22.0225 33.425 23 33 C21.515 32.505 21.515 32.505 20 32 C19.01 32.495 19.01 32.495 18 33 C16.33555539 33.0955931 14.66718037 33.12984645 13 33.125 C12.113125 33.12757813 11.22625 33.13015625 10.3125 33.1328125 C8 33 8 33 6 32 C6 31.34 6 30.68 6 30 C8.97 29.01 11.94 28.02 15 27 C11.53847309 25.8461577 8.85693928 26.00774369 5.25390625 26.16015625 C2.72890813 25.98073697 1.1718708 25.26156504 -1 24 C-1 23.34 -1 22.68 -1 22 C2.3 21.34 5.6 20.68 9 20 C7.63875 19.9175 6.2775 19.835 4.875 19.75 C0.1906701 19.25418625 -2.34508234 17.90519096 -6 15 C-5.67 14.34 -5.34 13.68 -5 13 C-2.36 13 0.28 13 3 13 C2.525625 12.29875 2.05125 11.5975 1.5625 10.875 C-0.10381233 7.80898532 -0.69246761 5.45973934 -1 2 C-0.67 1.34 -0.34 0.68 0 0 Z M10 15 C9.67 15.99 9.34 16.98 9 18 C9.99 18.495 9.99 18.495 11 19 C10.67 17.68 10.34 16.36 10 15 Z M15 22 C15.33 23.32 15.66 24.64 16 26 C16.33 25.34 16.66 24.68 17 24 C16.34 23.34 15.68 22.68 15 22 Z " fill="#6B7EDB" transform="translate(19,116)"/>
<path d="M0 0 C17.49 0 34.98 0 53 0 C50 9 50 9 47 16 C33.47 16 19.94 16 6 16 C0 2 0 2 0 0 Z " fill="#6E7FDD" transform="translate(58,170)"/>
<path d="M0 0 C0.88602402 0.00222061 1.77204803 0.00444122 2.68492126 0.00672913 C3.68588333 0.00680466 4.6868454 0.00688019 5.71813965 0.00695801 C6.80666733 0.01211929 7.89519501 0.01728058 9.01670837 0.02259827 C10.67928932 0.02472069 10.67928932 0.02472069 12.37545776 0.02688599 C15.93168281 0.03250418 19.48784596 0.04505977 23.04405212 0.05775452 C25.44834809 0.06276717 27.85264504 0.06733048 30.25694275 0.07142639 C36.16516716 0.08247952 42.07335522 0.09923535 47.98155212 0.12025452 C48.41080994 1.25591858 48.84006775 2.39158264 49.28233337 3.56166077 C49.84307556 4.7359967 50.40381775 5.91033264 50.98155212 7.12025452 C54.06525099 8.17775009 54.06525099 8.17775009 56.98155212 8.12025452 C56.98155212 9.44025452 56.98155212 10.76025452 56.98155212 12.12025452 C34.21155212 12.12025452 11.44155212 12.12025452 -12.01844788 12.12025452 C-12.01844788 10.80025452 -12.01844788 9.48025452 -12.01844788 8.12025452 C-9.70844788 8.12025452 -7.39844788 8.12025452 -5.01844788 8.12025452 C-4.70907288 6.98587952 -4.39969788 5.85150452 -4.08094788 4.68275452 C-2.73289716 0.16281977 -2.73289716 0.16281977 0 0 Z " fill="#F8AD45" transform="translate(110.01844787597656,177.87974548339844)"/>
<path d="M0 0 C0.99 0.33 1.98 0.66 3 1 C2.54636829 2.58468677 2.08688548 4.16769924 1.625 5.75 C1.24214844 7.07257813 1.24214844 7.07257813 0.8515625 8.421875 C0.0790066 10.76080572 -0.83625676 12.83442562 -2 15 C-0.68 15 0.64 15 2 15 C1.42424336 18.35250701 0.40693737 19.93818629 -2.0625 22.25 C-2.61035156 22.77078125 -3.15820312 23.2915625 -3.72265625 23.828125 C-4.14417969 24.21484375 -4.56570312 24.6015625 -5 25 C-3.35 25.66 -1.7 26.32 0 27 C-0.125 28.75 -0.125 28.75 -1 31 C-4.0625 33.25 -4.0625 33.25 -7 35 C-5.35 35.66 -3.7 36.32 -2 37 C-2.5 38.875 -2.5 38.875 -4 41 C-8.32635299 42.85692904 -12.49464067 43.61113982 -17 42 C-22.85155909 33.88005875 -22.58461574 24.50974933 -22 15 C-20.0625 15.375 -20.0625 15.375 -18 16 C-17.67 16.66 -17.34 17.32 -17 18 C-15.68 14.7 -14.36 11.4 -13 8 C-12.01 8 -11.02 8 -10 8 C-10 8.99 -10 9.98 -10 11 C-6.40746109 7.54563567 -3.20760251 3.80635497 0 0 Z " fill="#EA745E" transform="translate(167,119)"/>
<path d="M0 0 C2.31 0 4.62 0 7 0 C7 30.69 7 61.38 7 93 C-0.21671088 82.17493368 -0.68901844 72.29811292 -0.48828125 59.765625 C-0.47893485 58.03400706 -0.4718274 56.30237574 -0.46684265 54.57073975 C-0.44791627 50.05283947 -0.39894314 45.53576608 -0.34332275 41.01818848 C-0.29181684 36.39244771 -0.26926226 31.76657097 -0.24414062 27.140625 C-0.19080734 18.09339028 -0.10567306 9.04676438 0 0 Z " fill="#6E7FDD" transform="translate(138,53)"/>
<path d="M0 0 C19.8 0 39.6 0 60 0 C60 2.97 60 5.94 60 9 C39.98272427 9.17662302 20.00493499 8.62807745 0 8 C0 5.36 0 2.72 0 0 Z " fill="#D2DDF7" transform="translate(109,44)"/>
<path d="M0 0 C0.33 1.65 0.66 3.3 1 5 C2.423125 3.7625 2.423125 3.7625 3.875 2.5 C6.75 0 6.75 0 9 0 C8.49697411 4.40147657 6.97554199 6.75395419 4 10 C3.01 10.495 3.01 10.495 2 11 C4.31 11.99 6.62 12.98 9 14 C9 14.99 9 15.98 9 17 C4.66666667 17 0.33333333 17 -4 17 C-3.195625 17.45375 -2.39125 17.9075 -1.5625 18.375 C1 20 1 20 2 22 C-3.32842962 23.42957868 -6.09744599 22.31252548 -11 20 C-11.99 20 -12.98 20 -14 20 C-10.535 22.97 -10.535 22.97 -7 26 C-7.33 26.66 -7.66 27.32 -8 28 C-9.44010481 27.74337755 -10.8770687 27.46909179 -12.3125 27.1875 C-13.11300781 27.03667969 -13.91351563 26.88585937 -14.73828125 26.73046875 C-17 26 -17 26 -18.54296875 24.42578125 C-20.13672393 22.53373295 -20.13672393 22.53373295 -24 23 C-23.175 23.763125 -22.35 24.52625 -21.5 25.3125 C-19 28 -19 28 -19 31 C-22.11674776 30.07843671 -23.64676617 29.56635815 -25.3984375 26.7578125 C-25.88183594 25.45457031 -25.88183594 25.45457031 -26.375 24.125 C-26.88160156 22.82949219 -26.88160156 22.82949219 -27.3984375 21.5078125 C-28.04128392 18.82789431 -28.05332355 17.5257706 -27 15 C-23.65188866 12.46629412 -22.29875783 12 -18 12 C-16.97895449 11.02149805 -15.9793879 10.02019573 -15 9 C-14.38125 8.855625 -13.7625 8.71125 -13.125 8.5625 C-9.21082275 7.52639426 -6.5755471 4.5919913 -3.8125 1.75 C-2 0 -2 0 0 0 Z M-7 11 C-7.33 11.99 -7.66 12.98 -8 14 C-7.34 14 -6.68 14 -6 14 C-6.33 13.01 -6.66 12.02 -7 11 Z M-14 14 C-14.66 15.32 -15.32 16.64 -16 18 C-15.01 17.67 -14.02 17.34 -13 17 C-13.33 16.01 -13.66 15.02 -14 14 Z M-22 17 C-23.485 18.98 -23.485 18.98 -25 21 C-23.68 20.67 -22.36 20.34 -21 20 C-21.33 19.01 -21.66 18.02 -22 17 Z " fill="#677BD8" transform="translate(182,151)"/>
<path d="M0 0 C3.53571429 0.53571429 3.53571429 0.53571429 5 2 C6.66617115 2.04063832 8.33388095 2.042721 10 2 C10 3.32 10 4.64 10 6 C11.32 6.33 12.64 6.66 14 7 C14 8.32 14 9.64 14 11 C13.34 11 12.68 11 12 11 C12 11.66 12 12.32 12 13 C13.32 13 14.64 13 16 13 C15.67 14.32 15.34 15.64 15 17 C14.01 17 13.02 17 12 17 C12 17.66 12 18.32 12 19 C12.66 19 13.32 19 14 19 C14 20.32 14 21.64 14 23 C12.68 23 11.36 23 10 23 C10 24.65 10 26.3 10 28 C8.35 27.67 6.7 27.34 5 27 C4.34 27.99 3.68 28.98 3 30 C1.0625 29.625 1.0625 29.625 -1 29 C-1.33 28.34 -1.66 27.68 -2 27 C-3.32 27.33 -4.64 27.66 -6 28 C-6.2475 27.38125 -6.495 26.7625 -6.75 26.125 C-7.8067872 23.84401514 -7.8067872 23.84401514 -10.0234375 23.1484375 C-12 22 -12 22 -12.6796875 19.90625 C-12.74414062 19.1121875 -12.80859375 18.318125 -12.875 17.5 C-12.95492188 16.7059375 -13.03484375 15.911875 -13.1171875 15.09375 C-13 13 -13 13 -11 11 C-11.33 10.01 -11.66 9.02 -12 8 C-11.67 7.34 -11.34 6.68 -11 6 C-9.68 6 -8.36 6 -7 6 C-7 4.68 -7 3.36 -7 2 C-6.21625 2.04125 -5.4325 2.0825 -4.625 2.125 C-1.83883881 2.28728734 -1.83883881 2.28728734 0 0 Z M-2.75 9.625 C-5.26782524 11.8373088 -5.26782524 11.8373088 -5.5 15.0625 C-5.22037525 17.95292558 -5.22037525 17.95292558 -3.75 19.8125 C-1.68750526 21.21205 -0.50503771 21.85264484 2 22 C4.24356294 20.85213059 6.2095767 19.7904233 8 18 C8.40478183 14.35696353 8.45825163 12.62191293 6.25 9.625 C2.83614535 7.15943831 0.78315574 7.53722616 -2.75 9.625 Z " fill="#F8AB44" transform="translate(37,45)"/>
<path d="M0 0 C4.37859255 0.50522222 6.81651224 3.17827222 10 6 C10.66 4.35 11.32 2.7 12 1 C14.86724686 1.57344937 15.8614515 1.8614515 18 4 C17.505 4.845625 17.01 5.69125 16.5 6.5625 C14.8382137 10.37076028 14.92401358 12.89673324 15 17 C14 19.4375 14 19.4375 13 21 C12.01 21 11.02 21 10 21 C9.67 22.32 9.34 23.64 9 25 C7.02 25 5.04 25 3 25 C2.3125 23.1875 2.3125 23.1875 2 21 C2.99 20.01 3.98 19.02 5 18 C1.37 17.34 -2.26 16.68 -6 16 C-6 13 -6 13 -4 11 C-4.71027344 10.61328125 -5.42054687 10.2265625 -6.15234375 9.828125 C-7.07144531 9.30734375 -7.99054687 8.7865625 -8.9375 8.25 C-9.85402344 7.73953125 -10.77054688 7.2290625 -11.71484375 6.703125 C-14 5 -14 5 -14.81640625 2.796875 C-14.90728516 1.90742188 -14.90728516 1.90742188 -15 1 C-10.02906176 1.41153737 -5.55491614 1.79600832 -1 4 C-0.67 2.68 -0.34 1.36 0 0 Z " fill="#EA735E" transform="translate(27,154)"/>
<path d="M0 0 C2.5 0.47460938 2.5 0.47460938 4.18505859 2.06347656 C4.66797363 2.79211914 5.15088867 3.52076172 5.6484375 4.27148438 C6.17824219 5.06554687 6.70804688 5.85960937 7.25390625 6.67773438 C8.05634766 7.9384375 8.05634766 7.9384375 8.875 9.22460938 C9.43316406 10.04960937 9.99132812 10.87460938 10.56640625 11.72460938 C13.57499855 16.33035561 13.57499855 16.33035561 14.5 18.47460938 C14.17 19.79460938 13.84 21.11460938 13.5 22.47460938 C4.59 22.47460938 -4.32 22.47460938 -13.5 22.47460938 C-14.5 18.47460938 -14.5 18.47460938 -13.59130859 16.36816406 C-12.03655416 13.97421054 -10.47460823 11.58892639 -8.875 9.22460938 C-8.34003906 8.38414063 -7.80507812 7.54367188 -7.25390625 6.67773438 C-6.45919922 5.48664062 -6.45919922 5.48664062 -5.6484375 4.27148438 C-5.16552246 3.5428418 -4.68260742 2.81419922 -4.18505859 2.06347656 C-2.5 0.47460938 -2.5 0.47460938 0 0 Z " fill="#FECC6F" transform="translate(83.5,4.525390625)"/>
<path d="M0 0 C0 7.26 0 14.52 0 22 C-1.98 21.34 -3.96 20.68 -6 20 C-7.85625 20.2475 -7.85625 20.2475 -9.75 20.5 C-13.12339054 20.65690189 -14.03470401 19.97184018 -16.734375 17.78125 C-19.24636637 15.25506659 -21.65978832 12.68548881 -24 10 C-18.41815428 -1.81883765 -12.15629862 -1.61366796 0 0 Z " fill="#B2C2EB" transform="translate(129,98)"/>
<path d="M0 0 C6.6 0 13.2 0 20 0 C26 11.75 26 11.75 26 14 C15.77 14 5.54 14 -5 14 C-4 9 -4 9 0 0 Z " fill="#F8AC43" transform="translate(126,150)"/>
<path d="M0 0 C1.65 0 3.3 0 5 0 C6.34208754 3.10045423 7.67213754 6.20592989 9 9.3125 C9.3815625 10.19357422 9.763125 11.07464844 10.15625 11.98242188 C10.5171875 12.82998047 10.878125 13.67753906 11.25 14.55078125 C11.58515625 15.33106689 11.9203125 16.11135254 12.265625 16.9152832 C13 19 13 19 13 22 C6.73 22 0.46 22 -6 22 C-4.93767245 13.50137962 -3.57770367 7.63798132 0 0 Z " fill="#FBC46F" transform="translate(46,153)"/>
<path d="M0 0 C0 1.32 0 2.64 0 4 C-22.77 4 -45.54 4 -69 4 C-69 2.68 -69 1.36 -69 0 C-61.03721047 -0.15428435 -53.07434012 -0.30246003 -45.11129665 -0.4429636 C-41.41324605 -0.50840299 -37.71525745 -0.57589989 -34.01733398 -0.64819336 C-30.44477438 -0.71795871 -26.87215324 -0.78219598 -23.29942513 -0.84269524 C-21.94033296 -0.86666317 -20.58127365 -0.8925808 -19.22225761 -0.92053413 C-17.31029963 -0.95951874 -15.39818858 -0.99075858 -13.48608398 -1.02172852 C-11.8572654 -1.05170677 -11.8572654 -1.05170677 -10.19554138 -1.08229065 C-6.73251128 -0.99311171 -3.41756649 -0.55067899 0 0 Z " fill="#FECF74" transform="translate(167,186)"/>
<path d="M0 0 C1.98 0 3.96 0 6 0 C5.42424336 3.35250701 4.40693737 4.93818629 1.9375 7.25 C1.11572266 8.03117188 1.11572266 8.03117188 0.27734375 8.828125 C-0.14417969 9.21484375 -0.56570312 9.6015625 -1 10 C1.475 10.99 1.475 10.99 4 12 C3.875 13.75 3.875 13.75 3 16 C-0.0625 18.25 -0.0625 18.25 -3 20 C-0.525 20.99 -0.525 20.99 2 22 C1.5 23.875 1.5 23.875 0 26 C-4.36414142 27.87314834 -8.4146755 28.43291391 -13 27 C-13.66 24.69 -14.32 22.38 -15 20 C-10.25 17 -10.25 17 -8 17 C-7.73445312 16.30519531 -7.46890625 15.61039063 -7.1953125 14.89453125 C-5.89396924 11.74323924 -4.41296617 8.72999829 -2.875 5.6875 C-2.06675781 4.08455078 -2.06675781 4.08455078 -1.2421875 2.44921875 C-0.62730469 1.23685547 -0.62730469 1.23685547 0 0 Z " fill="#D56F65" transform="translate(163,134)"/>
<path d="M0 0 C2.56805198 4.68291831 2.27211361 8.95730505 1 14 C-1.20774068 17.57806249 -3.15243114 19.4120034 -7 21 C-9.25390625 21.265625 -9.25390625 21.265625 -11.5625 21.25 C-12.70912109 21.25773437 -12.70912109 21.25773437 -13.87890625 21.265625 C-16 21 -16 21 -19 19 C-17.61314777 15.8804428 -15.99810509 13.74144201 -13.59375 11.328125 C-12.60181641 10.33232422 -12.60181641 10.33232422 -11.58984375 9.31640625 C-10.55537109 8.29353516 -10.55537109 8.29353516 -9.5 7.25 C-8.81035156 6.55261719 -8.12070312 5.85523437 -7.41015625 5.13671875 C-6.74886719 4.47800781 -6.08757813 3.81929688 -5.40625 3.140625 C-4.80103516 2.53766602 -4.19582031 1.93470703 -3.57226562 1.31347656 C-2 0 -2 0 0 0 Z " fill="#FFD27B" transform="translate(66,95)"/>
<path d="M0 0 C4.17443363 3.50074982 8.3145494 6.97950843 12 11 C12 11.66 12 12.32 12 13 C10.71484375 14.2265625 10.71484375 14.2265625 8.9375 15.625 C5.40668432 18.52684447 2.55203783 21.72350473 -0.32421875 25.265625 C-2 27 -2 27 -6 29 C-4.02 31.64 -2.04 34.28 0 37 C-4.29399165 38.07349791 -5.19495213 37.79682816 -9 36 C-9.33 36.99 -9.66 37.98 -10 39 C-12 37 -12 37 -12.40234375 34.1328125 C-12 31 -12 31 -10.06640625 28.8046875 C-9.24011719 28.16789062 -8.41382812 27.53109375 -7.5625 26.875 C-3.47938778 23.71865853 -3.47938778 23.71865853 -2 19 C-1.65195313 18.06929687 -1.30390625 17.13859375 -0.9453125 16.1796875 C0.09968129 12.66470838 0.19963592 9.78216027 0.125 6.125 C0.10695313 4.97257812 0.08890625 3.82015625 0.0703125 2.6328125 C0.04710938 1.76398438 0.02390625 0.89515625 0 0 Z " fill="#B3C2EB" transform="translate(77,95)"/>
<path d="M0 0 C0.99 0 1.98 0 3 0 C5.1875 1 5.1875 1 7 2 C7 2.99 7 3.98 7 5 C7.66 5.33 8.32 5.66 9 6 C9.36476427 12.32258065 9.36476427 12.32258065 7.6875 15.4375 C6 17 6 17 3 17 C3 17.66 3 18.32 3 19 C0.36 19 -2.28 19 -5 19 C-5.33 18.34 -5.66 17.68 -6 17 C-6.99 16.67 -7.98 16.34 -9 16 C-9 15.01 -9 14.02 -9 13 C-9.66 13 -10.32 13 -11 13 C-11.29254918 8.02666392 -11.16504232 4.9563029 -8 1 C-4.98353779 -1.14071512 -3.44429708 -1.11106357 0 0 Z M-3 5 C-5.28728734 6.83883881 -5.28728734 6.83883881 -5.125 9.625 C-5.08375 10.40875 -5.0425 11.1925 -5 12 C-2.67145537 13.19838209 -2.67145537 13.19838209 0 14 C0.99 13.34 1.98 12.68 3 12 C3.41666667 9.5 3.41666667 9.5 3 7 C2.34 6.34 1.68 5.68 1 5 C-0.32 5 -1.64 5 -3 5 Z " fill="#EA735E" transform="translate(27,27)"/>
<path d="M0 0 C2.64 0 5.28 0 8 0 C8 0.66 8 1.32 8 2 C8.61875 2.04125 9.2375 2.0825 9.875 2.125 C12 3 12 3 13.3125 5.75 C13.99872606 8.99397775 13.9243212 10.85730793 13 14 C12.34 14 11.68 14 11 14 C10.67 15.32 10.34 16.64 10 18 C2.59067358 19.28238342 2.59067358 19.28238342 -1 18 C-1.99 17.67 -2.98 17.34 -4 17 C-4 15.68 -4 14.36 -4 13 C-4.66 13 -5.32 13 -6 13 C-6.36476427 6.67741935 -6.36476427 6.67741935 -4.6875 3.5625 C-3 2 -3 2 0 2 C0 1.34 0 0.68 0 0 Z M0.875 7 C0.25625 7.66 -0.3625 8.32 -1 9 C-0.01 10.65 0.98 12.3 2 14 C3.65 13.67 5.3 13.34 7 13 C7.76956136 10.65466049 7.76956136 10.65466049 8 8 C6.79081118 6.12359581 6.79081118 6.12359581 5 5 C2.75637427 4.7715451 2.75637427 4.7715451 0.875 7 Z " fill="#EA735E" transform="translate(158,65)"/>
<path d="M0 0 C2.5 1 2.5 1 4 2 C2.60652624 5.15204981 0.97514921 7.26171773 -1.4765625 9.671875 C-2.48203125 10.66767578 -2.48203125 10.66767578 -3.5078125 11.68359375 C-4.20648438 12.36550781 -4.90515625 13.04742187 -5.625 13.75 C-6.33140625 14.44738281 -7.0378125 15.14476563 -7.765625 15.86328125 C-9.50598703 17.58012488 -11.25084981 19.29211832 -13 21 C-15.93701172 18.27929688 -15.93701172 18.27929688 -16.50390625 15.765625 C-16.6183868 10.85059331 -16.37625978 7.77700727 -13.125 3.9375 C-9.12290132 -0.17093463 -5.64245914 -0.47949752 0 0 Z " fill="#FFD177" transform="translate(58,90)"/>
<path d="M0 0 C2 3 2 3 4 9 C-5.57 9 -15.14 9 -25 9 C-24.22404875 5.89619499 -23.4731994 3.74997221 -22 1 C-18.37629339 0.74586877 -14.75131263 0.52594467 -11.125 0.3125 C-9.57619141 0.20325195 -9.57619141 0.20325195 -7.99609375 0.09179688 C-7.00996094 0.03701172 -6.02382813 -0.01777344 -5.0078125 -0.07421875 C-3.64100342 -0.16062622 -3.64100342 -0.16062622 -2.24658203 -0.2487793 C-1.50520996 -0.16668213 -0.76383789 -0.08458496 0 0 Z " fill="#FED076" transform="translate(59,174)"/>
<path d="M0 0 C2.5 0.47460938 2.5 0.47460938 4.18505859 2.06347656 C4.66797363 2.79211914 5.15088867 3.52076172 5.6484375 4.27148438 C6.17824219 5.06554687 6.70804688 5.85960937 7.25390625 6.67773438 C8.05634766 7.9384375 8.05634766 7.9384375 8.875 9.22460938 C9.43316406 10.04960937 9.99132812 10.87460938 10.56640625 11.72460938 C13.57499855 16.33035561 13.57499855 16.33035561 14.5 18.47460938 C14.17 19.79460938 13.84 21.11460938 13.5 22.47460938 C4.59 22.47460938 -4.32 22.47460938 -13.5 22.47460938 C-14.5 18.47460938 -14.5 18.47460938 -13.59130859 16.36816406 C-12.03655416 13.97421054 -10.47460823 11.58892639 -8.875 9.22460938 C-8.34003906 8.38414063 -7.80507812 7.54367188 -7.25390625 6.67773438 C-6.45919922 5.48664062 -6.45919922 5.48664062 -5.6484375 4.27148438 C-5.16552246 3.5428418 -4.68260742 2.81419922 -4.18505859 2.06347656 C-2.5 0.47460938 -2.5 0.47460938 0 0 Z M-0.5 2.47460938 C-2.47946049 5.00690767 -4.24719718 7.69804345 -6.0625 10.34960938 C-6.58263672 11.09597656 -7.10277344 11.84234375 -7.63867188 12.61132812 C-8.13044922 13.32675781 -8.62222656 14.0421875 -9.12890625 14.77929688 C-9.58338135 15.43913574 -10.03785645 16.09897461 -10.50610352 16.77880859 C-11.66854873 18.43459023 -11.66854873 18.43459023 -11.5 20.47460938 C-3.91 20.47460938 3.68 20.47460938 11.5 20.47460938 C9.52819956 16.53100849 7.31758944 12.92446404 4.9375 9.22460938 C4.52564453 8.57492188 4.11378906 7.92523437 3.68945312 7.25585938 C2.6546628 5.64355104 1.58068976 4.05651924 0.5 2.47460938 C0.17 2.47460938 -0.16 2.47460938 -0.5 2.47460938 Z " fill="#F9AC44" transform="translate(83.5,4.525390625)"/>
<path d="M0 0 C2.97 0 5.94 0 9 0 C9.12375 0.825 9.2475 1.65 9.375 2.5 C10.07102155 6.39772067 11.00880949 10.16739669 12 14 C8.37 14 4.74 14 1 14 C0.67 9.38 0.34 4.76 0 0 Z " fill="#E1BD7B" transform="translate(145,164)"/>
<path d="M0 0 C4.29 0 8.58 0 13 0 C15 5 15 5 15 8 C9.39 8 3.78 8 -2 8 C-1 2 -1 2 0 0 Z " fill="#F8AC44" transform="translate(44,167)"/>
<path d="M0 0 C4.29 0 8.58 0 13 0 C15 5 15 5 15 8 C9.72 8 4.44 8 -1 8 C-0.67 5.36 -0.34 2.72 0 0 Z " fill="#E0A34F" transform="translate(145,178)"/>
<path d="M0 0 C2.64 0 5.28 0 8 0 C11 6.625 11 6.625 11 10 C6.05 10 1.1 10 -4 10 C-2.68 6.7 -1.36 3.4 0 0 Z " fill="#F8AE49" transform="translate(129,126)"/>
<path d="M0 0 C0.02687279 1.81242052 0.04633715 3.62495233 0.0625 5.4375 C0.07410156 6.44683594 0.08570312 7.45617187 0.09765625 8.49609375 C0 11 0 11 -1 12 C-2.85287502 12.07226502 -4.70833878 12.0838122 -6.5625 12.0625 C-7.57441406 12.05347656 -8.58632812 12.04445313 -9.62890625 12.03515625 C-10.41136719 12.02355469 -11.19382812 12.01195312 -12 12 C-7.42857143 0 -7.42857143 0 0 0 Z " fill="#FED076" transform="translate(85,12)"/>
<path d="M0 0 C0.99 0 1.98 0 3 0 C2.38971626 4.88226994 0.28779201 8.72772175 -2 13 C-2.45375 13.928125 -2.9075 14.85625 -3.375 15.8125 C-5.51513604 18.69345236 -7.68049729 19.72870109 -11 21 C-11.66 20.67 -12.32 20.34 -13 20 C-12.505 18.515 -12.505 18.515 -12 17 C-12.27571139 14.99124558 -12.60235737 12.98821313 -13 11 C-12.01 11.495 -12.01 11.495 -11 12 C-11 13.32 -11 14.64 -11 16 C-10.01 15.67 -9.02 15.34 -8 15 C-6.78306124 12.56612247 -6.68040104 10.58161154 -6.4375 7.875 C-6.35371094 6.96492187 -6.26992187 6.05484375 -6.18359375 5.1171875 C-6.12300781 4.41851562 -6.06242188 3.71984375 -6 3 C-5.01 4.485 -5.01 4.485 -4 6 C-3.401875 5.01 -2.80375 4.02 -2.1875 3 C-1.1046875 1.515 -1.1046875 1.515 0 0 Z " fill="#EC7E59" transform="translate(160,133)"/>
<path d="M0 0 C2.31 0 4.62 0 7 0 C6.34580901 5.06998019 4.1453591 9.41990777 2 14 C-0.31 14 -2.62 14 -5 14 C-3.45730076 9.27934033 -1.92205381 4.58335908 0 0 Z " fill="#FBCE77" transform="translate(113,164)"/>
<path d="M0 0 C7.08919834 -0.45736763 12.74067772 0.46212219 19 4 C21 7 21 7 20.6875 10.0625 C20 13 20 13 19 15 C18.01 14.67 17.02 14.34 16 14 C16.33 12.35 16.66 10.7 17 9 C14.69 8.67 12.38 8.34 10 8 C10.33 7.34 10.66 6.68 11 6 C7.37 4.35 3.74 2.7 0 1 C0 0.67 0 0.34 0 0 Z " fill="#EB785C" transform="translate(21,160)"/>
<path d="M0 0 C4.31457305 0.319598 6.90647504 3.25801197 10 6 C10.66 4.35 11.32 2.7 12 1 C14.86724686 1.57344937 15.8614515 1.8614515 18 4 C16.68 6.31 15.36 8.62 14 11 C11.67713637 10.2956478 9.37016278 9.56377992 7.0625 8.8125 C6.40314453 8.61591797 5.74378906 8.41933594 5.06445312 8.21679688 C3.16015625 7.58203125 3.16015625 7.58203125 0 6 C-1.00390625 3.38671875 -1.00390625 3.38671875 -1 1 C-0.67 0.67 -0.34 0.34 0 0 Z " fill="#D27068" transform="translate(27,154)"/>
<path d="M0 0 C1.2065625 0.0309375 1.2065625 0.0309375 2.4375 0.0625 C1.89898032 5.33999285 0.66406164 9.31895564 -1.5625 14.0625 C-3.8725 14.0625 -6.1825 14.0625 -8.5625 14.0625 C-7.75324658 11.91544019 -6.94000887 9.7698817 -6.125 7.625 C-5.67253906 6.43003906 -5.22007813 5.23507813 -4.75390625 4.00390625 C-3.16338982 0.07715585 -3.16338982 0.07715585 0 0 Z " fill="#FCCF79" transform="translate(127.5625,135.9375)"/>
<path d="M0 0 C0 0.66 0 1.32 0 2 C-13.53 2 -27.06 2 -41 2 C-41 1.34 -41 0.68 -41 0 C-35.96480861 -0.1680811 -30.92945318 -0.32859004 -25.89379883 -0.48217773 C-24.1818192 -0.5354494 -22.46990192 -0.59076646 -20.75805664 -0.64819336 C-18.29326822 -0.73052001 -15.82834706 -0.80541647 -13.36328125 -0.87890625 C-12.60163162 -0.90594131 -11.83998199 -0.93297638 -11.05525208 -0.96083069 C-7.21707535 -1.06790504 -3.72799886 -0.95697118 0 0 Z " fill="#FED075" transform="translate(69,188)"/>
<path d="M0 0 C0.721875 0.391875 1.44375 0.78375 2.1875 1.1875 C2.5175 3.4975 2.8475 5.8075 3.1875 8.1875 C-0.47916667 8.1875 -4.14583333 8.1875 -7.8125 8.1875 C-8.125 5.375 -8.125 5.375 -7.8125 2.1875 C-4.94701137 -0.43237532 -3.78304028 -1.0928783 0 0 Z " fill="#B4C4EC" transform="translate(72.8125,43.8125)"/>
<path d="M0 0 C1.828125 0.16015625 1.828125 0.16015625 4 1 C5.484375 3.43359375 5.484375 3.43359375 6.75 6.4375 C7.39195312 7.92056641 7.39195312 7.92056641 8.046875 9.43359375 C9 12 9 12 9 14 C6.69 14 4.38 14 2 14 C-0.29612756 4.58997722 -0.29612756 4.58997722 0 0 Z " fill="#E1A14C" transform="translate(143,150)"/>
<path d="M0 0 C2.625 0.375 2.625 0.375 4.4375 2.75 C5.625 5.375 5.625 5.375 5.625 7.375 C6.285 7.705 6.945 8.035 7.625 8.375 C3.335 8.375 -0.955 8.375 -5.375 8.375 C-3.23 0.51 -3.23 0.51 0 0 Z " fill="#FDCE76" transform="translate(48.375,158.625)"/>
<path d="M0 0 C1.32 0 2.64 0 4 0 C3.54636829 1.58468677 3.08688548 3.16769924 2.625 4.75 C2.36976562 5.63171875 2.11453125 6.5134375 1.8515625 7.421875 C1.0790066 9.76080572 0.16374324 11.83442562 -1 14 C-2.32 14 -3.64 14 -5 14 C-4.54636829 12.41531323 -4.08688548 10.83230076 -3.625 9.25 C-3.36976562 8.36828125 -3.11453125 7.4865625 -2.8515625 6.578125 C-2.0790066 4.23919428 -1.16374324 2.16557438 0 0 Z " fill="#F7AD49" transform="translate(119,150)"/>
<path d="M0 0 C0 0.66 0 1.32 0 2 C1.32 2.33 2.64 2.66 4 3 C2.10614563 3.50744423 0.20981334 4.00564574 -1.6875 4.5 C-2.74324219 4.7784375 -3.79898438 5.056875 -4.88671875 5.34375 C-7.71142672 5.9391715 -10.12836708 6.12786492 -13 6 C-11.9958588 3.2614331 -11.33822766 2.18790425 -8.75 0.75 C-5.72159739 -0.07592799 -3.1250237 -0.14534994 0 0 Z " fill="#727ED2" transform="translate(47,150)"/>
<path d="M0 0 C1.875 1.0625 1.875 1.0625 3 3 C2.6875 6.6875 2.6875 6.6875 2 10 C-3.6557377 7.54098361 -3.6557377 7.54098361 -5.3125 4.9375 C-5.6528125 3.9784375 -5.6528125 3.9784375 -6 3 C-6.33 2.34 -6.66 1.68 -7 1 C-4.45132831 -0.27433584 -2.82594567 -0.27570202 0 0 Z " fill="#B4C4EC" transform="translate(126,83)"/>
<path d="M0 0 C2.64 0 5.28 0 8 0 C11 6.625 11 6.625 11 10 C9.68 10 8.36 10 7 10 C3 3.25 3 3.25 3 1 C2.01 0.67 1.02 0.34 0 0 Z " fill="#DCA55C" transform="translate(129,126)"/>
<path d="M0 0 C4.91343094 4.75493316 4.91343094 4.75493316 5.1328125 7.91015625 C5.11111111 13.88888889 5.11111111 13.88888889 4 15 C2.31391034 15.07205511 0.62499341 15.08386068 -1.0625 15.0625 C-1.98160156 15.05347656 -2.90070312 15.04445312 -3.84765625 15.03515625 C-4.55792969 15.02355469 -5.26820312 15.01195312 -6 15 C-6 14.67 -6 14.34 -6 14 C-1.545 13.505 -1.545 13.505 3 13 C2.7834375 12.31292969 2.566875 11.62585938 2.34375 10.91796875 C2.0653125 10.01691406 1.786875 9.11585938 1.5 8.1875 C1.08234375 6.84751953 1.08234375 6.84751953 0.65625 5.48046875 C0 3 0 3 0 0 Z " fill="#5D76D4" transform="translate(36,132)"/>
<path d="M0 0 C1.32 0 2.64 0 4 0 C5.65 4.62 7.3 9.24 9 14 C7.68 14 6.36 14 5 14 C3.35 9.38 1.7 4.76 0 0 Z " fill="#E0BD7D" transform="translate(137,136)"/>
<path d="M0 0 C0.66 0.33 1.32 0.66 2 1 C-0.76146789 5.73394495 -0.76146789 5.73394495 -2.625 7.8125 C-4.68806354 11.09464655 -4.67978523 14.15742273 -5 18 C-5.33 18 -5.66 18 -6 18 C-6.2165625 16.6078125 -6.2165625 16.6078125 -6.4375 15.1875 C-6.92100111 11.99274889 -6.92100111 11.99274889 -8 9 C-5.84140076 5.16249025 -3.71404629 2.38760119 0 0 Z " fill="#FFF7E9" transform="translate(47,88)"/>
<path d="M0 0 C1.99097846 2.98646769 2.94124926 5.59687262 4 9 C1.69 9 -0.62 9 -3 9 C-3 6.36 -3 3.72 -3 1 C-2.01 0.67 -1.02 0.34 0 0 Z " fill="#E2BE7B" transform="translate(59,174)"/>
<path d="M0 0 C0.99 0 1.98 0 3 0 C3 1.32 3 2.64 3 4 C4.32 4 5.64 4 7 4 C7 4.66 7 5.32 7 6 C5.68 6 4.36 6 3 6 C3 7.32 3 8.64 3 10 C2.01 10 1.02 10 0 10 C0 8.68 0 7.36 0 6 C-0.99 6 -1.98 6 -3 6 C-3 5.34 -3 4.68 -3 4 C-2.01 4 -1.02 4 0 4 C0 2.68 0 1.36 0 0 Z " fill="#CCD2FB" transform="translate(116,0)"/>
<path d="M0 0 C2.31 0 4.62 0 7 0 C7.33 1.65 7.66 3.3 8 5 C5.03 5 2.06 5 -1 5 C-0.67 3.35 -0.34 1.7 0 0 Z " fill="#E1A551" transform="translate(56,183)"/>
<path d="M0 0 C0.99 0.33 1.98 0.66 3 1 C2.57476184 2.60746056 2.13429874 4.21089836 1.6875 5.8125 C1.44386719 6.70582031 1.20023438 7.59914063 0.94921875 8.51953125 C-0.0200819 11.05247738 -0.95009604 12.2716496 -3 14 C-2.88617347 12.04098546 -2.75858875 10.0827662 -2.625 8.125 C-2.55539063 7.03445312 -2.48578125 5.94390625 -2.4140625 4.8203125 C-2 2 -2 2 0 0 Z " fill="#D36E65" transform="translate(167,119)"/>
<path d="M0 0 C4.97093824 0.41153737 9.44508386 0.79600832 14 3 C14 3.33 14 3.66 14 4 C12.04310341 4.22142255 10.08438048 4.4267568 8.125 4.625 C6.48917969 4.79902344 6.48917969 4.79902344 4.8203125 4.9765625 C3.42425781 4.98816406 3.42425781 4.98816406 2 5 C1.34 4.34 0.68 3.68 0 3 C0 2.01 0 1.02 0 0 Z " fill="#D46F65" transform="translate(12,155)"/>
<path d="M0 0 C0.66 0 1.32 0 2 0 C2 0.99 2 1.98 2 3 C3.32 3.33 4.64 3.66 6 4 C5.67 4.66 5.34 5.32 5 6 C4.01 6 3.02 6 2 6 C2 6.99 2 7.98 2 9 C1.34 9 0.68 9 0 9 C0 8.01 0 7.02 0 6 C-0.99 6 -1.98 6 -3 6 C-3 5.01 -3 4.02 -3 3 C-2.01 3 -1.02 3 0 3 C0 2.01 0 1.02 0 0 Z " fill="#C7D3FB" transform="translate(43,15)"/>
<path d="M0 0 C0.99 0.33 1.98 0.66 3 1 C1.35 5.29 -0.3 9.58 -2 14 C-2.99 14 -3.98 14 -5 14 C-4.54636829 12.41531323 -4.08688548 10.83230076 -3.625 9.25 C-3.36976562 8.36828125 -3.11453125 7.4865625 -2.8515625 6.578125 C-2.0790066 4.23919428 -1.16374324 2.16557438 0 0 Z " fill="#FBC073" transform="translate(123,150)"/>
<path d="M0 0 C0.66 0 1.32 0 2 0 C2 1.32 2 2.64 2 4 C3.32 4 4.64 4 6 4 C6 4.66 6 5.32 6 6 C4.68 6 3.36 6 2 6 C2 7.32 2 8.64 2 10 C1.34 10 0.68 10 0 10 C0 8.68 0 7.36 0 6 C-1.32 6 -2.64 6 -4 6 C-4 5.34 -4 4.68 -4 4 C-2.68 4 -1.36 4 0 4 C0 2.68 0 1.36 0 0 Z " fill="#CAD2FA" transform="translate(155,92)"/>
<path d="M0 0 C2.625 -0.1875 2.625 -0.1875 5 0 C5.33 1.65 5.66 3.3 6 5 C3.69 5 1.38 5 -1 5 C-1.33 4.34 -1.66 3.68 -2 3 C-1.34 2.01 -0.68 1.02 0 0 Z " fill="#EEA747" transform="translate(46,153)"/>
<path d="M0 0 C5.41342681 1.14514798 7.9342948 2.34012809 11 7 C9.55903414 6.57405412 8.12231288 6.13373367 6.6875 5.6875 C5.88699219 5.44386719 5.08648437 5.20023438 4.26171875 4.94921875 C1.90035427 3.95817977 0.66120007 2.91925057 -1 1 C-0.67 0.67 -0.34 0.34 0 0 Z " fill="#6177D5" transform="translate(164,171)"/>
<path d="M0 0 C1.4386494 0.06032073 2.87611902 0.14920133 4.3125 0.25 C5.51326172 0.31960937 5.51326172 0.31960937 6.73828125 0.390625 C9.66467743 1.17908407 10.44016602 2.4759968 12 5 C10.3743193 4.69106068 8.74947252 4.3777305 7.125 4.0625 C6.22007812 3.88847656 5.31515625 3.71445313 4.3828125 3.53515625 C2 3 2 3 0 2 C0 1.34 0 0.68 0 0 Z " fill="#5F77D5" transform="translate(172,168)"/>
<path d="M0 0 C0.66 0 1.32 0 2 0 C2 0.99 2 1.98 2 3 C2.99 3 3.98 3 5 3 C5 3.66 5 4.32 5 5 C4.01 5 3.02 5 2 5 C2 6.32 2 7.64 2 9 C1.34 9 0.68 9 0 9 C0 7.68 0 6.36 0 5 C-1.32 4.67 -2.64 4.34 -4 4 C-2.68 3.67 -1.36 3.34 0 3 C0 2.01 0 1.02 0 0 Z " fill="#CAD2FA" transform="translate(19,85)"/>
<path d="M0 0 C0.66 0 1.32 0 2 0 C2 0.99 2 1.98 2 3 C3.32 3 4.64 3 6 3 C6 3.66 6 4.32 6 5 C4.68 5 3.36 5 2 5 C2 5.99 2 6.98 2 8 C1.34 8 0.68 8 0 8 C0 7.01 0 6.02 0 5 C-0.99 5 -1.98 5 -3 5 C-3 4.34 -3 3.68 -3 3 C-2.01 3 -1.02 3 0 3 C0 2.01 0 1.02 0 0 Z " fill="#C9D2F9" transform="translate(179,132)"/>
<path d="M0 0 C0.66 0 1.32 0 2 0 C1.33501617 4.38889325 -0.18757677 7.9811485 -2 12 C-2.66 12 -3.32 12 -4 12 C-3.33501617 7.61110675 -1.81242323 4.0188515 0 0 Z " fill="#FEDC9A" transform="translate(118,164)"/>
<path d="M0 0 C0.66 0 1.32 0 2 0 C1.52309796 1.62566606 1.04340334 3.25051311 0.5625 4.875 C0.29566406 5.77992188 0.02882812 6.68484375 -0.24609375 7.6171875 C-1 10 -1 10 -2 12 C-2.66 12 -3.32 12 -4 12 C-3.45660208 7.43545749 -2.20536179 4.0271824 0 0 Z " fill="#FFDC9A" transform="translate(128,138)"/>
<path d="M0 0 C3.16115776 1.36983503 3.9927092 1.9890638 6 5 C5.625 7.6875 5.625 7.6875 5 10 C2.35534962 6.8745041 1.15585285 3.91211733 0 0 Z " fill="#5E76D3" transform="translate(42,138)"/>
<path d="M0 0 C2 1 2 1 3 3 C1.71073008 3.36279456 0.41846728 3.71496698 -0.875 4.0625 C-1.95394531 4.35833984 -1.95394531 4.35833984 -3.0546875 4.66015625 C-5 5 -5 5 -7 4 C-4.61426621 2.10786631 -2.92824652 0.97608217 0 0 Z " fill="#5E77D4" transform="translate(41,150)"/>
<path d="M0 0 C0.99 0 1.98 0 3 0 C4.25664978 2.90600261 5 4.79604584 5 8 C4.01 8 3.02 8 2 8 C1.34 5.36 0.68 2.72 0 0 Z " fill="#DDA356" transform="translate(54,167)"/>
<path d="M0 0 C0.66 0.33 1.32 0.66 2 1 C1.0479279 2.00596297 0.08812654 3.00461563 -0.875 4 C-1.40867188 4.556875 -1.94234375 5.11375 -2.4921875 5.6875 C-4 7 -4 7 -6 7 C-5.8125 5.1875 -5.8125 5.1875 -5 3 C-2.5625 1.1875 -2.5625 1.1875 0 0 Z " fill="#6078D5" transform="translate(160,163)"/>
<path d="M0 0 C0.33 0.99 0.66 1.98 1 3 C-2.97610294 8.68014706 -2.97610294 8.68014706 -6.17578125 9.6796875 C-7.07876953 9.83824219 -7.07876953 9.83824219 -8 10 C-7.59007812 9.52949219 -7.18015625 9.05898437 -6.7578125 8.57421875 C-6.21898437 7.95160156 -5.68015625 7.32898438 -5.125 6.6875 C-4.59132812 6.07261719 -4.05765625 5.45773438 -3.5078125 4.82421875 C-1.8359553 2.86501788 -1.8359553 2.86501788 0 0 Z " fill="#6E7FDE" transform="translate(190,152)"/>
<path d="M0 0 C1.79379098 0.44994757 3.58498928 0.91024143 5.375 1.375 C6.37273438 1.63023437 7.37046875 1.88546875 8.3984375 2.1484375 C11 3 11 3 13 5 C7.30702655 5.45543788 4.45738181 4.58764877 0 1 C0 0.67 0 0.34 0 0 Z " fill="#6D7EDE" transform="translate(13,130)"/>
<path d="M0 0 C1.06671952 3.20015856 0.94845472 4.88544294 0.5625 8.1875 C0.46066406 9.08855469 0.35882812 9.98960937 0.25390625 10.91796875 C0.17011719 11.60503906 0.08632813 12.29210937 0 13 C-1.546875 11.7890625 -1.546875 11.7890625 -3 10 C-2.890625 7.7734375 -2.890625 7.7734375 -2.25 5.375 C-2.04890625 4.57835938 -1.8478125 3.78171875 -1.640625 2.9609375 C-1 1 -1 1 0 0 Z " fill="#6D7FDE" transform="translate(27,120)"/>
<path d="M0 0 C0.99 0 1.98 0 3 0 C3 2.31 3 4.62 3 7 C2.01 7.33 1.02 7.66 0 8 C0 5.36 0 2.72 0 0 Z " fill="#FFE9C1" transform="translate(82,12)"/>
<path d="M0 0 C0.33 0 0.66 0 1 0 C1.17835515 4.54805635 0.99785435 7.8794254 -1 12 C-1.66 12 -2.32 12 -3 12 C-2.01 8.04 -1.02 4.08 0 0 Z " fill="#6D7FDE" transform="translate(181,152)"/>
<path d="M0 0 C1.65 0.33 3.3 0.66 5 1 C5 1.99 5 2.98 5 4 C3.02 4 1.04 4 -1 4 C-0.67 2.68 -0.34 1.36 0 0 Z " fill="#D0DCF8" transform="translate(68,131)"/>
<path d="M0 0 C0.66 0 1.32 0 2 0 C1.125 5.75 1.125 5.75 0 8 C-0.99 7.67 -1.98 7.34 -3 7 C-2.01 4.69 -1.02 2.38 0 0 Z " fill="#F8A848" transform="translate(40,167)"/>
<path d="M0 0 C1.98 1.65 3.96 3.3 6 5 C5.67 5.66 5.34 6.32 5 7 C4.67 6.67 4.34 6.34 4 6 C1.67182036 5.63239269 -0.6618385 5.29758419 -3 5 C-2.67 4.01 -2.34 3.02 -2 2 C-1.34 2 -0.68 2 0 2 C0 1.34 0 0.68 0 0 Z " fill="#F18E50" transform="translate(34,163)"/>
<path d="M0 0 C1.98 0.495 1.98 0.495 4 1 C3.67 2.32 3.34 3.64 3 5 C1.68 4.67 0.36 4.34 -1 4 C-0.67 2.68 -0.34 1.36 0 0 Z " fill="#E2E6FF" transform="translate(179,92)"/>
<path d="M0 0 C1.32 0 2.64 0 4 0 C4 1.32 4 2.64 4 4 C3.01 4.33 2.02 4.66 1 5 C0.34 4.67 -0.32 4.34 -1 4 C-0.67 2.68 -0.34 1.36 0 0 Z " fill="#E1E7FF" transform="translate(61,4)"/>
<path d="M0 0 C1.32 0.66 2.64 1.32 4 2 C3.67 2.99 3.34 3.98 3 5 C1.68 5 0.36 5 -1 5 C-0.67 3.35 -0.34 1.7 0 0 Z " fill="#E2E7FF" transform="translate(7,170)"/>
<path d="M0 0 C0.66 0 1.32 0 2 0 C2.66 1.65 3.32 3.3 4 5 C3.34 5 2.68 5 2 5 C2 6.98 2 8.96 2 11 C1.67 11 1.34 11 1 11 C0.67 7.37 0.34 3.74 0 0 Z " fill="#5C75D3" transform="translate(31,126)"/>
<path d="M0 0 C2 2 2 2 2.3125 4.9375 C2 8 2 8 0.5 9.875 C-0.2425 10.431875 -0.2425 10.431875 -1 11 C-1.14285714 3.57142857 -1.14285714 3.57142857 0 0 Z " fill="#5C75D3" transform="translate(28,119)"/>
<path d="M0 0 C2.475 0.495 2.475 0.495 5 1 C4.34 2.32 3.68 3.64 3 5 C2.01 4.67 1.02 4.34 0 4 C0 2.68 0 1.36 0 0 Z " fill="#E2E7FF" transform="translate(12,107)"/>
<path d="M0 0 C0.99 0.33 1.98 0.66 3 1 C3 1.99 3 2.98 3 4 C1.125 4.625 1.125 4.625 -1 5 C-1.66 4.34 -2.32 3.68 -3 3 C-2.01 2.01 -1.02 1.02 0 0 Z " fill="#D1DCF8" transform="translate(123,90)"/>
<path d="M0 0 C1.65 0 3.3 0 5 0 C4.67 1.32 4.34 2.64 4 4 C2.68 4 1.36 4 0 4 C0 2.68 0 1.36 0 0 Z " fill="#D1DCF8" transform="translate(68,51)"/>
<path d="M0 0 C2.475 0.495 2.475 0.495 5 1 C5.33 2.65 5.66 4.3 6 6 C4.02 6 2.04 6 0 6 C0 4.02 0 2.04 0 0 Z " fill="#EBEDF2" transform="translate(161,45)"/>
<path d="M0 0 C2.6855594 2.6855594 3.06049974 5.37621328 4 9 C3.34 9 2.68 9 2 9 C0.4375 6.1875 0.4375 6.1875 -1 3 C-0.67 2.01 -0.34 1.02 0 0 Z " fill="#D6B784" transform="translate(52,157)"/>
<path d="M0 0 C0.66 0 1.32 0 2 0 C2 0.66 2 1.32 2 2 C2.66 2.33 3.32 2.66 4 3 C2.68 3.99 1.36 4.98 0 6 C0 5.34 0 4.68 0 4 C-0.66 4 -1.32 4 -2 4 C-2 3.34 -2 2.68 -2 2 C-1.34 2 -0.68 2 0 2 C0 1.34 0 0.68 0 0 Z " fill="#CBD2F9" transform="translate(5,138)"/>
<path d="M0 0 C2.02054804 1.64169528 4.02043058 3.30911778 6 5 C6 5.33 6 5.66 6 6 C4.35 6 2.7 6 1 6 C0.67 4.02 0.34 2.04 0 0 Z " fill="#AABAE9" transform="translate(77,95)"/>
<path d="M0 0 C0.66 0 1.32 0 2 0 C2 0.66 2 1.32 2 2 C2.66 2.33 3.32 2.66 4 3 C3.34 3 2.68 3 2 3 C2 3.66 2 4.32 2 5 C1.34 5 0.68 5 0 5 C0 4.34 0 3.68 0 3 C-0.66 2.67 -1.32 2.34 -2 2 C-1.34 2 -0.68 2 0 2 C0 1.34 0 0.68 0 0 Z " fill="#CAD2FA" transform="translate(7,57)"/>
<path d="M0 0 C0.33 0.66 0.66 1.32 1 2 C1.66 2 2.32 2 3 2 C3 2.66 3 3.32 3 4 C2.01 4.33 1.02 4.66 0 5 C-0.66 4.67 -1.32 4.34 -2 4 C-2 3.34 -2 2.68 -2 2 C-1.34 2 -0.68 2 0 2 C0 1.34 0 0.68 0 0 Z " fill="#C8D4FB" transform="translate(184,105)"/>
<path d="M0 0 C0.33 0.66 0.66 1.32 1 2 C1.66 2.33 2.32 2.66 3 3 C2.34 3 1.68 3 1 3 C0.67 3.66 0.34 4.32 0 5 C0 4.34 0 3.68 0 3 C-0.66 2.67 -1.32 2.34 -2 2 C-1.34 2 -0.68 2 0 2 C0 1.34 0 0.68 0 0 Z " fill="#C9D2F8" transform="translate(104,9)"/>
<path d="M0 0 C0.99 0.33 1.98 0.66 3 1 C3 1.66 3 2.32 3 3 C2.01 3 1.02 3 0 3 C0 2.01 0 1.02 0 0 Z " fill="#E3E7FF" transform="translate(153,114)"/>
<path d="M0 0 C0.99 0.33 1.98 0.66 3 1 C3 1.66 3 2.32 3 3 C2.01 3 1.02 3 0 3 C0 2.01 0 1.02 0 0 Z " fill="#E3E7FF" transform="translate(0,85)"/>
<path d="M0 0 C0.66 0.33 1.32 0.66 2 1 C2 1.66 2 2.32 2 3 C1.01 3 0.02 3 -1 3 C-0.67 2.01 -0.34 1.02 0 0 Z " fill="#E3E7FF" transform="translate(3,32)"/>
<path d="M0 0 C0.99 0 1.98 0 3 0 C2.67 0.99 2.34 1.98 2 3 C1.34 2.67 0.68 2.34 0 2 C0 1.34 0 0.68 0 0 Z " fill="#E2E7FF" transform="translate(155,3)"/>
</svg>
