<?xml version="1.0" encoding="UTF-8"?>
<svg version="1.1" xmlns="http://www.w3.org/2000/svg" width="231" height="179">
<path d="M0 0 C1.98 0 3.96 0 6 0 C6 0.99 6 1.98 6 3 C8.31 3 10.62 3 13 3 C13.68707555 5.49064888 14 7.37886292 14 10 C14.99 10.66 15.98 11.32 17 12 C17 13.32 17 14.64 17 16 C15.02 16.495 15.02 16.495 13 17 C13.33 17.99 13.66 18.98 14 20 C37.1 20.33 60.2 20.66 84 21 C84.25 55.25 84.25 55.25 84.29785156 66.05566406 C84.33108085 69.25830087 84.33108085 69.25830087 84.36956787 72.46087646 C84.3841604 73.88481142 84.39095253 75.30883952 84.39154053 76.73284912 C84.3939589 78.89315975 84.42129713 81.05187935 84.45410156 83.21191406 C84.46298401 84.4288092 84.47186646 85.64570435 84.48101807 86.8994751 C85.09685766 90.57865136 86.26279674 91.59105897 89 94 C88.75 96.25 88.75 96.25 88 98 C85.14839609 98.81434143 82.63373869 99.11881242 79.671875 99.09765625 C78.9509668 99.09515869 78.23005859 99.09266113 77.48730469 99.09008789 C76.58399414 99.08098389 75.68068359 99.07187988 74.75 99.0625 C71.8625 99.041875 68.975 99.02125 66 99 C66.33 107.91 66.66 116.82 67 126 C70.47982808 125.13004298 71.66025896 124.69085559 74.375 122.75 C79.28251659 119.55592374 87.9988991 115 94 115 C94.74728757 129.44755976 93.35410146 144.24977403 84 156 C81.58067676 158.46518719 79.11013198 160.44493401 76 162 C77.13179687 162.24234375 78.26359375 162.4846875 79.4296875 162.734375 C80.91165852 163.07203928 82.39341883 163.41062927 83.875 163.75 C84.62136719 163.90726563 85.36773437 164.06453125 86.13671875 164.2265625 C91.66252929 165.5208965 91.66252929 165.5208965 93.5078125 168.140625 C93.67023438 168.75421875 93.83265625 169.3678125 94 170 C70.75192232 181.15783407 37.63347989 178.31797273 12.47265625 178.30078125 C10.01915925 178.30469012 7.5656629 178.30902905 5.11216736 178.31376648 C0.0105468 178.32114925 -5.09100449 178.32099702 -10.19262695 178.31567383 C-15.33985143 178.3110497 -20.48683923 178.317946 -25.6340332 178.33618164 C-75.03006886 178.5094087 -75.03006886 178.5094087 -96.69140625 176.66796875 C-97.74028172 176.58042548 -97.74028172 176.58042548 -98.8103466 176.49111366 C-123.41974381 174.35424036 -123.41974381 174.35424036 -131 170 C-130.328125 168.1015625 -130.328125 168.1015625 -129 166 C-126.671875 165.0234375 -126.671875 165.0234375 -123.75 164.375 C-122.15671875 164.02115234 -122.15671875 164.02115234 -120.53125 163.66015625 C-114.71376673 162.57259577 -108.87113616 161.73823458 -103 161 C-104.7634375 160.2575 -104.7634375 160.2575 -106.5625 159.5 C-113.99305719 155.7386914 -118.4102564 149.6000468 -121.22265625 141.875 C-122.71817483 136.3438358 -123.3773166 130.68608263 -124 125 C-116.5669375 125.42883053 -110.79556791 127.98832786 -104 131 C-103.67 124.07 -103.34 117.14 -103 110 C-104.98 109.34 -106.96 108.68 -109 108 C-112.49322724 106.46734442 -115.89651234 104.75947451 -119.3125 103.0625 C-120.23095703 102.61970703 -121.14941406 102.17691406 -122.09570312 101.72070312 C-122.96775391 101.28822266 -123.83980469 100.85574219 -124.73828125 100.41015625 C-125.92997925 99.82439819 -125.92997925 99.82439819 -127.14575195 99.22680664 C-129 98 -129 98 -130 95 C-129.06396156 92.62983039 -128.07174034 90.44348265 -126.921875 88.1796875 C-126.5946344 87.52042267 -126.2673938 86.86115784 -125.93023682 86.18191528 C-125.2355918 84.78922235 -124.5358876 83.39904312 -123.83154297 82.01123047 C-122.75412806 79.88315361 -121.69843341 77.74526916 -120.64453125 75.60546875 C-119.96742746 74.25456519 -119.28908312 72.90428256 -118.609375 71.5546875 C-118.29361511 70.91304657 -117.97785522 70.27140564 -117.65252686 69.61032104 C-115.34489367 65.11496456 -115.34489367 65.11496456 -112 64 C-109.95703125 64.77734375 -109.95703125 64.77734375 -107.8125 65.9375 C-107.09707031 66.31777344 -106.38164063 66.69804688 -105.64453125 67.08984375 C-105.10183594 67.39019531 -104.55914062 67.69054687 -104 68 C-103.98018066 67.25314941 -103.96036133 66.50629883 -103.93994141 65.73681641 C-103.84491789 62.36584395 -103.73514741 58.99551071 -103.625 55.625 C-103.5940625 54.449375 -103.563125 53.27375 -103.53125 52.0625 C-103.49257812 50.94101562 -103.45390625 49.81953125 -103.4140625 48.6640625 C-103.3826416 47.62717285 -103.3512207 46.5902832 -103.31884766 45.52197266 C-103 43 -103 43 -101 41 C-98.32980347 40.75949097 -98.32980347 40.75949097 -94.89794922 40.77294922 C-93.61677216 40.77310028 -92.33559509 40.77325134 -91.01559448 40.77340698 C-89.61195726 40.78362105 -88.2083216 40.79405305 -86.8046875 40.8046875 C-85.37265215 40.80841709 -83.94061425 40.81126431 -82.50857544 40.81326294 C-78.73721283 40.82090373 -74.96600396 40.84055592 -71.19470215 40.8626709 C-67.34727051 40.88311981 -63.49981406 40.8922626 -59.65234375 40.90234375 C-52.10149236 40.9238015 -44.55076771 40.95794268 -37 41 C-37.2172876 40.37955811 -37.4345752 39.75911621 -37.65844727 39.11987305 C-38.63584725 36.31224627 -39.59930484 33.50002988 -40.5625 30.6875 C-40.90474609 29.71103516 -41.24699219 28.73457031 -41.59960938 27.72851562 C-42.07817383 26.32182617 -42.07817383 26.32182617 -42.56640625 24.88671875 C-42.86490479 24.02264404 -43.16340332 23.15856934 -43.47094727 22.26831055 C-44 20 -44 20 -43 17 C-40.453125 15.796875 -40.453125 15.796875 -37.25 14.75 C-36.20328125 14.39421875 -35.1565625 14.0384375 -34.078125 13.671875 C-28.77542911 12.51443377 -24.42630846 14.0734517 -19.94140625 16.94140625 C-15.60584673 21.53866957 -12.99337636 30.03244251 -13.00390625 36.33984375 C-14 38 -14 38 -20 40 C-3.665 40.495 -3.665 40.495 13 41 C13 35.39 13 29.78 13 24 C12.01 24.33 11.02 24.66 10 25 C7.8125 24.5625 7.8125 24.5625 6 24 C5.67 24.99 5.34 25.98 5 27 C3.35 27 1.7 27 0 27 C0 26.01 0 25.02 0 24 C-2.31 24 -4.62 24 -7 24 C-7.82638376 21.10765685 -8 19.11257569 -8 16 C-8.99 16 -9.98 16 -11 16 C-11 14.35 -11 12.7 -11 11 C-10.01 10.67 -9.02 10.34 -8 10 C-8 8.02 -8 6.04 -8 4 C-5.23735711 3.40267181 -2.83967231 3 0 3 C0 2.01 0 1.02 0 0 Z M1 10 C0.34 10.66 -0.32 11.32 -1 12 C-0.67958603 14.60280568 -0.67958603 14.60280568 0 17 C2.41645782 17.16687448 2.41645782 17.16687448 5 17 C5.66 16.34 6.32 15.68 7 15 C6.6814823 12.89179203 6.6814823 12.89179203 6 11 C3.60280568 10.32041397 3.60280568 10.32041397 1 10 Z M8 147 C8 149.97 8 152.94 8 156 C9.5381577 156.51069267 11.08075289 157.00802747 12.625 157.5 C13.48351562 157.7784375 14.34203125 158.056875 15.2265625 158.34375 C18.4981253 159.23026146 18.4981253 159.23026146 24 159 C24 155.04 24 151.08 24 147 C18.72 147 13.44 147 8 147 Z " fill="#FBFCFE" transform="translate(132,1)"/>
<path d="M0 0 C4.62 0 9.24 0 14 0 C14.33 9.24 14.66 18.48 15 28 C18.47982808 27.13004298 19.66025896 26.69085559 22.375 24.75 C27.28251659 21.55592374 35.9988991 17 42 17 C42.74728757 31.44755976 41.35410146 46.24977403 32 58 C29.58067676 60.46518719 27.11013198 62.44493401 24 64 C25.13179687 64.24234375 26.26359375 64.4846875 27.4296875 64.734375 C28.91165852 65.07203928 30.39341883 65.41062927 31.875 65.75 C32.62136719 65.90726562 33.36773437 66.06453125 34.13671875 66.2265625 C39.66252929 67.5208965 39.66252929 67.5208965 41.5078125 70.140625 C41.75144531 71.06101563 41.75144531 71.06101563 42 72 C18.75192232 83.15783407 -14.36652011 80.31797273 -39.52734375 80.30078125 C-41.98084075 80.30469012 -44.4343371 80.30902905 -46.88783264 80.31376648 C-51.9894532 80.32114925 -57.09100449 80.32099702 -62.19262695 80.31567383 C-67.33985143 80.3110497 -72.48683923 80.317946 -77.6340332 80.33618164 C-127.03006886 80.5094087 -127.03006886 80.5094087 -148.69140625 78.66796875 C-149.39065657 78.60960657 -150.08990688 78.55124439 -150.8103466 78.49111366 C-175.41974381 76.35424036 -175.41974381 76.35424036 -183 72 C-182.328125 70.1015625 -182.328125 70.1015625 -181 68 C-178.671875 67.0234375 -178.671875 67.0234375 -175.75 66.375 C-174.15671875 66.02115234 -174.15671875 66.02115234 -172.53125 65.66015625 C-166.71376673 64.57259577 -160.87113616 63.73823458 -155 63 C-156.175625 62.505 -157.35125 62.01 -158.5625 61.5 C-165.99305719 57.7386914 -170.4102564 51.6000468 -173.22265625 43.875 C-174.71817483 38.3438358 -175.3773166 32.68608263 -176 27 C-169.33041329 27.38478385 -159.89445477 29.10554523 -155 34 C-154.79103683 35.80811184 -154.63219639 37.62216032 -154.5 39.4375 C-154.28580817 43.36434915 -154.28580817 43.36434915 -153 47 C-151.02 47.33 -149.04 47.66 -147 48 C-147 36.12 -147 24.24 -147 12 C-116.35799647 10.22732211 -116.35799647 10.22732211 -109.8984375 15.01171875 C-106.88115508 17.85765861 -104.40304107 21.0098723 -102.12695312 24.47119141 C-100.99753789 26.20061919 -100.99753789 26.20061919 -98.671875 27.44921875 C-98.12015625 27.96097656 -97.5684375 28.47273438 -97 29 C-97 31.64 -97 34.28 -97 37 C-74.23 37 -51.46 37 -28 37 C-28 30.07 -28 23.14 -28 16 C-18.76 16 -9.52 16 0 16 C0 10.72 0 5.44 0 0 Z M-44 49 C-44 51.97 -44 54.94 -44 58 C-42.4618423 58.51069267 -40.91924711 59.00802747 -39.375 59.5 C-38.51648438 59.7784375 -37.65796875 60.056875 -36.7734375 60.34375 C-33.5018747 61.23026146 -33.5018747 61.23026146 -28 61 C-28 57.04 -28 53.08 -28 49 C-33.28 49 -38.56 49 -44 49 Z " fill="#D1DBF7" transform="translate(184,99)"/>
<path d="M0 0 C4.33555952 4.59726332 6.94802989 13.09103626 6.9375 19.3984375 C5.94140625 21.05859375 5.94140625 21.05859375 -0.05859375 23.05859375 C11.16140625 23.38859375 22.38140625 23.71859375 33.94140625 24.05859375 C33.94140625 36.05859375 33.94140625 36.05859375 32.94140625 44.05859375 C-0.71859375 44.05859375 -34.37859375 44.05859375 -69.05859375 44.05859375 C-69.05859375 60.22859375 -69.05859375 76.39859375 -69.05859375 93.05859375 C-71.03859375 93.05859375 -73.01859375 93.05859375 -75.05859375 93.05859375 C-75.05859375 104.93859375 -75.05859375 116.81859375 -75.05859375 129.05859375 C-77.03859375 129.05859375 -79.01859375 129.05859375 -81.05859375 129.05859375 C-83.48729284 125.41554511 -83.3153505 122.75137036 -83.25390625 118.546875 C-83.25107635 117.81865036 -83.24824646 117.09042572 -83.24533081 116.34013367 C-83.23414632 114.01695238 -83.20904541 111.69415828 -83.18359375 109.37109375 C-83.17356169 107.79492745 -83.16443623 106.2187551 -83.15625 104.64257812 C-83.13421271 100.78110108 -83.09969516 96.91991304 -83.05859375 93.05859375 C-83.94699951 92.77556396 -84.83540527 92.49253418 -85.75073242 92.20092773 C-90.49403292 90.56288042 -94.88272155 88.35080123 -99.37109375 86.12109375 C-100.28955078 85.67830078 -101.20800781 85.23550781 -102.15429688 84.77929688 C-103.02634766 84.34681641 -103.89839844 83.91433594 -104.796875 83.46875 C-105.988573 82.88299194 -105.988573 82.88299194 -107.2043457 82.28540039 C-109.05859375 81.05859375 -109.05859375 81.05859375 -110.05859375 78.05859375 C-109.12255531 75.68842414 -108.13033409 73.5020764 -106.98046875 71.23828125 C-106.65322815 70.57901642 -106.32598755 69.91975159 -105.98883057 69.24050903 C-105.29418555 67.8478161 -104.59448135 66.45763687 -103.89013672 65.06982422 C-102.81272181 62.94174736 -101.75702716 60.80386291 -100.703125 58.6640625 C-100.02602121 57.31315894 -99.34767687 55.96287631 -98.66796875 54.61328125 C-98.35220886 53.97164032 -98.03644897 53.32999939 -97.71112061 52.66891479 C-95.40348742 48.17355831 -95.40348742 48.17355831 -92.05859375 47.05859375 C-90.015625 47.8359375 -90.015625 47.8359375 -87.87109375 48.99609375 C-87.15566406 49.37636719 -86.44023438 49.75664063 -85.703125 50.1484375 C-85.16042969 50.44878906 -84.61773437 50.74914062 -84.05859375 51.05859375 C-84.03877441 50.31174316 -84.01895508 49.56489258 -83.99853516 48.79541016 C-83.90351164 45.4244377 -83.79374116 42.05410446 -83.68359375 38.68359375 C-83.65265625 37.50796875 -83.62171875 36.33234375 -83.58984375 35.12109375 C-83.55117187 33.99960937 -83.5125 32.878125 -83.47265625 31.72265625 C-83.44123535 30.6857666 -83.40981445 29.64887695 -83.37744141 28.58056641 C-83.05859375 26.05859375 -83.05859375 26.05859375 -81.05859375 24.05859375 C-78.38839722 23.81808472 -78.38839722 23.81808472 -74.95654297 23.83154297 C-73.67536591 23.83169403 -72.39418884 23.83184509 -71.07418823 23.83200073 C-69.67055101 23.8422148 -68.26691535 23.8526468 -66.86328125 23.86328125 C-65.4312459 23.86701084 -63.999208 23.86985806 -62.56716919 23.87185669 C-58.79580658 23.87949748 -55.02459771 23.89914967 -51.2532959 23.92126465 C-47.40586426 23.94171356 -43.55840781 23.95085635 -39.7109375 23.9609375 C-32.16008611 23.98239525 -24.60936146 24.01653643 -17.05859375 24.05859375 C-17.27588135 23.43815186 -17.49316895 22.81770996 -17.71704102 22.1784668 C-18.694441 19.37084002 -19.65789859 16.55862363 -20.62109375 13.74609375 C-20.96333984 12.76962891 -21.30558594 11.79316406 -21.65820312 10.78710938 C-22.13676758 9.38041992 -22.13676758 9.38041992 -22.625 7.9453125 C-22.92349854 7.08123779 -23.22199707 6.21716309 -23.52954102 5.3269043 C-24.05859375 3.05859375 -24.05859375 3.05859375 -23.05859375 0.05859375 C-20.51171875 -1.14453125 -20.51171875 -1.14453125 -17.30859375 -2.19140625 C-16.261875 -2.5471875 -15.21515625 -2.90296875 -14.13671875 -3.26953125 C-8.83402286 -4.42697248 -4.48490221 -2.86795455 0 0 Z " fill="#CFD9F7" transform="translate(112.05859375,17.94140625)"/>
<path d="M0 0 C30.64806826 -1.77302874 30.64806826 -1.77302874 37.13671875 3.046875 C40.62197609 6.33558555 43.30022402 10.0567195 46 14 C46.99 14.66 47.98 15.32 49 16 C49.44824219 18.79052734 49.44824219 18.79052734 49.546875 22.3359375 C49.60681641 24.27533203 49.60681641 24.27533203 49.66796875 26.25390625 C49.68134277 26.93211426 49.6947168 27.61032227 49.70849609 28.30908203 C49.74915954 30.33316469 49.8119403 32.35554237 49.87890625 34.37890625 C50.09367357 42.43665775 49.67760032 49.86879615 49 58 C32.83 58 16.66 58 0 58 C0 55.69 0 53.38 0 51 C-1.155 51.0825 -2.31 51.165 -3.5 51.25 C-9.37421764 51.20855931 -13.54675414 49.1684495 -17.91796875 45.3046875 C-26.16895288 36.61388545 -27.7318557 26.58015984 -29 15 C-22.33041329 15.38478385 -12.89445477 17.10554523 -8 22 C-7.79103683 23.80811184 -7.63219639 25.62216032 -7.5 27.4375 C-7.28580817 31.36434915 -7.28580817 31.36434915 -6 35 C-4.02 35.33 -2.04 35.66 0 36 C0 24.12 0 12.24 0 0 Z " fill="#EB7562" transform="translate(37,111)"/>
<path d="M0 0 C0 2.31 0 4.62 0 7 C54.45 7 108.9 7 165 7 C165.33 5.35 165.66 3.7 166 2 C173.19356274 1.64032186 180.28220245 2.19131085 187 5 C188.34765625 7.109375 188.34765625 7.109375 189 9 C165.75192232 20.15783407 132.63347989 17.31797273 107.47265625 17.30078125 C105.01915925 17.30469012 102.5656629 17.30902905 100.11216736 17.31376648 C95.0105468 17.32114925 89.90899551 17.32099702 84.80737305 17.31567383 C79.66014857 17.3110497 74.51316077 17.317946 69.3659668 17.33618164 C19.96993114 17.5094087 19.96993114 17.5094087 -1.69140625 15.66796875 C-2.39065657 15.60960657 -3.08990688 15.55124439 -3.8103466 15.49111366 C-28.41974381 13.35424036 -28.41974381 13.35424036 -36 9 C-35.3203125 7.1015625 -35.3203125 7.1015625 -34 5 C-24.20393873 0.76294928 -10.53712515 -0.21204741 0 0 Z " fill="#EDF0FB" transform="translate(37,162)"/>
<path d="M0 0 C23.1 0 46.2 0 70 0 C70 1.98 70 3.96 70 6 C64.72 6 59.44 6 54 6 C54 8.97 54 11.94 54 15 C54.65226562 15.10957031 55.30453125 15.21914062 55.9765625 15.33203125 C61.1197623 16.26508962 65.41899779 17.34784083 70 20 C70 22.31 70 24.62 70 27 C46.9 27 23.8 27 0 27 C0 18.09 0 9.18 0 0 Z " fill="#6F7FDD" transform="translate(86,142)"/>
<path d="M0 0 C5.02009035 2.85993026 8.456133 7.03354184 10.6875 12.375 C11.36867342 18.35530191 10.65253144 23.72553461 8.6875 29.375 C9.615625 30.2103125 9.615625 30.2103125 10.5625 31.0625 C12.6875 33.375 12.6875 33.375 13.5234375 35.70703125 C14.96420329 39.00918908 16.85657214 40.87228208 19.4375 43.375 C20.32695312 44.23867187 21.21640625 45.10234375 22.1328125 45.9921875 C24.90499018 48.57785781 27.71303485 51.02673804 30.6875 53.375 C30.3575 54.695 30.0275 56.015 29.6875 57.375 C25.6875 57.375 25.6875 57.375 24.08203125 55.94140625 C23.55996094 55.28011719 23.03789062 54.61882812 22.5 53.9375 C19.77470847 50.64835506 16.98203172 47.49800624 14 44.4375 C13.27425781 43.68597656 12.54851562 42.93445313 11.80078125 42.16015625 C9.63872504 40.33379823 8.40325102 39.89478891 5.6875 39.375 C5.23375 38.83875 4.78 38.3025 4.3125 37.75 C3.77625 37.29625 3.24 36.8425 2.6875 36.375 C0.68034882 36.66215024 -1.31910791 37.00419128 -3.3125 37.375 C-15.53062055 38.57255772 -15.53062055 38.57255772 -20.8125 34.9375 C-25.68289688 30.56239772 -28.81647655 25.40625441 -29.875 18.9375 C-28.77113768 11.94637195 -27.0254064 6.23712074 -21.25 1.8125 C-14.83731863 -2.53236857 -7.10997436 -3.25761183 0 0 Z " fill="#F4F5F9" transform="translate(190.3125,41.625)"/>
<path d="M0 0 C1.06845406 -0.00021904 1.06845406 -0.00021904 2.15849304 -0.0004425 C4.51763941 0.00025528 6.87670724 0.00804142 9.23583984 0.01586914 C10.86965898 0.0177338 12.50347868 0.01915747 14.13729858 0.02015686 C18.44125914 0.0239783 22.74518605 0.03380541 27.0491333 0.04486084 C31.43948918 0.05508297 35.82985049 0.0596562 40.22021484 0.06469727 C48.8374178 0.075428 57.45459339 0.09249996 66.07177734 0.11352539 C66.07177734 3.74352539 66.07177734 7.37352539 66.07177734 11.11352539 C72.01177734 11.11352539 77.95177734 11.11352539 84.07177734 11.11352539 C82.07177734 15.11352539 82.07177734 15.11352539 79.07177734 17.11352539 C76.32006952 17.31839031 73.6687332 17.40722895 70.91601562 17.40405273 C70.08480194 17.41076996 69.25358826 17.41748718 68.39718628 17.42440796 C65.64542689 17.44342802 62.8939109 17.44731421 60.14208984 17.44946289 C58.23021341 17.45588822 56.31833797 17.46261638 54.40646362 17.46963501 C50.3966036 17.48161793 46.38682979 17.48531481 42.37695312 17.48413086 C37.23974754 17.48392766 32.10309508 17.51122679 26.96602058 17.54567528 C23.01632144 17.56791801 19.06675594 17.5719692 15.11700058 17.57091141 C13.22317474 17.57327144 11.32934543 17.58211758 9.43558121 17.59757614 C6.78543687 17.61718239 4.13649197 17.61141943 1.48632812 17.59936523 C0.70485413 17.61060425 -0.07661987 17.62184326 -0.8817749 17.63342285 C-4.54943173 17.59105189 -6.73480944 17.23217565 -9.88772583 15.29800415 C-12.72452775 12.26103126 -13.00044722 10.23032546 -12.92822266 6.11352539 C-9.22696077 0.24255827 -6.67333756 -0.01146622 0 0 Z " fill="#E1E6FE" transform="translate(78.92822265625,87.886474609375)"/>
<path d="M0 0 C4.33555952 4.59726332 6.94802989 13.09103626 6.9375 19.3984375 C5.94140625 21.05859375 5.94140625 21.05859375 -0.05859375 23.05859375 C16.27640625 23.55359375 16.27640625 23.55359375 32.94140625 24.05859375 C32.94140625 25.70859375 32.94140625 27.35859375 32.94140625 29.05859375 C-3.68859375 29.05859375 -40.31859375 29.05859375 -78.05859375 29.05859375 C-78.05859375 37.63859375 -78.05859375 46.21859375 -78.05859375 55.05859375 C-79.70859375 54.39859375 -81.35859375 53.73859375 -83.05859375 53.05859375 C-83.11642415 48.60031449 -83.1521323 44.14213095 -83.18359375 39.68359375 C-83.20035156 38.41257813 -83.21710938 37.1415625 -83.234375 35.83203125 C-83.24082031 34.6203125 -83.24726562 33.40859375 -83.25390625 32.16015625 C-83.26437988 31.03947754 -83.27485352 29.91879883 -83.28564453 28.76416016 C-83.05859375 26.05859375 -83.05859375 26.05859375 -81.05859375 24.05859375 C-78.38839722 23.81808472 -78.38839722 23.81808472 -74.95654297 23.83154297 C-73.67536591 23.83169403 -72.39418884 23.83184509 -71.07418823 23.83200073 C-69.67055101 23.8422148 -68.26691535 23.8526468 -66.86328125 23.86328125 C-65.4312459 23.86701084 -63.999208 23.86985806 -62.56716919 23.87185669 C-58.79580658 23.87949748 -55.02459771 23.89914967 -51.2532959 23.92126465 C-47.40586426 23.94171356 -43.55840781 23.95085635 -39.7109375 23.9609375 C-32.16008611 23.98239525 -24.60936146 24.01653643 -17.05859375 24.05859375 C-17.27588135 23.43815186 -17.49316895 22.81770996 -17.71704102 22.1784668 C-18.694441 19.37084002 -19.65789859 16.55862363 -20.62109375 13.74609375 C-20.96333984 12.76962891 -21.30558594 11.79316406 -21.65820312 10.78710938 C-21.97724609 9.84931641 -22.29628906 8.91152344 -22.625 7.9453125 C-23.0727478 6.64920044 -23.0727478 6.64920044 -23.52954102 5.3269043 C-24.05859375 3.05859375 -24.05859375 3.05859375 -23.05859375 0.05859375 C-20.51171875 -1.14453125 -20.51171875 -1.14453125 -17.30859375 -2.19140625 C-16.261875 -2.5471875 -15.21515625 -2.90296875 -14.13671875 -3.26953125 C-8.83402286 -4.42697248 -4.48490221 -2.86795455 0 0 Z " fill="#6E7FDE" transform="translate(112.05859375,17.94140625)"/>
<path d="M0 0 C1.98 0 3.96 0 6 0 C6 0.99 6 1.98 6 3 C8.31 3 10.62 3 13 3 C13.68707555 5.49064888 14 7.37886292 14 10 C14.99 10.66 15.98 11.32 17 12 C17 13.32 17 14.64 17 16 C15.68 16.33 14.36 16.66 13 17 C13.33 17.99 13.66 18.98 14 20 C37.1 20.33 60.2 20.66 84 21 C84 23.97 84 26.94 84 30 C60.57 30 37.14 30 13 30 C13 28.02 13 26.04 13 24 C12.01 24.33 11.02 24.66 10 25 C7.8125 24.5625 7.8125 24.5625 6 24 C5.67 24.99 5.34 25.98 5 27 C3.35 27 1.7 27 0 27 C0 26.01 0 25.02 0 24 C-2.31 24 -4.62 24 -7 24 C-7.82638376 21.10765685 -8 19.11257569 -8 16 C-8.99 16 -9.98 16 -11 16 C-11 14.35 -11 12.7 -11 11 C-10.01 10.67 -9.02 10.34 -8 10 C-8 8.02 -8 6.04 -8 4 C-5.23735711 3.40267181 -2.83967231 3 0 3 C0 2.01 0 1.02 0 0 Z M1 10 C0.34 10.66 -0.32 11.32 -1 12 C-0.67958603 14.60280568 -0.67958603 14.60280568 0 17 C2.41645782 17.16687448 2.41645782 17.16687448 5 17 C5.66 16.34 6.32 15.68 7 15 C6.6814823 12.89179203 6.6814823 12.89179203 6 11 C3.60280568 10.32041397 3.60280568 10.32041397 1 10 Z " fill="#E1E2F7" transform="translate(132,1)"/>
<path d="M0 0 C0.74808145 14.46290802 -0.65682618 29.22852605 -10 41 C-12.86396603 43.98447946 -16.08547987 46.56467595 -20 48 C-21.32 48 -22.64 48 -24 48 C-24.02505615 47.01604248 -24.0501123 46.03208496 -24.07592773 45.01831055 C-24.1701082 41.36729943 -24.2703029 37.71647384 -24.37231445 34.06567383 C-24.41562305 32.48563985 -24.45730106 30.90556031 -24.49731445 29.32543945 C-24.55511583 27.05405952 -24.6187816 24.78290811 -24.68359375 22.51171875 C-24.70030624 21.80536789 -24.71701874 21.09901703 -24.73423767 20.3712616 C-24.8259747 17.3335176 -25.03207686 14.90376942 -26 12 C-19.24822978 7.21864435 -8.7852449 0 0 0 Z " fill="#EA755D" transform="translate(226,116)"/>
<path d="M0 0 C23.1 0 46.2 0 70 0 C70 1.98 70 3.96 70 6 C64.72 6 59.44 6 54 6 C54 8.97 54 11.94 54 15 C53.38576172 14.9292627 52.77152344 14.85852539 52.13867188 14.78564453 C44.59343949 14.00048776 37.11264081 13.84581225 29.52978516 13.86962891 C27.50285365 13.87499245 25.47614362 13.86964753 23.44921875 13.86328125 C15.89673227 13.87069291 8.50881374 14.18438747 1 15 C0.67 10.05 0.34 5.1 0 0 Z " fill="#8397ED" transform="translate(86,142)"/>
<path d="M0 0 C33.66 0 67.32 0 102 0 C102 2.64 102 5.28 102 8 C68.34 8 34.68 8 0 8 C0 5.36 0 2.72 0 0 Z " fill="#E1E3FA" transform="translate(43,54)"/>
<path d="M0 0 C5.02009035 2.85993026 8.456133 7.03354184 10.6875 12.375 C11.36867342 18.35530191 10.65253144 23.72553461 8.6875 29.375 C9.615625 30.2103125 9.615625 30.2103125 10.5625 31.0625 C12.6875 33.375 12.6875 33.375 13.5234375 35.70703125 C14.96420329 39.00918908 16.85657214 40.87228208 19.4375 43.375 C20.32695312 44.23867187 21.21640625 45.10234375 22.1328125 45.9921875 C24.90499018 48.57785781 27.71303485 51.02673804 30.6875 53.375 C30.3575 54.695 30.0275 56.015 29.6875 57.375 C25.6875 57.375 25.6875 57.375 24.08203125 55.94140625 C23.55996094 55.28011719 23.03789062 54.61882812 22.5 53.9375 C19.77470847 50.64835506 16.98203172 47.49800624 14 44.4375 C13.27425781 43.68597656 12.54851562 42.93445313 11.80078125 42.16015625 C9.63872504 40.33379823 8.40325102 39.89478891 5.6875 39.375 C5.23375 38.83875 4.78 38.3025 4.3125 37.75 C3.77625 37.29625 3.24 36.8425 2.6875 36.375 C0.68034882 36.66215024 -1.31910791 37.00419128 -3.3125 37.375 C-15.53062055 38.57255772 -15.53062055 38.57255772 -20.8125 34.9375 C-25.68289688 30.56239772 -28.81647655 25.40625441 -29.875 18.9375 C-28.77113768 11.94637195 -27.0254064 6.23712074 -21.25 1.8125 C-14.83731863 -2.53236857 -7.10997436 -3.25761183 0 0 Z M-22.75 8.9375 C-24.96130306 13.80236674 -24.972149 18.11389697 -24.3125 23.375 C-22.39858084 28.1094316 -18.85881214 31.10184393 -14.3125 33.375 C-8.69930121 34.00096915 -3.58212419 33.98628432 1.21484375 30.765625 C5.07526969 27.12023605 6.87579622 22.49868939 7.1875 17.25 C6.46302393 11.63531049 4.26412691 8.79780965 0.125 5.0625 C-8.14885603 -0.66555418 -16.42191243 2.28489512 -22.75 8.9375 Z " fill="#EB7B69" transform="translate(190.3125,41.625)"/>
<path d="M0 0 C4.20092166 4.45449842 5.7366576 11.16651702 6.94140625 17.05859375 C6.61140625 18.37859375 6.28140625 19.69859375 5.94140625 21.05859375 C-0.98859375 23.03859375 -7.91859375 25.01859375 -15.05859375 27.05859375 C-17.56301395 21.42364829 -19.92737293 15.99681418 -21.87109375 10.18359375 C-22.21430664 9.2090625 -22.21430664 9.2090625 -22.56445312 8.21484375 C-24.17830141 3.41771673 -24.17830141 3.41771673 -23.05859375 0.05859375 C-20.51171875 -1.14453125 -20.51171875 -1.14453125 -17.30859375 -2.19140625 C-16.261875 -2.5471875 -15.21515625 -2.90296875 -14.13671875 -3.26953125 C-8.83402286 -4.42697248 -4.48490221 -2.86795455 0 0 Z " fill="#D0DBF7" transform="translate(112.05859375,17.94140625)"/>
<path d="M0 0 C6.66958671 0.38478385 16.10554523 2.10554523 21 7 C21.20896317 8.80811184 21.36780361 10.62216032 21.5 12.4375 C21.71419183 16.36434915 21.71419183 16.36434915 23 20 C24.98 20.33 26.96 20.66 29 21 C29 25.95 29 30.9 29 36 C22.62403768 36.45542588 18.27303773 35.7407923 13 32 C3.20291524 23.34025502 1.36964268 12.50700027 0 0 Z " fill="#F8AB43" transform="translate(8,126)"/>
<path d="M0 0 C1.98 0 3.96 0 6 0 C6 0.99 6 1.98 6 3 C8.31 3 10.62 3 13 3 C13.68707555 5.49064888 14 7.37886292 14 10 C14.99 10.66 15.98 11.32 17 12 C17 13.32 17 14.64 17 16 C15.68 16.33 14.36 16.66 13 17 C13.185625 17.598125 13.37125 18.19625 13.5625 18.8125 C14 21 14 21 13 24 C9.86650268 25.04449911 9.01031744 24.93423645 6 24 C5.67 24.99 5.34 25.98 5 27 C3.35 27 1.7 27 0 27 C0 26.01 0 25.02 0 24 C-2.31 24 -4.62 24 -7 24 C-7.82638376 21.10765685 -8 19.11257569 -8 16 C-8.99 16 -9.98 16 -11 16 C-11 14.35 -11 12.7 -11 11 C-10.01 10.67 -9.02 10.34 -8 10 C-8 8.02 -8 6.04 -8 4 C-5.23735711 3.40267181 -2.83967231 3 0 3 C0 2.01 0 1.02 0 0 Z M1 10 C0.34 10.66 -0.32 11.32 -1 12 C-0.67958603 14.60280568 -0.67958603 14.60280568 0 17 C2.41645782 17.16687448 2.41645782 17.16687448 5 17 C5.66 16.34 6.32 15.68 7 15 C6.6814823 12.89179203 6.6814823 12.89179203 6 11 C3.60280568 10.32041397 3.60280568 10.32041397 1 10 Z " fill="#EB735E" transform="translate(132,1)"/>
<path d="M0 0 C23.1 0 46.2 0 70 0 C70 1.98 70 3.96 70 6 C46.9 5.67 23.8 5.34 0 5 C0 3.35 0 1.7 0 0 Z " fill="#6E7FDD" transform="translate(86,142)"/>
<path d="M0 0 C0.6328125 2.50390625 0.6328125 2.50390625 1.125 5.5625 C1.29257813 6.57441406 1.46015625 7.58632812 1.6328125 8.62890625 C1.75398438 9.41136719 1.87515625 10.19382813 2 11 C1.28972656 11.19335938 0.57945312 11.38671875 -0.15234375 11.5859375 C-1.07144531 11.84632813 -1.99054688 12.10671875 -2.9375 12.375 C-3.85402344 12.63023437 -4.77054688 12.88546875 -5.71484375 13.1484375 C-8.16745087 13.76660104 -8.16745087 13.76660104 -9 16 C-9.66 16 -10.32 16 -11 16 C-11.99 18.475 -11.99 18.475 -13 21 C-9.37 20.67 -5.74 20.34 -2 20 C-6.74705277 23.16470185 -10.31771295 23.10927475 -16 23 C-16.06058594 22.16855469 -16.12117187 21.33710938 -16.18359375 20.48046875 C-16.26738281 19.39378906 -16.35117188 18.30710938 -16.4375 17.1875 C-16.51871094 16.10855469 -16.59992188 15.02960938 -16.68359375 13.91796875 C-16.90212461 10.94010095 -16.90212461 10.94010095 -18 8 C-16.27430361 6.86968397 -14.54428261 5.74596893 -12.8125 4.625 C-11.84957031 3.99851562 -10.88664063 3.37203125 -9.89453125 2.7265625 C-2.896 -1.448 -2.896 -1.448 0 0 Z " fill="#ED7D5A" transform="translate(218,120)"/>
<path d="M0 0 C0.598125 0.185625 1.19625 0.37125 1.8125 0.5625 C4.16408762 1.22093687 4.16408762 1.22093687 7 0 C7.66 0.33 8.32 0.66 9 1 C9.125 3.375 9.125 3.375 9 6 C8.34 6.66 7.68 7.32 7 8 C7.99 8.33 8.98 8.66 10 9 C10 6.36 10 3.72 10 1 C11.98 1.66 13.96 2.32 16 3 C16 6.96 16 10.92 16 15 C15.01 15.33 14.02 15.66 13 16 C13.61875 16.0825 14.2375 16.165 14.875 16.25 C17 17 17 17 18.1328125 19.046875 C18.41898438 19.69140625 18.70515625 20.3359375 19 21 C17.58297487 20.85769192 16.1663904 20.71099254 14.75 20.5625 C13.56664062 20.44068359 13.56664062 20.44068359 12.359375 20.31640625 C7.98127127 19.72927644 7.98127127 19.72927644 6 19 C2.19276186 12.95321002 0.98053077 7.01853605 0 0 Z " fill="#F8A944" transform="translate(9,133)"/>
<path d="M0 0 C0.33 0 0.66 0 1 0 C1 2.31 1 4.62 1 7 C-21.77 7 -44.54 7 -68 7 C-68 6.01 -68 5.02 -68 4 C-45.56 4 -23.12 4 0 4 C0 2.68 0 1.36 0 0 Z " fill="#8195EB" transform="translate(155,162)"/>
<path d="M0 0 C0.33 0 0.66 0 1 0 C1 12.87 1 25.74 1 39 C1.99 39 2.98 39 4 39 C4 40.65 4 42.3 4 44 C1.125 44.1875 1.125 44.1875 -2 44 C-5.32990166 39.00514752 -4.37185763 32.96724568 -4.37060547 27.11401367 C-4.37495207 24.83760261 -4.41119793 22.56317397 -4.44921875 20.28710938 C-4.50649712 12.66499507 -4.38229652 6.53880212 0 0 Z " fill="#7280DA" transform="translate(33,103)"/>
<path d="M0 0 C0.57252648 11.06884521 -0.88104008 20.40389062 -4 31 C-6.64 31.66 -9.28 32.32 -12 33 C-11.55090939 31.51800098 -11.09043436 30.03944764 -10.625 28.5625 C-10.36976563 27.73878906 -10.11453125 26.91507813 -9.8515625 26.06640625 C-9 24 -9 24 -7 23 C-7.33 22.01 -7.66 21.02 -8 20 C-7.7215625 18.7625 -7.7215625 18.7625 -7.4375 17.5 C-6.8083309 12.46664722 -7.94011403 7.92277617 -9 3 C-7.68825887 2.4980125 -6.37558403 1.99846423 -5.0625 1.5 C-4.33160156 1.2215625 -3.60070312 0.943125 -2.84765625 0.65625 C-1 0 -1 0 0 0 Z " fill="#D57263" transform="translate(226,116)"/>
<path d="M0 0 C2.88437779 1.29299694 4.87219421 2.65941363 7 5 C9.88437779 3.70700306 11.87219421 2.34058637 14 0 C14.99 0.33 15.98 0.66 17 1 C16.42647107 4.87132028 14.51295648 7.08172796 12 10 C13.65 11.65 15.3 13.3 17 15 C16.34 16.32 15.68 17.64 15 19 C13.02 17.35 11.04 15.7 9 14 C6.53199953 15.15173355 4.95216435 16.04783565 3 18 C0.875 17.625 0.875 17.625 -1 17 C0.37154504 14.04590299 1.98863724 11.55991624 4 9 C3.154375 8.2575 2.30875 7.515 1.4375 6.75 C0.633125 5.8425 -0.17125 4.935 -1 4 C-0.8125 1.6875 -0.8125 1.6875 0 0 Z " fill="#ECF3FE" transform="translate(171,133)"/>
<path d="M0 0 C6.66958671 0.38478385 16.10554523 2.10554523 21 7 C21.04080783 8.99958364 21.04254356 11.00045254 21 13 C20.34 12.67 19.68 12.34 19 12 C18.67 15.96 18.34 19.92 18 24 C15.69 23.67 13.38 23.34 11 23 C14.875 21 14.875 21 16 21 C16.33 17.37 16.66 13.74 17 10 C15.02 9.34 13.04 8.68 11 8 C11 10.64 11 13.28 11 16 C8.03 15.505 8.03 15.505 5 15 C5.99 14.67 6.98 14.34 8 14 C9.22520264 10.99152582 9.22520264 10.99152582 10 8 C8.68 7.67 7.36 7.34 6 7 C5.67 7.66 5.34 8.32 5 9 C3.0625 8.4375 3.0625 8.4375 1 7 C0.25 3.375 0.25 3.375 0 0 Z " fill="#E49650" transform="translate(8,126)"/>
<path d="M0 0 C0.66 0 1.32 0 2 0 C3.38232443 1.62626404 4.71937515 3.2925002 6 5 C8.95409701 3.62845496 11.44008376 2.01136276 14 0 C14.66 0.99 15.32 1.98 16 3 C14.35 4.98 12.7 6.96 11 9 C11.680625 9.5775 12.36125 10.155 13.0625 10.75 C13.701875 11.4925 14.34125 12.235 15 13 C14.75 15.25 14.75 15.25 14 17 C11.33333333 15.66666667 8.66666667 14.33333333 6 13 C4.68 14.32 3.36 15.64 2 17 C1.01 16.67 0.02 16.34 -1 16 C0.33333333 13.33333333 1.66666667 10.66666667 3 8 C2.319375 7.4225 1.63875 6.845 0.9375 6.25 C0.298125 5.5075 -0.34125 4.765 -1 4 C-0.75 1.75 -0.75 1.75 0 0 Z " fill="#F8B354" transform="translate(174,51)"/>
<path d="M0 0 C4.92127143 4.11779854 9.51454836 8.41462494 14 13 C14.99 13.99 15.98 14.98 17 16 C11.39 16 5.78 16 0 16 C0 10.72 0 5.44 0 0 Z " fill="#F5AFA6" transform="translate(69,112)"/>
<path d="M0 0 C-3.97641174 6.39505393 -7.68401993 12.16800772 -15 15 C-16.32 15 -17.64 15 -19 15 C-19.5 12.375 -19.5 12.375 -19 9 C-16.56806543 6.63469377 -13.81409666 4.87606444 -11 3 C-10.34 2.34 -9.68 1.68 -9 1 C-2.44680851 -1.22340426 -2.44680851 -1.22340426 0 0 Z " fill="#D47164" transform="translate(221,149)"/>
<path d="M0 0 C1.65 0 3.3 0 5 0 C5 8.91 5 17.82 5 27 C0 23 0 23 -0.56762695 20.43457031 C-0.54144287 19.49194336 -0.51525879 18.54931641 -0.48828125 17.578125 C-0.47216797 16.55332031 -0.45605469 15.52851562 -0.43945312 14.47265625 C-0.39755859 13.40917969 -0.35566406 12.34570312 -0.3125 11.25 C-0.28994141 10.17105469 -0.26738281 9.09210938 -0.24414062 7.98046875 C-0.1852565 5.3189065 -0.10307001 2.66015772 0 0 Z " fill="#6E7FDE" transform="translate(193,100)"/>
<path d="M0 0 C1.66153571 1.42417346 3.3225136 2.84900357 4.98046875 4.27734375 C6.30542706 5.40753063 7.64113915 6.52525545 8.98828125 7.62890625 C9.61089844 8.14324219 10.23351562 8.65757813 10.875 9.1875 C11.73738281 9.88939453 11.73738281 9.88939453 12.6171875 10.60546875 C14 12 14 12 15 15 C10.05 15 5.1 15 0 15 C0 10.05 0 5.1 0 0 Z " fill="#E3EAFB" transform="translate(186,116)"/>
<path d="M0 0 C6.510703 5.47490934 12.74987827 11.23223578 19 17 C18.67 18.32 18.34 19.64 18 21 C14 21 14 21 12.39453125 19.56640625 C11.87246094 18.90511719 11.35039062 18.24382812 10.8125 17.5625 C6.83548783 12.72956565 2.46788288 8.37670159 -2 4 C-1.34 2.68 -0.68 1.36 0 0 Z " fill="#EA7763" transform="translate(202,78)"/>
<path d="M0 0 C2.0625 1.5625 2.0625 1.5625 3 4 C2.93375803 7.77579201 2.78061285 10.07482922 0.3125 13 C-2.87167993 14.37694267 -4.70924801 13.980224 -8 13 C-9.875 11.875 -9.875 11.875 -11 10 C-11.36248449 6.61681143 -11.58433618 4.13215135 -10 1.0625 C-6.75482811 -0.66149757 -3.58008387 -0.65498416 0 0 Z M-6 3 C-6.66 3.66 -7.32 4.32 -8 5 C-7.67958603 7.60280568 -7.67958603 7.60280568 -7 10 C-4.58354218 10.16687448 -4.58354218 10.16687448 -2 10 C-1.34 9.34 -0.68 8.68 0 8 C-0.3185177 5.89179203 -0.3185177 5.89179203 -1 4 C-3.39719432 3.32041397 -3.39719432 3.32041397 -6 3 Z " fill="#F8A845" transform="translate(139,8)"/>
<path d="M0 0 C2 2 2 2 3 5 C4.98 5 6.96 5 9 5 C9 5.99 9 6.98 9 8 C7.35 8.33 5.7 8.66 4 9 C4.33 10.98 4.66 12.96 5 15 C4.01 15.495 4.01 15.495 3 16 C2.67 14.02 2.34 12.04 2 10 C-0.31 10.66 -2.62 11.32 -5 12 C-5.33 11.01 -5.66 10.02 -6 9 C-4.02 8.67 -2.04 8.34 0 8 C-0.2784375 6.2984375 -0.2784375 6.2984375 -0.5625 4.5625 C-0.706875 3.386875 -0.85125 2.21125 -1 1 C-0.67 0.67 -0.34 0.34 0 0 Z " fill="#EBF2FE" transform="translate(22,80)"/>
<path d="M0 0 C2.46800047 1.15173355 4.04783565 2.04783565 6 4 C5.68134222 7.29279709 4.45484649 8.86535088 2 11 C-1.36720387 9.60667426 -2.9859524 8.0210714 -5 5 C-3.35 3.35 -1.7 1.7 0 0 Z " fill="#7F89DB" transform="translate(197,71)"/>
<path d="M0 0 C1.32 0 2.64 0 4 0 C4 0.99 4 1.98 4 3 C4.99 3 5.98 3 7 3 C7 4.32 7 5.64 7 7 C6.01 7 5.02 7 4 7 C4 7.99 4 8.98 4 10 C2.68 10 1.36 10 0 10 C0 9.01 0 8.02 0 7 C-0.99 7 -1.98 7 -3 7 C-3 5.68 -3 4.36 -3 3 C-2.01 3 -1.02 3 0 3 C0 2.01 0 1.02 0 0 Z " fill="#CAD2FA" transform="translate(224,49)"/>
<path d="M0 0 C0.99 0.33 1.98 0.66 3 1 C3 1.99 3 2.98 3 4 C3.99 4 4.98 4 6 4 C6 4.99 6 5.98 6 7 C5.01 7 4.02 7 3 7 C3 7.99 3 8.98 3 10 C1.68 10 0.36 10 -1 10 C-1 9.01 -1 8.02 -1 7 C-1.99 7 -2.98 7 -4 7 C-4 6.01 -4 5.02 -4 4 C-3.01 4 -2.02 4 -1 4 C-0.67 2.68 -0.34 1.36 0 0 Z " fill="#CBD2FA" transform="translate(74,15)"/>
<path d="M0 0 C0.66 0 1.32 0 2 0 C2.67057887 1.7902061 3.3363469 3.58221489 4 5.375 C4.556875 6.87160156 4.556875 6.87160156 5.125 8.3984375 C6 11 6 11 6 13 C2.89656201 11.79310745 -0.01193893 10.49403054 -3 9 C-2.01 6.03 -1.02 3.06 0 0 Z " fill="#E2E9FB" transform="translate(35,75)"/>
<path d="M0 0 C3.53571429 0.53571429 3.53571429 0.53571429 5 2 C5.04080783 3.99958364 5.04254356 6.00045254 5 8 C2.125 8.125 2.125 8.125 -1 8 C-1.66 7.34 -2.32 6.68 -3 6 C-2.63318342 3.06546739 -2.13562754 2.13562754 0 0 Z " fill="#8F9CE7" transform="translate(78,91)"/>
<path d="M0 0 C5.22588666 0.4412971 10.1211304 0.92648042 15 3 C15.33 3.66 15.66 4.32 16 5 C7.41190375 6.71422475 7.41190375 6.71422475 4 4.98828125 C2.375 3.625 2.375 3.625 0 1 C0 0.67 0 0.34 0 0 Z " fill="#F9AB43" transform="translate(18,154)"/>
<path d="M0 0 C0.66 0 1.32 0 2 0 C1.67 1.65 1.34 3.3 1 5 C1.99 5.66 2.98 6.32 4 7 C4 7.66 4 8.32 4 9 C2.35 8.67 0.7 8.34 -1 8 C-1.99 9.485 -1.99 9.485 -3 11 C-3.66 11 -4.32 11 -5 11 C-4.67 9.35 -4.34 7.7 -4 6 C-4.99 5.34 -5.98 4.68 -7 4 C-7 3.34 -7 2.68 -7 2 C-4.525 2.495 -4.525 2.495 -2 3 C-1.34 2.01 -0.68 1.02 0 0 Z " fill="#E9F0FD" transform="translate(105,23)"/>
<path d="M0 0 C0.99 0 1.98 0 3 0 C3 0.99 3 1.98 3 3 C3.99 3 4.98 3 6 3 C6 3.99 6 4.98 6 6 C5.01 6 4.02 6 3 6 C3 7.32 3 8.64 3 10 C2.01 10 1.02 10 0 10 C0 8.68 0 7.36 0 6 C-0.99 6 -1.98 6 -3 6 C-3 5.01 -3 4.02 -3 3 C-2.01 3 -1.02 3 0 3 C0 2.01 0 1.02 0 0 Z " fill="#CAD3FA" transform="translate(4,56)"/>
<path d="M0 0 C1.65 0 3.3 0 5 0 C4.67 0.99 4.34 1.98 4 3 C4 2.34 4 1.68 4 1 C3.01 1 2.02 1 1 1 C0.67 3.64 0.34 6.28 0 9 C-5.60461531 8.57910004 -10.72086547 8.08386889 -16 6 C-11.94952424 4.64984141 -9.2079832 5.37915002 -5 6 C-5 5.01 -5 4.02 -5 3 C-4.01 3.99 -3.02 4.98 -2 6 C-1.34 4.02 -0.68 2.04 0 0 Z " fill="#F1994D" transform="translate(32,147)"/>
<path d="M0 0 C0.99 0 1.98 0 3 0 C3 0.99 3 1.98 3 3 C3.99 3 4.98 3 6 3 C6 3.99 6 4.98 6 6 C5.01 6 4.02 6 3 6 C3 6.99 3 7.98 3 9 C2.01 9 1.02 9 0 9 C0 8.01 0 7.02 0 6 C-0.99 6 -1.98 6 -3 6 C-3 5.01 -3 4.02 -3 3 C-2.01 3 -1.02 3 0 3 C0 2.01 0 1.02 0 0 Z " fill="#C9D3F9" transform="translate(206,105)"/>
<path d="M0 0 C4.12751449 0.60698743 7.3321148 2.03810791 11 4 C11 4.66 11 5.32 11 6 C8.69 6.66 6.38 7.32 4 8 C3.566875 6.2984375 3.566875 6.2984375 3.125 4.5625 C2.75375 3.386875 2.3825 2.21125 2 1 C1.34 0.67 0.68 0.34 0 0 Z " fill="#E2E9FC" transform="translate(101,14)"/>
<path d="M0 0 C1.9375 0.75 1.9375 0.75 4 2 C4.75 4.125 4.75 4.125 5 6 C-3.57142857 6.28571429 -3.57142857 6.28571429 -7 4 C-7 3.67 -7 3.34 -7 3 C-4.36 2.67 -1.72 2.34 1 2 C0.67 1.34 0.34 0.68 0 0 Z " fill="#F6A048" transform="translate(32,156)"/>
<path d="M0 0 C1.98 0.66 3.96 1.32 6 2 C6 3.98 6 5.96 6 8 C3.5625 7.375 3.5625 7.375 1 6 C0.1875 2.875 0.1875 2.875 0 0 Z " fill="#E0A14B" transform="translate(18,128)"/>
<path d="M0 0 C0.66 0 1.32 0 2 0 C2 0.66 2 1.32 2 2 C2.99 2 3.98 2 5 2 C5 2.99 5 3.98 5 5 C4.01 5 3.02 5 2 5 C2 5.66 2 6.32 2 7 C1.34 7 0.68 7 0 7 C0 6.34 0 5.68 0 5 C-0.66 5 -1.32 5 -2 5 C-2 4.01 -2 3.02 -2 2 C-1.34 2 -0.68 2 0 2 C0 1.34 0 0.68 0 0 Z " fill="#CAD2F9" transform="translate(7,154)"/>
<path d="M0 0 C0.66 0 1.32 0 2 0 C2 0.66 2 1.32 2 2 C2.66 2 3.32 2 4 2 C4 2.99 4 3.98 4 5 C3.34 5 2.68 5 2 5 C2 5.66 2 6.32 2 7 C1.34 7 0.68 7 0 7 C0 6.34 0 5.68 0 5 C-0.99 4.67 -1.98 4.34 -3 4 C-3 3.34 -3 2.68 -3 2 C-2.01 2 -1.02 2 0 2 C0 1.34 0 0.68 0 0 Z " fill="#CAD3FA" transform="translate(221,66)"/>
<path d="M0 0 C0.66 0 1.32 0 2 0 C2 0.66 2 1.32 2 2 C2.99 2 3.98 2 5 2 C4.67 2.99 4.34 3.98 4 5 C3.34 5 2.68 5 2 5 C2 5.66 2 6.32 2 7 C1.34 7 0.68 7 0 7 C0 6.34 0 5.68 0 5 C-0.66 5 -1.32 5 -2 5 C-2 4.01 -2 3.02 -2 2 C-1.34 2 -0.68 2 0 2 C0 1.34 0 0.68 0 0 Z " fill="#CAD2F8" transform="translate(65,30)"/>
<path d="M0 0 C1.32 0 2.64 0 4 0 C4 1.65 4 3.3 4 5 C2.68 5 1.36 5 0 5 C0 3.35 0 1.7 0 0 Z " fill="#FDF1F0" transform="translate(67,131)"/>
<path d="M0 0 C2.475 0.495 2.475 0.495 5 1 C4.67 2.32 4.34 3.64 4 5 C2.68 4.67 1.36 4.34 0 4 C0 2.68 0 1.36 0 0 Z " fill="#DFE4FE" transform="translate(77,93)"/>
<path d="M0 0 C1.98 0.495 1.98 0.495 4 1 C3.67 2.32 3.34 3.64 3 5 C1.68 4.67 0.36 4.34 -1 4 C-0.67 2.68 -0.34 1.36 0 0 Z " fill="#E2E6FF" transform="translate(222,155)"/>
<path d="M0 0 C1.98 0.99 1.98 0.99 4 2 C4 3.98 4 5.96 4 8 C2 6.25 2 6.25 0 4 C0 2.68 0 1.36 0 0 Z " fill="#E1A14B" transform="translate(25,131)"/>
<path d="M0 0 C1.32 0 2.64 0 4 0 C4.33 0.99 4.66 1.98 5 3 C4.67 3.66 4.34 4.32 4 5 C2.68 5 1.36 5 0 5 C0 3.35 0 1.7 0 0 Z " fill="#E1E7FF" transform="translate(3,109)"/>
<path d="M0 0 C0.99 0 1.98 0 3 0 C3 1.65 3 3.3 3 5 C2.01 5.33 1.02 5.66 0 6 C-0.38218767 4.34385343 -0.71395102 2.67542976 -1 1 C-0.67 0.67 -0.34 0.34 0 0 Z " fill="#FDF6F5" transform="translate(53,131)"/>
<path d="M0 0 C1.32 0 2.64 0 4 0 C4.33 0.99 4.66 1.98 5 3 C3.02 3.99 3.02 3.99 1 5 C0.34 4.01 -0.32 3.02 -1 2 C-0.67 1.34 -0.34 0.68 0 0 Z " fill="#E2E7FF" transform="translate(92,5)"/>
<path d="M0 0 C1.32 0 2.64 0 4 0 C3.67 1.65 3.34 3.3 3 5 C1.68 4.34 0.36 3.68 -1 3 C-0.67 2.01 -0.34 1.02 0 0 Z " fill="#E2E7FF" transform="translate(195,2)"/>
<path d="M0 0 C1.32 0 2.64 0 4 0 C3.67 1.65 3.34 3.3 3 5 C1.68 4.34 0.36 3.68 -1 3 C-0.67 2.01 -0.34 1.02 0 0 Z " fill="#E2E6FF" transform="translate(52,0)"/>
<path d="M0 0 C0.33 0 0.66 0 1 0 C1 2.64 1 5.28 1 8 C-1.97 7.505 -1.97 7.505 -5 7 C-4.01 6.67 -3.02 6.34 -2 6 C-0.77479736 2.99152582 -0.77479736 2.99152582 0 0 Z " fill="#F2924E" transform="translate(18,134)"/>
<path d="M0 0 C0.66 0 1.32 0 2 0 C2 0.99 2 1.98 2 3 C1.01 3 0.02 3 -1 3 C-0.67 2.01 -0.34 1.02 0 0 Z " fill="#E1E6FF" transform="translate(21,114)"/>
<path d="M0 0 C0.99 0 1.98 0 3 0 C2.67 0.99 2.34 1.98 2 3 C1.34 3 0.68 3 0 3 C0 2.01 0 1.02 0 0 Z " fill="#E2E7FF" transform="translate(224,87)"/>
<path d="M0 0 C0.99 0.33 1.98 0.66 3 1 C2.67 1.66 2.34 2.32 2 3 C1.01 2.67 0.02 2.34 -1 2 C-0.67 1.34 -0.34 0.68 0 0 Z " fill="#E1E6FF" transform="translate(219,29)"/>
<path d="M0 0 C0.99 0.33 1.98 0.66 3 1 C2.67 1.66 2.34 2.32 2 3 C1.01 2.67 0.02 2.34 -1 2 C-0.67 1.34 -0.34 0.68 0 0 Z " fill="#E3E6FF" transform="translate(178,9)"/>
<path d="M0 0 C0.99 0 1.98 0 3 0 C3 0.99 3 1.98 3 3 C2.01 2.67 1.02 2.34 0 2 C0 1.34 0 0.68 0 0 Z " fill="#E4E7FF" transform="translate(30,3)"/>
<path d="M0 0 C0.66 0 1.32 0 2 0 C2 0.99 2 1.98 2 3 C1.01 2.67 0.02 2.34 -1 2 C-0.67 1.34 -0.34 0.68 0 0 Z " fill="#E4E6FF" transform="translate(228,146)"/>
<path d="M0 0 C0.66 0 1.32 0 2 0 C2 0.99 2 1.98 2 3 C1.34 3 0.68 3 0 3 C0 2.01 0 1.02 0 0 Z " fill="#E3E7FF" transform="translate(0,78)"/>
<path d="M0 0 C0.99 0 1.98 0 3 0 C3 0.66 3 1.32 3 2 C2.01 1.67 1.02 1.34 0 1 C0 0.67 0 0.34 0 0 Z " fill="#E3E6FF" transform="translate(76,0)"/>
</svg>
