<?xml version="1.0" encoding="UTF-8"?>
<svg version="1.1" xmlns="http://www.w3.org/2000/svg" width="231" height="193">
<path d="M0 0 C16.47766805 7.95705284 29.53030207 6.15527493 46.92553711 2.05737305 C66.13938126 -2.42055597 86.29391422 -2.30524631 103.87426758 7.72558594 C106.07709531 9.1548454 108.18025336 10.6558911 110.27270508 12.24121094 C111.30395508 12.98371094 112.33520508 13.72621094 113.39770508 14.49121094 C121.5273722 22.26741427 127.62006611 32.91738928 128.51098633 44.28027344 C128.68076171 52.48310481 127.80891751 59.77942452 125.69580078 67.72216797 C122.95068215 78.40184107 124.58755306 86.56177853 128.21020508 96.86621094 C130.56686253 103.68789988 132.72968874 110.0199041 133.27270508 117.24121094 C133.33973633 117.9746875 133.40676758 118.70816406 133.47583008 119.46386719 C133.76954174 130.99205007 131.39616835 143.30898836 123.61645508 152.11621094 C122.21778264 153.54127342 120.75175011 154.89975149 119.27270508 156.24121094 C120.24208008 156.79808594 121.21145508 157.35496094 122.21020508 157.92871094 C125.27270508 160.24121094 125.27270508 160.24121094 126.14770508 162.99121094 C126.18895508 163.73371094 126.23020508 164.47621094 126.27270508 165.24121094 C112.12281775 179.79538076 80.28427968 178.92871134 61.27270508 180.24121094 C60.49088867 180.29905762 59.70907227 180.3569043 58.90356445 180.41650391 C-56.89652534 188.69144671 -56.89652534 188.69144671 -83.72729492 166.24121094 C-84.72729492 163.74121094 -84.72729492 163.74121094 -83.72729492 161.24121094 C-81.21697791 159.26650035 -78.5517085 157.72276717 -75.72729492 156.24121094 C-76.71729492 155.49871094 -76.71729492 155.49871094 -77.72729492 154.74121094 C-87.76615932 146.37549061 -95.56446354 136.48631879 -97.72729492 123.24121094 C-98.50720539 114.02671322 -97.81619109 105.61628097 -95.72729492 96.61621094 C-93.12592669 85.38097172 -93.02991394 75.18156378 -95.22729492 63.86621094 C-98.83084496 45.29293106 -97.15787195 26.52308727 -86.72729492 10.24121094 C-63.83255225 -19.66212643 -30.35512764 -14.7940073 0 0 Z " fill="#F6F4F6" transform="translate(97.727294921875,11.7587890625)"/>
<path d="M0 0 C16.47766805 7.95705284 29.53030207 6.15527493 46.92553711 2.05737305 C66.13938126 -2.42055597 86.29391422 -2.30524631 103.87426758 7.72558594 C106.07709531 9.1548454 108.18025336 10.6558911 110.27270508 12.24121094 C111.30395508 12.98371094 112.33520508 13.72621094 113.39770508 14.49121094 C122.54943764 23.24504208 128.27099171 34.79886815 128.64770508 47.49121094 C128.60415354 54.85867866 127.46333151 61.83661296 126.02270508 69.05371094 C125.81822754 70.12202148 125.61375 71.19033203 125.40307617 72.29101562 C125.18989746 73.29165039 124.97671875 74.29228516 124.75708008 75.32324219 C124.56855469 76.22276611 124.3800293 77.12229004 124.18579102 78.04907227 C123.27270508 80.24121094 123.27270508 80.24121094 121.43994141 81.53417969 C119.19177529 82.26761317 117.47119218 82.48542564 115.11254883 82.47167969 C114.32340088 82.47039062 113.53425293 82.46910156 112.72119141 82.46777344 C111.89256592 82.45488281 111.06394043 82.44199219 110.21020508 82.42871094 C109.36417725 82.42226562 108.51814941 82.41582031 107.64648438 82.40917969 C101.48826813 82.33381381 95.38690629 82.01063851 89.27270508 81.24121094 C88.64770508 78.86621094 88.64770508 78.86621094 88.27270508 76.24121094 C88.93270508 75.58121094 89.59270508 74.92121094 90.27270508 74.24121094 C90.94915574 72.41192804 90.94915574 72.41192804 91.39770508 70.36621094 C91.64907227 69.34914062 91.64907227 69.34914062 91.90551758 68.31152344 C92.38912716 65.9352256 92.38912716 65.9352256 92.27270508 62.24121094 C90.85603038 60.49005364 90.85603038 60.49005364 89.27270508 59.24121094 C88.53020508 59.59183594 87.78770508 59.94246094 87.02270508 60.30371094 C84.05159547 61.31658921 83.1278026 61.34640998 80.27270508 60.24121094 C79.55083008 60.01433594 78.82895508 59.78746094 78.08520508 59.55371094 C76.27270508 58.24121094 76.27270508 58.24121094 75.52270508 55.11621094 C75.44020508 54.16746094 75.35770508 53.21871094 75.27270508 52.24121094 C72.63270508 52.57121094 69.99270508 52.90121094 67.27270508 53.24121094 C67.08708008 54.18996094 66.90145508 55.13871094 66.71020508 56.11621094 C65.27270508 59.24121094 65.27270508 59.24121094 61.96020508 60.74121094 C58.17852585 61.253981 56.56687786 61.03803245 53.27270508 59.24121094 C51.12702595 60.9697702 51.12702595 60.9697702 49.27270508 63.24121094 C49.35842169 65.33412251 49.35842169 65.33412251 50.27270508 67.24121094 C51.27270508 70.24121094 51.27270508 70.24121094 50.21020508 73.36621094 C48.27270508 76.24121094 48.27270508 76.24121094 45.08520508 77.11621094 C44.15708008 77.15746094 43.22895508 77.19871094 42.27270508 77.24121094 C42.27270508 78.23121094 42.27270508 79.22121094 42.27270508 80.24121094 C36.15315492 80.46462187 30.03600378 80.62742975 23.91333008 80.7355957 C21.83348217 80.78070434 19.75391728 80.84201183 17.67504883 80.92016602 C0.33987469 81.55529093 0.33987469 81.55529093 -4.72753906 78.33398438 C-6.689357 76.06872562 -8.19592665 73.80876945 -9.72729492 71.24121094 C-20.47426345 62.61439266 -33.0391935 59.1238149 -46.72729492 60.24121094 C-53.50380717 61.52478429 -59.83414302 63.6418008 -65.72729492 67.24121094 C-66.80430664 67.89476563 -66.80430664 67.89476563 -67.90307617 68.56152344 C-77.51618656 75.16949914 -83.84186229 86.08420477 -86.72729492 97.24121094 C-85.40729492 97.24121094 -84.08729492 97.24121094 -82.72729492 97.24121094 C-82.52104492 96.62246094 -82.31479492 96.00371094 -82.10229492 95.36621094 C-80.72729492 93.24121094 -80.72729492 93.24121094 -77.72729492 92.30371094 C-76.73729492 91.95308594 -75.74729492 91.60246094 -74.72729492 91.24121094 C-74.00273858 89.59888322 -73.34955097 87.92496259 -72.72729492 86.24121094 C-66.71061821 77.80743 -58.07675265 71.09370263 -47.72729492 69.24121094 C-38.43085549 68.40453139 -30.12429939 68.90829338 -21.72729492 73.24121094 C-19.72729492 75.24121094 -19.72729492 75.24121094 -19.72729492 80.24121094 C-23.02729492 80.24121094 -26.32729492 80.24121094 -29.72729492 80.24121094 C-29.66928711 81.57796875 -29.6112793 82.91472656 -29.55151367 84.29199219 C-29.50461871 86.04586359 -29.45911827 87.79977266 -29.41479492 89.55371094 C-29.37290039 90.43478516 -29.33100586 91.31585938 -29.2878418 92.22363281 C-29.24153771 94.65922779 -29.2441982 96.85227746 -29.72729492 99.24121094 C-32.18432617 101.22167969 -32.18432617 101.22167969 -34.72729492 102.24121094 C-35.05729492 102.90121094 -35.38729492 103.56121094 -35.72729492 104.24121094 C-37.42885742 103.96277344 -37.42885742 103.96277344 -39.16479492 103.67871094 C-40.92823242 103.46214844 -40.92823242 103.46214844 -42.72729492 103.24121094 C-44.02363113 104.30766209 -44.02363113 104.30766209 -43.78979492 106.80371094 C-43.76916992 107.60808594 -43.74854492 108.41246094 -43.72729492 109.24121094 C-40.44033259 110.04074232 -39.017063 110.3378003 -35.72729492 109.24121094 C-34.73729492 110.23121094 -33.74729492 111.22121094 -32.72729492 112.24121094 C-33.89837647 114.7785543 -35.10180575 116.71485699 -36.85229492 118.92871094 C-39.22533448 123.12108082 -39.46641322 126.51429159 -38.72729492 131.24121094 C-37.47902031 134.41565364 -37.47902031 134.41565364 -34.72729492 136.24121094 C-34.68487769 138.57415869 -34.68636555 140.90823661 -34.72729492 143.24121094 C-36.61765041 145.13156643 -39.70246077 144.50245896 -42.22729492 144.55371094 C-48.69400608 144.50770791 -53.20894258 143.54993257 -58.72729492 140.24121094 C-59.75854492 139.64308594 -60.78979492 139.04496094 -61.85229492 138.42871094 C-70.18567854 132.08809296 -75.95890498 124.81392527 -77.72729492 114.24121094 C-80.69729492 114.24121094 -83.66729492 114.24121094 -86.72729492 114.24121094 C-83.14703004 126.99590457 -78.58512446 138.07710559 -66.72729492 145.24121094 C-67.95256521 149.29402806 -69.42609986 152.68481857 -71.72729492 156.24121094 C-80.75840529 153.73402768 -87.6748831 146.63865088 -92.47729492 138.72558594 C-99.88852633 123.99576351 -98.75178038 109.68851899 -95.16650391 94.19238281 C-92.83938376 83.83833845 -93.21682732 74.21905845 -95.22729492 63.86621094 C-98.83084496 45.29293106 -97.15787195 26.52308727 -86.72729492 10.24121094 C-63.83255225 -19.66212643 -30.35512764 -14.7940073 0 0 Z " fill="#ECECFE" transform="translate(97.727294921875,11.7587890625)"/>
<path d="M0 0 C2.05078125 0.03255208 4.1015625 0.06510417 6.15234375 0.09765625 C6.39984375 1.04640625 6.64734375 1.99515625 6.90234375 2.97265625 C7.8560295 6.10706305 7.8560295 6.10706305 9.96484375 7.53515625 C12.6944614 8.23705793 14.43703581 7.77648323 17.15234375 7.09765625 C21.15234375 7.09765625 21.15234375 7.09765625 23.40234375 9.09765625 C23.97984375 9.75765625 24.55734375 10.41765625 25.15234375 11.09765625 C24.71921875 12.11859375 24.71921875 12.11859375 24.27734375 13.16015625 C22.43007122 17.98359007 20.90520946 22.97816939 20.15234375 28.09765625 C21.73506976 29.68038226 23.53268378 29.44501372 25.71484375 29.66015625 C26.54113281 29.74394531 27.36742187 29.82773438 28.21875 29.9140625 C29.17587891 30.00494141 29.17587891 30.00494141 30.15234375 30.09765625 C30.15234375 31.41765625 30.15234375 32.73765625 30.15234375 34.09765625 C27.18234375 34.59265625 27.18234375 34.59265625 24.15234375 35.09765625 C23.96671875 36.39703125 23.78109375 37.69640625 23.58984375 39.03515625 C23.48542969 39.76605469 23.38101563 40.49695313 23.2734375 41.25 C23.23347656 41.85972656 23.19351563 42.46945313 23.15234375 43.09765625 C25.50196269 45.44727519 32.26150429 44.50901159 35.62695312 44.61523438 C36.42810547 44.64939453 37.22925781 44.68355469 38.0546875 44.71875 C38.79195068 44.74380615 39.52921387 44.7688623 40.28881836 44.79467773 C42.15234375 45.09765625 42.15234375 45.09765625 44.15234375 47.09765625 C44.33984375 49.66015625 44.33984375 49.66015625 44.15234375 52.09765625 C42.6107782 53.6392218 41.17788611 53.23234119 39.03149414 53.24291992 C38.15711197 53.24929977 37.2827298 53.25567963 36.3818512 53.26225281 C35.4308403 53.26336563 34.47982941 53.26447845 33.5 53.265625 C32.04429848 53.2706176 32.04429848 53.2706176 30.55918884 53.27571106 C28.50211055 53.28078455 26.445024 53.28311926 24.38793945 53.28295898 C21.23179631 53.28514451 18.07600304 53.30329316 14.91992188 53.32226562 C12.92578245 53.32519958 10.93164136 53.32718436 8.9375 53.328125 C7.98851334 53.33531052 7.03952667 53.34249603 6.06178284 53.34989929 C5.1842485 53.34682266 4.30671417 53.34374603 3.40258789 53.34057617 C2.62839005 53.34200119 1.8541922 53.34342621 1.05653381 53.34489441 C-0.84765625 53.09765625 -0.84765625 53.09765625 -2.84765625 51.09765625 C-2.84765625 49.77765625 -2.84765625 48.45765625 -2.84765625 47.09765625 C-32.87765625 47.09765625 -62.90765625 47.09765625 -93.84765625 47.09765625 C-93.18765625 50.72765625 -92.52765625 54.35765625 -91.84765625 58.09765625 C-92.17765625 59.08765625 -92.50765625 60.07765625 -92.84765625 61.09765625 C-91.38078594 64.3403781 -91.38078594 64.3403781 -88.84765625 67.09765625 C-85.71500146 68.06646215 -85.71500146 68.06646215 -82.84765625 68.09765625 C-82.66203125 67.54078125 -82.47640625 66.98390625 -82.28515625 66.41015625 C-80.18404911 63.03011433 -77.14099631 61.24625244 -73.84765625 59.09765625 C-74.34265625 56.12765625 -74.34265625 56.12765625 -74.84765625 53.09765625 C-74.29207031 53.42378906 -73.73648438 53.74992187 -73.1640625 54.0859375 C-70.51182654 55.24433398 -68.66584707 55.33295052 -65.78515625 55.28515625 C-64.92792969 55.27871094 -64.07070312 55.27226563 -63.1875 55.265625 C-60.69287657 55.18355659 -60.69287657 55.18355659 -57.84765625 54.09765625 C-58.17765625 55.08765625 -58.50765625 56.07765625 -58.84765625 57.09765625 C-58.91664725 59.15910732 -58.93233352 61.22267026 -58.91015625 63.28515625 C-58.90113281 64.37183594 -58.89210938 65.45851563 -58.8828125 66.578125 C-58.87121094 67.40957031 -58.85960938 68.24101562 -58.84765625 69.09765625 C-59.67910156 69.07445312 -60.51054688 69.05125 -61.3671875 69.02734375 C-62.45386719 69.00929688 -63.54054688 68.99125 -64.66015625 68.97265625 C-65.73910156 68.94945312 -66.81804687 68.92625 -67.9296875 68.90234375 C-71.04168493 68.86741908 -71.04168493 68.86741908 -73.84765625 71.09765625 C-73.84765625 70.10765625 -73.84765625 69.11765625 -73.84765625 68.09765625 C-77.17362906 71.62871586 -77.31535789 74.6000116 -77.53515625 79.34765625 C-77.60089844 80.6109375 -77.66664062 81.87421875 -77.734375 83.17578125 C-77.77175781 84.14 -77.80914062 85.10421875 -77.84765625 86.09765625 C-81.80765625 86.09765625 -85.76765625 86.09765625 -89.84765625 86.09765625 C-89.78578125 87.70640625 -89.72390625 89.31515625 -89.66015625 90.97265625 C-89.62948025 99.5005847 -91.28847876 107.74491969 -92.84765625 116.09765625 C-94.49765625 115.76765625 -96.14765625 115.43765625 -97.84765625 115.09765625 C-97.84765625 110.47765625 -97.84765625 105.85765625 -97.84765625 101.09765625 C-97.98042969 102.22945313 -98.11320312 103.36125 -98.25 104.52734375 C-98.42819045 106.00913804 -98.60658654 107.49090761 -98.78515625 108.97265625 C-98.87216797 109.71902344 -98.95917969 110.46539062 -99.04882812 111.234375 C-99.734375 116.87109375 -99.734375 116.87109375 -100.84765625 119.09765625 C-102.49765625 118.76765625 -104.14765625 118.43765625 -105.84765625 118.09765625 C-105.84765625 113.14765625 -105.84765625 108.19765625 -105.84765625 103.09765625 C-106.17765625 103.75765625 -106.50765625 104.41765625 -106.84765625 105.09765625 C-111.59765625 104.34765625 -111.59765625 104.34765625 -113.84765625 102.09765625 C-115.50239276 101.7615379 -117.1730598 101.50161687 -118.84765625 101.28515625 C-130.93630279 99.22047216 -141.42429761 92.08892158 -148.72265625 82.28515625 C-152.74194927 76.13744328 -155.84765625 69.51263577 -155.84765625 62.09765625 C-152.87765625 62.09765625 -149.90765625 62.09765625 -146.84765625 62.09765625 C-146.533125 62.82210937 -146.21859375 63.5465625 -145.89453125 64.29296875 C-140.55365574 76.35819957 -134.32317607 84.95254165 -121.84765625 90.09765625 C-118.28720448 91.28447351 -115.40957288 91.19455457 -111.66015625 91.16015625 C-110.38785156 91.15113281 -109.11554688 91.14210938 -107.8046875 91.1328125 C-106.82886719 91.12121094 -105.85304687 91.10960937 -104.84765625 91.09765625 C-104.51765625 88.78765625 -104.18765625 86.47765625 -103.84765625 84.09765625 C-104.83765625 83.76765625 -105.82765625 83.43765625 -106.84765625 83.09765625 C-109.50571819 79.01244696 -109.52836867 74.81343505 -108.84765625 70.09765625 C-107.03515625 66.78515625 -107.03515625 66.78515625 -104.84765625 64.09765625 C-104.27015625 63.31390625 -103.69265625 62.53015625 -103.09765625 61.72265625 C-102.68515625 61.18640625 -102.27265625 60.65015625 -101.84765625 60.09765625 C-102.83765625 59.76765625 -103.82765625 59.43765625 -104.84765625 59.09765625 C-104.84765625 58.43765625 -104.84765625 57.77765625 -104.84765625 57.09765625 C-105.83765625 57.75765625 -106.82765625 58.41765625 -107.84765625 59.09765625 C-112.38819679 58.55711571 -112.38819679 58.55711571 -113.84765625 57.09765625 C-114.03515625 54.66015625 -114.03515625 54.66015625 -113.84765625 52.09765625 C-113.18765625 51.43765625 -112.52765625 50.77765625 -111.84765625 50.09765625 C-109.23185146 50.42463185 -107.20687488 50.91804693 -104.84765625 52.09765625 C-104.60015625 51.45828125 -104.35265625 50.81890625 -104.09765625 50.16015625 C-102.84765625 48.09765625 -102.84765625 48.09765625 -98.84765625 47.09765625 C-98.84765625 40.82765625 -98.84765625 34.55765625 -98.84765625 28.09765625 C-95.54765625 28.09765625 -92.24765625 28.09765625 -88.84765625 28.09765625 C-89.01650226 25.15061479 -89.01650226 25.15061479 -90.84765625 22.09765625 C-99.22206752 16.84374804 -110.03552805 16.87832561 -119.48828125 18.5703125 C-128.76030115 21.27735328 -136.21091237 27.38421725 -141.84765625 35.09765625 C-142.16734375 35.79375 -142.48703125 36.48984375 -142.81640625 37.20703125 C-144.05643854 39.48042378 -145.11657191 40.08304649 -147.41015625 41.22265625 C-150.88297599 42.69240866 -150.88297599 42.69240866 -151.84765625 45.09765625 C-153.16765625 45.09765625 -154.48765625 45.09765625 -155.84765625 45.09765625 C-154.64507724 35.13343016 -148.80523549 25.22352165 -141.28515625 18.53515625 C-140.16018511 17.6940081 -139.01397966 16.8804589 -137.84765625 16.09765625 C-136.92726562 15.42863281 -136.92726562 15.42863281 -135.98828125 14.74609375 C-130.93690043 11.29094927 -125.74884227 9.58298879 -119.84765625 8.09765625 C-119.18507812 7.91074219 -118.5225 7.72382812 -117.83984375 7.53125 C-104.31623781 4.58787694 -91.35056488 10.04216647 -80.18359375 17.14453125 C-77.84765625 19.09765625 -77.84765625 19.09765625 -76.45069885 21.00323486 C-73.21337392 25.36618194 -73.21337392 25.36618194 -68.52307129 27.84393311 C-65.83410642 28.11583841 -63.2411043 28.15429365 -60.5390625 28.09765625 C-59.08898048 28.11397095 -59.08898048 28.11397095 -57.60960388 28.13061523 C-54.54197162 28.15667324 -51.47769713 28.12799219 -48.41015625 28.09765625 C-46.32224843 28.10575205 -44.23435124 28.11743287 -42.14648438 28.1328125 C-37.04606318 28.162591 -31.94793752 28.14330486 -26.84765625 28.09765625 C-26.84765625 27.10765625 -26.84765625 26.11765625 -26.84765625 25.09765625 C-23.87765625 24.60265625 -23.87765625 24.60265625 -20.84765625 24.09765625 C-19.65414313 20.75436156 -19.65414313 20.75436156 -18.84765625 17.09765625 C-19.83765625 15.61265625 -19.83765625 15.61265625 -20.84765625 14.09765625 C-20.74810021 11.01141898 -19.77448761 10.01821601 -17.66015625 7.72265625 C-16.73203125 7.18640625 -15.80390625 6.65015625 -14.84765625 6.09765625 C-11.84765625 6.91015625 -11.84765625 6.91015625 -8.84765625 8.09765625 C-6.07017943 7.81125839 -6.07017943 7.81125839 -3.84765625 7.09765625 C-3.70328125 6.12828125 -3.55890625 5.15890625 -3.41015625 4.16015625 C-2.67198528 0.14122544 -2.67198528 0.14122544 0 0 Z " fill="#DC6D5C" transform="translate(166.84765625,63.90234375)"/>
<path d="M0 0 C9.57 0 19.14 0 29 0 C26.66258033 7.01225901 25.62124112 10.13341513 21.375 15.5 C20.57835937 16.5209375 19.78171875 17.541875 18.9609375 18.59375 C17 21 17 21 16 22 C15.2407311 27.59654657 14.58058665 33.46332982 16 39 C20.47520373 44.29895804 27.32062851 46.6641257 34 48 C34 46.35 34 44.7 34 43 C36.08778312 43.56720119 38.17012831 44.15444203 40.25 44.75 C41.41015625 45.07484375 42.5703125 45.3996875 43.765625 45.734375 C47.10843081 47.04242945 48.7789547 48.21409627 51 51 C51.0625 53 51.0625 53 50 55 C35.08061484 68.35441469 5.02904282 67.68629445 -14 69 C-14.78181641 69.05784668 -15.56363281 69.11569336 -16.36914062 69.17529297 C-132.16923042 77.45023577 -132.16923042 77.45023577 -159 55 C-160 52.5 -160 52.5 -159 50 C-156.01072566 47.51359424 -152.7822385 45.30258154 -148.90625 44.64453125 C-146.09407086 43.69369199 -145.56384637 42.02869701 -144.25 39.4375 C-143.82203125 38.61121094 -143.3940625 37.78492188 -142.953125 36.93359375 C-142.63859375 36.29550781 -142.3240625 35.65742188 -142 35 C-141.33355469 35.33773437 -140.66710937 35.67546875 -139.98046875 36.0234375 C-134.11671331 38.86100307 -128.8868585 40.66314816 -122.41015625 41.4453125 C-119.629154 42.08534867 -118.20091237 43.22640464 -116 45 C-115.01 45.33 -114.02 45.66 -113 46 C-112.67 45.01 -112.34 44.02 -112 43 C-111.67 43 -111.34 43 -111 43 C-111 48.28 -111 53.56 -111 59 C-109.68 59.33 -108.36 59.66 -107 60 C-105.515 47.13 -105.515 47.13 -104 34 C-103.67 34 -103.34 34 -103 34 C-103 41.26 -103 48.52 -103 56 C-101.68 56.33 -100.36 56.66 -99 57 C-98.67 55.35 -98.34 53.7 -98 52 C-68.63 52 -39.26 52 -9 52 C-8.34 50.68 -7.68 49.36 -7 48 C-5.01257147 47.73935363 -3.02214916 47.48746438 -1.0234375 47.3359375 C2.0645356 46.82326243 3.73815184 45.07845506 6 43 C10.60714286 40 10.60714286 40 13 40 C13.34255669 25.73657553 13.34255669 25.73657553 6.10546875 13.84765625 C4 11 4 11 0 0 Z " fill="#DBD7FD" transform="translate(173,123)"/>
<path d="M0 0 C2.05078125 0.03255208 4.1015625 0.06510417 6.15234375 0.09765625 C6.39984375 1.04640625 6.64734375 1.99515625 6.90234375 2.97265625 C7.8560295 6.10706305 7.8560295 6.10706305 9.96484375 7.53515625 C12.6944614 8.23705793 14.43703581 7.77648323 17.15234375 7.09765625 C21.15234375 7.09765625 21.15234375 7.09765625 23.40234375 9.09765625 C23.97984375 9.75765625 24.55734375 10.41765625 25.15234375 11.09765625 C24.86359375 11.77828125 24.57484375 12.45890625 24.27734375 13.16015625 C22.43007122 17.98359007 20.90520946 22.97816939 20.15234375 28.09765625 C21.73506976 29.68038226 23.53268378 29.44501372 25.71484375 29.66015625 C26.95427734 29.78583984 26.95427734 29.78583984 28.21875 29.9140625 C28.85683594 29.97464844 29.49492187 30.03523438 30.15234375 30.09765625 C30.15234375 31.41765625 30.15234375 32.73765625 30.15234375 34.09765625 C28.17234375 34.42765625 26.19234375 34.75765625 24.15234375 35.09765625 C23.96671875 36.39703125 23.78109375 37.69640625 23.58984375 39.03515625 C23.48542969 39.76605469 23.38101563 40.49695313 23.2734375 41.25 C23.23347656 41.85972656 23.19351563 42.46945313 23.15234375 43.09765625 C25.50196269 45.44727519 32.26150429 44.50901159 35.62695312 44.61523438 C36.42810547 44.64939453 37.22925781 44.68355469 38.0546875 44.71875 C39.16058228 44.75633423 39.16058228 44.75633423 40.28881836 44.79467773 C42.15234375 45.09765625 42.15234375 45.09765625 44.15234375 47.09765625 C44.33984375 49.66015625 44.33984375 49.66015625 44.15234375 52.09765625 C42.6107782 53.6392218 41.17788611 53.23234119 39.03149414 53.24291992 C38.15711197 53.24929977 37.2827298 53.25567963 36.3818512 53.26225281 C34.95533485 53.26392204 34.95533485 53.26392204 33.5 53.265625 C32.04429848 53.2706176 32.04429848 53.2706176 30.55918884 53.27571106 C28.50211055 53.28078455 26.445024 53.28311926 24.38793945 53.28295898 C21.23179631 53.28514451 18.07600304 53.30329316 14.91992188 53.32226562 C12.92578245 53.32519958 10.93164136 53.32718436 8.9375 53.328125 C7.98851334 53.33531052 7.03952667 53.34249603 6.06178284 53.34989929 C5.1842485 53.34682266 4.30671417 53.34374603 3.40258789 53.34057617 C2.62839005 53.34200119 1.8541922 53.34342621 1.05653381 53.34489441 C-0.84765625 53.09765625 -0.84765625 53.09765625 -2.84765625 51.09765625 C-2.84765625 49.77765625 -2.84765625 48.45765625 -2.84765625 47.09765625 C-17.03765625 47.09765625 -31.22765625 47.09765625 -45.84765625 47.09765625 C-45.84765625 40.82765625 -45.84765625 34.55765625 -45.84765625 28.09765625 C-39.57765625 28.09765625 -33.30765625 28.09765625 -26.84765625 28.09765625 C-26.84765625 27.10765625 -26.84765625 26.11765625 -26.84765625 25.09765625 C-24.86765625 24.76765625 -22.88765625 24.43765625 -20.84765625 24.09765625 C-19.65414313 20.75436156 -19.65414313 20.75436156 -18.84765625 17.09765625 C-19.50765625 16.10765625 -20.16765625 15.11765625 -20.84765625 14.09765625 C-20.74810021 11.01141898 -19.77448761 10.01821601 -17.66015625 7.72265625 C-16.73203125 7.18640625 -15.80390625 6.65015625 -14.84765625 6.09765625 C-11.84765625 6.91015625 -11.84765625 6.91015625 -8.84765625 8.09765625 C-6.07017943 7.81125839 -6.07017943 7.81125839 -3.84765625 7.09765625 C-3.70328125 6.12828125 -3.55890625 5.15890625 -3.41015625 4.16015625 C-2.67198528 0.14122544 -2.67198528 0.14122544 0 0 Z " fill="#DF8575" transform="translate(166.84765625,63.90234375)"/>
<path d="M0 0 C1.79873821 1.71235812 3.0241324 3.47404605 4.1328125 5.69140625 C5.91236488 6.74472059 5.91236488 6.74472059 8.0078125 7.69140625 C10.57388268 8.90342464 12.75184948 10.10409757 15.1328125 11.69140625 C15.1328125 12.35140625 15.1328125 13.01140625 15.1328125 13.69140625 C15.7103125 13.91828125 16.2878125 14.14515625 16.8828125 14.37890625 C19.8855209 16.13048615 21.31832839 17.71046808 23.1328125 20.69140625 C24.05909455 27.17538061 24.05909455 27.17538061 22.00390625 30.5390625 C20.6328125 32.19140625 20.6328125 32.19140625 18.1328125 34.69140625 C15.07938816 33.67359814 13.35778772 32.94541053 11.1953125 30.50390625 C10.5146875 29.90578125 9.8340625 29.30765625 9.1328125 28.69140625 C8.2459375 28.89765625 7.3590625 29.10390625 6.4453125 29.31640625 C1.84799438 29.83685736 0.1251321 27.8865781 -3.50390625 25.2578125 C-12.24954758 19.46111469 -24.53224701 18.30205819 -34.671875 20.22265625 C-41.25244554 21.89969916 -47.82953942 24.01112853 -52.9921875 28.56640625 C-54.8671875 29.69140625 -54.8671875 29.69140625 -58.1171875 28.87890625 C-59.0246875 28.48703125 -59.9321875 28.09515625 -60.8671875 27.69140625 C-60.8671875 28.35140625 -60.8671875 29.01140625 -60.8671875 29.69140625 C-65.92686727 34.6360933 -65.92686727 34.6360933 -68.9921875 34.81640625 C-71.82676573 33.11565931 -73.16600666 31.5469598 -74.8671875 28.69140625 C-75.62435287 24.49258012 -75.82045967 22.26933814 -73.609375 18.609375 C-69.24105036 13.29627317 -63.15442333 7.46862444 -56.1953125 6.20703125 C-55.42703125 6.036875 -54.65875 5.86671875 -53.8671875 5.69140625 C-53.3309375 4.76328125 -52.7946875 3.83515625 -52.2421875 2.87890625 C-42.83685584 -9.74403887 -11.89464595 -8.33620585 0 0 Z " fill="#EBEAFC" transform="translate(82.8671875,52.30859375)"/>
<path d="M0 0 C0 0.66 0 1.32 0 2 C-3.3 2 -6.6 2 -10 2 C-9.94199219 3.33675781 -9.88398437 4.67351562 -9.82421875 6.05078125 C-9.77732379 7.80465265 -9.73182335 9.55856173 -9.6875 11.3125 C-9.64560547 12.19357422 -9.60371094 13.07464844 -9.56054688 13.98242188 C-9.51424279 16.41801685 -9.51690328 18.61106652 -10 21 C-12.45703125 22.98046875 -12.45703125 22.98046875 -15 24 C-15.33 24.66 -15.66 25.32 -16 26 C-17.134375 25.814375 -18.26875 25.62875 -19.4375 25.4375 C-21.2009375 25.2209375 -21.2009375 25.2209375 -23 25 C-24.29633621 26.06645115 -24.29633621 26.06645115 -24.0625 28.5625 C-24.041875 29.366875 -24.02125 30.17125 -24 31 C-20.71303767 31.79953138 -19.28976808 32.09658936 -16 31 C-15.01 31.99 -14.02 32.98 -13 34 C-14.17108155 36.53734336 -15.37451083 38.47364605 -17.125 40.6875 C-19.49803955 44.87986988 -19.7391183 48.27308065 -19 53 C-17.75172539 56.1744427 -17.75172539 56.1744427 -15 58 C-15 59.65 -15 61.3 -15 63 C-26.31463692 64.0833163 -33.58259518 62.30619103 -43 56 C-47.9590986 51.75055094 -51.8945644 46.22476613 -54 40 C-54 38.68 -54 37.36 -54 36 C-52.85660156 35.93941406 -51.71320312 35.87882812 -50.53515625 35.81640625 C-49.04425695 35.73201572 -47.55337225 35.64736698 -46.0625 35.5625 C-45.30775391 35.52318359 -44.55300781 35.48386719 -43.77539062 35.44335938 C-40.08055813 35.55961976 -40.08055813 35.55961976 -37 34 C-36.58219121 31.62694422 -36.58219121 31.62694422 -37 29 C-38.9375006 26.81222534 -38.9375006 26.81222534 -41 25 C-41 24.34 -41 23.68 -41 23 C-41.8971875 22.9071875 -41.8971875 22.9071875 -42.8125 22.8125 C-45.90339529 21.66445318 -46.5880344 19.89452948 -48 17 C-48 16.34 -48 15.68 -48 15 C-49.32 14.67 -50.64 14.34 -52 14 C-49.53962962 5.88077775 -43.60148186 1.21665037 -36.43359375 -2.77734375 C-23.95882008 -9.04476615 -11.83782498 -6.08332672 0 0 Z " fill="#A394F4" transform="translate(78,90)"/>
<path d="M0 0 C2.5986701 2.5986701 2.63249261 4.39842758 3 8 C2.67 8.99 2.34 9.98 2 11 C3.46687031 14.24272185 3.46687031 14.24272185 6 17 C9.13265479 17.9688059 9.13265479 17.9688059 12 18 C12.2784375 17.1646875 12.2784375 17.1646875 12.5625 16.3125 C14.66360714 12.93245808 17.70665994 11.14859619 21 9 C20.505 6.03 20.505 6.03 20 3 C20.83337891 3.48919922 20.83337891 3.48919922 21.68359375 3.98828125 C24.33582971 5.14667773 26.18180918 5.23529427 29.0625 5.1875 C29.91972656 5.18105469 30.77695313 5.17460938 31.66015625 5.16796875 C34.15477968 5.08590034 34.15477968 5.08590034 37 4 C36.67 4.99 36.34 5.98 36 7 C35.931009 9.06145107 35.91532273 11.12501401 35.9375 13.1875 C35.94652344 14.27417969 35.95554687 15.36085937 35.96484375 16.48046875 C35.97644531 17.31191406 35.98804687 18.14335937 36 19 C35.16855469 18.97679687 34.33710937 18.95359375 33.48046875 18.9296875 C32.39378906 18.91164062 31.30710937 18.89359375 30.1875 18.875 C29.10855469 18.85179687 28.02960938 18.82859375 26.91796875 18.8046875 C23.80597132 18.76976283 23.80597132 18.76976283 21 21 C21 20.01 21 19.02 21 18 C17.67402719 21.53105961 17.53229836 24.50235535 17.3125 29.25 C17.24675781 30.51328125 17.18101563 31.7765625 17.11328125 33.078125 C17.07589844 34.04234375 17.03851563 35.0065625 17 36 C13.04 36 9.08 36 5 36 C5.061875 37.60875 5.12375 39.2175 5.1875 40.875 C5.218176 49.40292845 3.55917749 57.64726344 2 66 C0.35 65.67 -1.3 65.34 -3 65 C-3 60.38 -3 55.76 -3 51 C-3.13277344 52.13179687 -3.26554687 53.26359375 -3.40234375 54.4296875 C-3.5805342 55.91148179 -3.75893029 57.39325136 -3.9375 58.875 C-4.02451172 59.62136719 -4.11152344 60.36773437 -4.20117188 61.13671875 C-4.88671875 66.7734375 -4.88671875 66.7734375 -6 69 C-7.65 68.67 -9.3 68.34 -11 68 C-11 63.05 -11 58.1 -11 53 C-11.495 53.99 -11.495 53.99 -12 55 C-16.75 54.25 -16.75 54.25 -19 52 C-20.65473651 51.66388165 -22.32540355 51.40396062 -24 51.1875 C-36.08864654 49.12281591 -46.57664136 41.99126533 -53.875 32.1875 C-57.89429302 26.03978703 -61 19.41497952 -61 12 C-58.03 12 -55.06 12 -52 12 C-51.68546875 12.72445312 -51.3709375 13.44890625 -51.046875 14.1953125 C-45.70599949 26.26054332 -39.47551982 34.8548854 -27 40 C-23.43954823 41.18681726 -20.56191663 41.09689832 -16.8125 41.0625 C-15.54019531 41.05347656 -14.26789062 41.04445312 -12.95703125 41.03515625 C-11.98121094 41.02355469 -11.00539062 41.01195312 -10 41 C-9.67 38.69 -9.34 36.38 -9 34 C-9.99 33.67 -10.98 33.34 -12 33 C-14.66343595 28.90653133 -14.66545457 24.72390593 -14 20 C-11.74849691 15.58038283 -8.99891607 12.88810605 -5 10 C-5.99 9.67 -6.98 9.34 -8 9 C-8 8.34 -8 7.68 -8 7 C-7.34 7 -6.68 7 -6 7 C-6 5.68 -6 4.36 -6 3 C-4.02 2.01 -2.04 1.02 0 0 Z " fill="#E8BC59" transform="translate(72,114)"/>
<path d="M0 0 C2.05078125 0.03255208 4.1015625 0.06510417 6.15234375 0.09765625 C6.39984375 1.04640625 6.64734375 1.99515625 6.90234375 2.97265625 C7.8560295 6.10706305 7.8560295 6.10706305 9.96484375 7.53515625 C12.6944614 8.23705793 14.43703581 7.77648323 17.15234375 7.09765625 C21.15234375 7.09765625 21.15234375 7.09765625 23.40234375 9.09765625 C23.97984375 9.75765625 24.55734375 10.41765625 25.15234375 11.09765625 C24.71921875 12.11859375 24.71921875 12.11859375 24.27734375 13.16015625 C22.43007122 17.98359007 20.90520946 22.97816939 20.15234375 28.09765625 C21.73506976 29.68038226 23.53268378 29.44501372 25.71484375 29.66015625 C26.54113281 29.74394531 27.36742187 29.82773438 28.21875 29.9140625 C29.17587891 30.00494141 29.17587891 30.00494141 30.15234375 30.09765625 C30.15234375 31.41765625 30.15234375 32.73765625 30.15234375 34.09765625 C27.18234375 34.59265625 27.18234375 34.59265625 24.15234375 35.09765625 C23.96671875 36.39703125 23.78109375 37.69640625 23.58984375 39.03515625 C23.48542969 39.76605469 23.38101563 40.49695313 23.2734375 41.25 C23.23347656 41.85972656 23.19351563 42.46945313 23.15234375 43.09765625 C25.50196269 45.44727519 32.26150429 44.50901159 35.62695312 44.61523438 C36.42810547 44.64939453 37.22925781 44.68355469 38.0546875 44.71875 C39.16058228 44.75633423 39.16058228 44.75633423 40.28881836 44.79467773 C42.15234375 45.09765625 42.15234375 45.09765625 44.15234375 47.09765625 C44.33984375 49.66015625 44.33984375 49.66015625 44.15234375 52.09765625 C42.6107782 53.6392218 41.17788611 53.23234119 39.03149414 53.24291992 C38.15711197 53.24929977 37.2827298 53.25567963 36.3818512 53.26225281 C34.95533485 53.26392204 34.95533485 53.26392204 33.5 53.265625 C32.04429848 53.2706176 32.04429848 53.2706176 30.55918884 53.27571106 C28.50211055 53.28078455 26.445024 53.28311926 24.38793945 53.28295898 C21.23179631 53.28514451 18.07600304 53.30329316 14.91992188 53.32226562 C12.92578245 53.32519958 10.93164136 53.32718436 8.9375 53.328125 C7.98851334 53.33531052 7.03952667 53.34249603 6.06178284 53.34989929 C5.1842485 53.34682266 4.30671417 53.34374603 3.40258789 53.34057617 C2.62839005 53.34200119 1.8541922 53.34342621 1.05653381 53.34489441 C-0.84765625 53.09765625 -0.84765625 53.09765625 -2.84765625 51.09765625 C-2.47265625 48.47265625 -2.47265625 48.47265625 -1.84765625 46.09765625 C-1.26757812 45.9275 -0.6875 45.75734375 -0.08984375 45.58203125 C5.86985553 43.73314765 10.85655329 41.77607845 15.02734375 36.91015625 C16.63144111 32.89991286 16.83597465 29.35720261 16.15234375 25.09765625 C14.15092762 21.23778229 12.05786125 18.10319226 8.15234375 16.09765625 C3.51080266 14.93275586 -0.02757029 14.8691077 -4.66015625 16.16015625 C-9.65100088 19.19380691 -11.45089627 22.51061632 -12.84765625 28.09765625 C-17.46765625 28.09765625 -22.08765625 28.09765625 -26.84765625 28.09765625 C-26.84765625 27.10765625 -26.84765625 26.11765625 -26.84765625 25.09765625 C-24.86765625 24.76765625 -22.88765625 24.43765625 -20.84765625 24.09765625 C-19.65414313 20.75436156 -19.65414313 20.75436156 -18.84765625 17.09765625 C-19.50765625 16.10765625 -20.16765625 15.11765625 -20.84765625 14.09765625 C-20.74810021 11.01141898 -19.77448761 10.01821601 -17.66015625 7.72265625 C-16.73203125 7.18640625 -15.80390625 6.65015625 -14.84765625 6.09765625 C-11.84765625 6.91015625 -11.84765625 6.91015625 -8.84765625 8.09765625 C-6.07017943 7.81125839 -6.07017943 7.81125839 -3.84765625 7.09765625 C-3.70328125 6.12828125 -3.55890625 5.15890625 -3.41015625 4.16015625 C-2.67198528 0.14122544 -2.67198528 0.14122544 0 0 Z " fill="#6767AA" transform="translate(166.84765625,63.90234375)"/>
<path d="M0 0 C2 2 2 2 2 5 C-4 3 -4 3 -5.98046875 2.19921875 C-14.39298605 -1.03400739 -23.39005616 -1.34614885 -31.84765625 1.97265625 C-40.31294892 6.01325874 -45.09552099 11.02036534 -50 19 C-49.37609375 19.11472656 -48.7521875 19.22945312 -48.109375 19.34765625 C-46 20 -46 20 -44.25 22.4375 C-43 25 -43 25 -43 27 C-42.38125 27.0825 -41.7625 27.165 -41.125 27.25 C-39 28 -39 28 -37.9375 29.9375 C-37.628125 30.618125 -37.31875 31.29875 -37 32 C-36.01 32.66 -35.02 33.32 -34 34 C-33.6875 36.5 -33.6875 36.5 -34 39 C-36 41 -36 41 -39.6953125 41.1953125 C-41.17200108 41.182009 -42.64862358 41.15814835 -44.125 41.125 C-44.87910156 41.11597656 -45.63320313 41.10695312 -46.41015625 41.09765625 C-48.27357254 41.0740687 -50.13682593 41.03819719 -52 41 C-47.95870792 52.6008855 -43.15257443 59.45022445 -32 65 C-27.87406037 66.97387145 -24.24247166 67.36958103 -19.6875 67.625 C-18.43324219 67.69976562 -17.17898437 67.77453125 -15.88671875 67.8515625 C-14.45779297 67.92503906 -14.45779297 67.92503906 -13 68 C-13.495 69.485 -13.495 69.485 -14 71 C-22.61511421 71.44117228 -29.48873762 71.50364072 -37 67 C-38.03125 66.401875 -39.0625 65.80375 -40.125 65.1875 C-48.86258935 58.53933419 -54.48411522 51.1111129 -56 40 C-57.13179687 40.09539062 -58.26359375 40.19078125 -59.4296875 40.2890625 C-60.91141612 40.40159885 -62.39318945 40.51354758 -63.875 40.625 C-64.62136719 40.68945312 -65.36773437 40.75390625 -66.13671875 40.8203125 C-68.0870047 40.96087365 -70.04469467 40.98759849 -72 41 C-74 39 -74 39 -74.3125 36.6875 C-73.92944218 33.39320279 -72.89639456 31.70913508 -71 29 C-70.401875 28.071875 -69.80375 27.14375 -69.1875 26.1875 C-67 24 -67 24 -63.75 23.6875 C-62.8425 23.790625 -61.935 23.89375 -61 24 C-60.79375 23.38125 -60.5875 22.7625 -60.375 22.125 C-59 20 -59 20 -56 19.0625 C-55.01 18.711875 -54.02 18.36125 -53 18 C-52.27544365 16.35767228 -51.62225605 14.68375165 -51 13 C-39.20598146 -3.53207801 -18.46944583 -9.53037318 0 0 Z " fill="#FDFDFE" transform="translate(76,85)"/>
<path d="M0 0 C0 0.66 0 1.32 0 2 C-3.3 2 -6.6 2 -10 2 C-9.94199219 3.33675781 -9.88398437 4.67351562 -9.82421875 6.05078125 C-9.77732379 7.80465265 -9.73182335 9.55856173 -9.6875 11.3125 C-9.64560547 12.19357422 -9.60371094 13.07464844 -9.56054688 13.98242188 C-9.51424279 16.41801685 -9.51690328 18.61106652 -10 21 C-12.45703125 22.98046875 -12.45703125 22.98046875 -15 24 C-15.33 24.66 -15.66 25.32 -16 26 C-17.134375 25.814375 -18.26875 25.62875 -19.4375 25.4375 C-20.613125 25.293125 -21.78875 25.14875 -23 25 C-24.29633621 26.06645115 -24.29633621 26.06645115 -24.0625 28.5625 C-24.041875 29.366875 -24.02125 30.17125 -24 31 C-20.71303767 31.79953138 -19.28976808 32.09658936 -16 31 C-15.01 31.99 -14.02 32.98 -13 34 C-14.65167557 37.5786304 -16.78286492 40.74820188 -19 44 C-22.875 42.25 -22.875 42.25 -24 40 C-27.67296268 41.22432089 -28.08625561 42.33278091 -30.0625 45.5625 C-31.59765625 48.06640625 -31.59765625 48.06640625 -33 50 C-33.66 50 -34.32 50 -35 50 C-33.65930065 47.16753659 -32.10833095 44.68753242 -30.3125 42.125 C-28.66774624 39.47295621 -28.00793776 38.35719909 -27.9375 35.1875 C-29.20799675 31.37600975 -30.58346899 27.61454708 -32.0625 23.87890625 C-34.13496886 17.5146998 -34.131791 11.1771259 -34.0625 4.5625 C-34.05798828 3.73556641 -34.05347656 2.90863281 -34.04882812 2.05664062 C-34.03715811 0.03772854 -34.01922718 -1.98114574 -34 -4 C-21.42257997 -7.91088931 -11.5212157 -5.92062474 0 0 Z " fill="#BFB3F7" transform="translate(78,90)"/>
<path d="M0 0 C9.57 0 19.14 0 29 0 C26.66258033 7.01225901 25.62124112 10.13341513 21.375 15.5 C20.57835937 16.5209375 19.78171875 17.541875 18.9609375 18.59375 C17 21 17 21 16 22 C15.24404523 27.57211822 14.51944331 33.49846305 16 39 C19.20163395 42.50679777 22.650562 44.2086558 27 46 C27.33 46.33 27.66 46.66 28 47 C29.67884238 47.3931648 31.36850045 47.74085452 33.0625 48.0625 C33.98160156 48.23910156 34.90070313 48.41570312 35.84765625 48.59765625 C36.55792969 48.73042969 37.26820313 48.86320312 38 49 C38.042721 50.66611905 38.04063832 52.33382885 38 54 C37 55 37 55 35.17137146 55.12025452 C34.37417191 55.11803391 33.57697235 55.11581329 32.75561523 55.11352539 C31.85475693 55.11344986 30.95389862 55.11337433 30.02574158 55.11329651 C29.04658279 55.10813522 28.06742401 55.10297394 27.05859375 55.09765625 C26.06118668 55.0962413 25.0637796 55.09482635 24.03614807 55.09336853 C20.83656876 55.08775114 17.63705831 55.07519571 14.4375 55.0625 C12.27408955 55.05748724 10.11067801 55.05292395 7.94726562 55.04882812 C2.63148675 55.03777607 -2.68425171 55.02102104 -8 55 C-8.625 52.625 -8.625 52.625 -9 50 C-7 48 -7 48 -3.1875 47.625 C0.95606606 47.20615578 2.90490197 45.84414413 6 43 C10.60714286 40 10.60714286 40 13 40 C13.34255669 25.73657553 13.34255669 25.73657553 6.10546875 13.84765625 C4 11 4 11 0 0 Z " fill="#E0A536" transform="translate(173,123)"/>
<path d="M0 0 C4.51790589 3.10457153 8.11160514 6.85333619 11.375 11.25 C11.375 11.58 11.375 11.91 11.375 12.25 C7.415 12.25 3.455 12.25 -0.625 12.25 C-1.615 9.775 -1.615 9.775 -2.625 7.25 C-3.5840625 7.37375 -3.5840625 7.37375 -4.5625 7.5 C-8.36266817 7.18978219 -11.12372152 5.84873156 -14.5390625 4.22265625 C-21.73210262 0.86859821 -31.92523068 1.09182485 -39.5 3.375 C-47.96154131 6.79460786 -56.68411391 12.8464577 -60.59375 21.359375 C-61.83378229 23.63276753 -62.89391566 24.23539024 -65.1875 25.375 C-68.66031974 26.84475241 -68.66031974 26.84475241 -69.625 29.25 C-70.945 29.25 -72.265 29.25 -73.625 29.25 C-72.42242099 19.28577391 -66.58257924 9.3758654 -59.0625 2.6875 C-57.93752886 1.84635185 -56.79132341 1.03280265 -55.625 0.25 C-54.70460938 -0.41902344 -54.70460938 -0.41902344 -53.765625 -1.1015625 C-48.71424418 -4.55670698 -43.52618602 -6.26466746 -37.625 -7.75 C-36.96242187 -7.93691406 -36.29984375 -8.12382813 -35.6171875 -8.31640625 C-23.10820929 -11.03894857 -10.49700838 -6.53620826 0 0 Z " fill="#6262A6" transform="translate(84.625,79.75)"/>
<path d="M0 0 C2.97 0 5.94 0 9 0 C9.31453125 0.72445312 9.6290625 1.44890625 9.953125 2.1953125 C15.29400051 14.26054332 21.52448018 22.8548854 34 28 C37.31544299 29.10514766 40.20410111 29.32107631 43.6875 29.5625 C44.86699219 29.64628906 46.04648437 29.73007813 47.26171875 29.81640625 C48.61716797 29.90728516 48.61716797 29.90728516 50 30 C49.04270084 31.12588014 48.08412105 32.2506715 47.125 33.375 C46.59132812 34.00148437 46.05765625 34.62796875 45.5078125 35.2734375 C42.28518799 38.96359302 42.28518799 38.96359302 39.0625 39.375 C28.47038594 38.95919387 19.59775095 32.91956956 12 26 C5.44064566 18.75581911 0 10.01193741 0 0 Z " fill="#6161A5" transform="translate(11,126)"/>
<path d="M0 0 C2.4375 1.875 2.4375 1.875 4 4 C4 4.99 4 5.98 4 7 C4.5775 7.061875 5.155 7.12375 5.75 7.1875 C8.99971192 8.36100708 10.1677632 10.12077075 12 13 C12.25 15.8125 12.25 15.8125 12 18 C7.69949511 20.15025244 1.97272618 19.22697178 -2.8034668 19.24023438 C-4.92601601 19.24994745 -7.04759968 19.28097427 -9.16992188 19.3125 C-10.51822342 19.31902955 -11.86653188 19.32428021 -13.21484375 19.328125 C-14.44323975 19.3374707 -15.67163574 19.34681641 -16.93725586 19.35644531 C-20 19 -20 19 -21.94360352 17.61621094 C-23 16 -23 16 -22.6875 13.8125 C-22.3471875 12.9153125 -22.3471875 12.9153125 -22 12 C-21.34 12 -20.68 12 -20 12 C-19.896875 11.236875 -19.79375 10.47375 -19.6875 9.6875 C-18.93875261 6.76057838 -18.48307071 5.68494084 -16 4 C-13.3125 3.8125 -13.3125 3.8125 -11 4 C-10.71125 3.360625 -10.4225 2.72125 -10.125 2.0625 C-7.74337497 -2.30381256 -4.314409 -0.96702271 0 0 Z " fill="#FEFEFF" transform="translate(131,43)"/>
<path d="M0 0 C3.0625 2.3125 3.0625 2.3125 5 5 C4.78816739 7.66379504 4.22453651 8.76523281 2.37109375 10.703125 C1.73300781 11.21359375 1.09492187 11.7240625 0.4375 12.25 C-0.20316406 12.77078125 -0.84382813 13.2915625 -1.50390625 13.828125 C-1.99761719 14.21484375 -2.49132812 14.6015625 -3 15 C-2.34 16.65 -1.68 18.3 -1 20 C-3.25 21.125 -3.25 21.125 -6 22 C-8.3125 21.125 -8.3125 21.125 -10 20 C-10 20.66 -10 21.32 -10 22 C-15.05967977 26.94468705 -15.05967977 26.94468705 -18.125 27.125 C-20.95957823 25.42425306 -22.29881916 23.85555355 -24 21 C-24.75716537 16.80117387 -24.95327217 14.57793189 -22.7421875 10.91796875 C-16.74460927 3.62323988 -9.75572207 -3.08931199 0 0 Z " fill="#C2B6FA" transform="translate(32,60)"/>
<path d="M0 0 C2.86285518 1.40549593 5.55077182 2.94861599 8 5 C8 5.66 8 6.32 8 7 C8.5775 7.226875 9.155 7.45375 9.75 7.6875 C12.7527084 9.4390799 14.18551589 11.01906183 16 14 C16.92628205 20.48397436 16.92628205 20.48397436 14.87109375 23.84765625 C13.5 25.5 13.5 25.5 11 28 C7.94657566 26.98219189 6.22497522 26.25400428 4.0625 23.8125 C3.0415625 22.9153125 3.0415625 22.9153125 2 22 C-1.19954954 22.14349347 -1.19954954 22.14349347 -4 23 C-5.4606285 20.35261084 -6 19.10551666 -6 16 C-7.58276075 14.28063492 -7.58276075 14.28063492 -9.5625 12.625 C-12.95988299 9.34500626 -12.95988299 9.34500626 -13.3125 6.3125 C-10.37650477 1.13955601 -5.77962619 -1.04033271 0 0 Z " fill="#C2B6FA" transform="translate(90,59)"/>
<path d="M0 0 C0.66 0 1.32 0 2 0 C1 2 0 4 -1 6 C-1.23029956 8.37123246 -1.41119942 10.74741943 -1.5625 13.125 C-1.64628906 14.40632812 -1.73007813 15.68765625 -1.81640625 17.0078125 C-1.87699219 17.99523437 -1.93757813 18.98265625 -2 20 C-5.96 20 -9.92 20 -14 20 C-13.938125 21.60875 -13.87625 23.2175 -13.8125 24.875 C-13.781824 33.40292845 -15.44082251 41.64726344 -17 50 C-18.65 49.67 -20.3 49.34 -22 49 C-22 44.38 -22 39.76 -22 35 C-22.13277344 36.13179687 -22.26554687 37.26359375 -22.40234375 38.4296875 C-22.5805342 39.91148179 -22.75893029 41.39325136 -22.9375 42.875 C-23.06801758 43.99455078 -23.06801758 43.99455078 -23.20117188 45.13671875 C-23.88671875 50.7734375 -23.88671875 50.7734375 -25 53 C-26.65 52.67 -28.3 52.34 -30 52 C-30 47.05 -30 42.1 -30 37 C-30.99 37 -31.98 37 -33 37 C-26.46945869 29.29731024 -19.67661787 21.8381734 -12.875 14.375 C-9.29521378 10.44337831 -5.7612601 6.47768811 -2.27734375 2.4609375 C-1.54167701 1.61953273 -0.79030613 0.79030613 0 0 Z " fill="#D35B4C" transform="translate(91,130)"/>
<path d="M0 0 C4.12826335 2.55372647 7.17597925 5.45279333 9 10 C9.71951251 14.60153351 9.43337657 18.11657853 7.375 22.3125 C4.78946856 25.23823295 2.43202481 27.14098656 -1 29 C-2.32 29 -3.64 29 -5 29 C-5 23.72 -5 18.44 -5 13 C-7.97 13 -10.94 13 -14 13 C-14.33 11.68 -14.66 10.36 -15 9 C-16.32 8.67 -17.64 8.34 -19 8 C-19 9.65 -19 11.3 -19 13 C-19.66 13 -20.32 13 -21 13 C-20.54655595 8.12547646 -19.52912227 5.43625063 -16 2 C-10.61119681 -1.16988423 -5.92336433 -1.90132682 0 0 Z " fill="#E9E7F8" transform="translate(175,79)"/>
<path d="M0 0 C4.55804329 1.1602292 4.55804329 1.1602292 6.4375 3.875 C6.7675 4.865 7.0975 5.855 7.4375 6.875 C9.45536829 8.71369183 11.57633789 10.37247019 13.72265625 12.05859375 C15.4375 13.875 15.4375 13.875 15.4375 17.875 C12.58417695 19.49122915 10.5508311 20.12454632 7.27734375 20.10546875 C6.09362183 20.10353516 6.09362183 20.10353516 4.88598633 20.1015625 C4.05736084 20.08867188 3.22873535 20.07578125 2.375 20.0625 C1.10595825 20.05283203 1.10595825 20.05283203 -0.1887207 20.04296875 C-6.34693695 19.96760288 -12.44829879 19.64442757 -18.5625 18.875 C-19.14453125 16.50390625 -19.14453125 16.50390625 -19.5625 13.875 C-18.25 11.8125 -18.25 11.8125 -16.5625 9.875 C-16.315 9.194375 -16.0675 8.51375 -15.8125 7.8125 C-13.84537211 4.76345178 -10.86102387 4.18303533 -7.5625 2.875 C-6.5725 2.00875 -6.5725 2.00875 -5.5625 1.125 C-3.5625 -0.125 -3.5625 -0.125 0 0 Z " fill="#FEFEFE" transform="translate(205.5625,74.125)"/>
<path d="M0 0 C2.05078125 0.03255208 4.1015625 0.06510417 6.15234375 0.09765625 C6.39984375 1.04640625 6.64734375 1.99515625 6.90234375 2.97265625 C7.8560295 6.10706305 7.8560295 6.10706305 9.96484375 7.53515625 C12.6944614 8.23705793 14.43703581 7.77648323 17.15234375 7.09765625 C21.15234375 7.09765625 21.15234375 7.09765625 23.40234375 9.09765625 C23.97984375 9.75765625 24.55734375 10.41765625 25.15234375 11.09765625 C24.71921875 12.11859375 24.71921875 12.11859375 24.27734375 13.16015625 C23.05608508 16.19515482 23.05608508 16.19515482 22.15234375 19.84765625 C21.82234375 20.92015625 21.49234375 21.99265625 21.15234375 23.09765625 C20.16234375 23.59265625 20.16234375 23.59265625 19.15234375 24.09765625 C18.78109375 23.21078125 18.40984375 22.32390625 18.02734375 21.41015625 C15.3968579 16.76296458 12.33250106 13.82437535 7.15234375 12.09765625 C0.46184638 11.37275334 -5.45247536 11.78151154 -10.84765625 16.09765625 C-13.9674418 19.88485861 -15.65724148 23.33599715 -16.84765625 28.09765625 C-20.14765625 28.09765625 -23.44765625 28.09765625 -26.84765625 28.09765625 C-26.84765625 27.10765625 -26.84765625 26.11765625 -26.84765625 25.09765625 C-24.86765625 24.76765625 -22.88765625 24.43765625 -20.84765625 24.09765625 C-19.65414313 20.75436156 -19.65414313 20.75436156 -18.84765625 17.09765625 C-19.50765625 16.10765625 -20.16765625 15.11765625 -20.84765625 14.09765625 C-20.74810021 11.01141898 -19.77448761 10.01821601 -17.66015625 7.72265625 C-16.73203125 7.18640625 -15.80390625 6.65015625 -14.84765625 6.09765625 C-11.84765625 6.91015625 -11.84765625 6.91015625 -8.84765625 8.09765625 C-6.07017943 7.81125839 -6.07017943 7.81125839 -3.84765625 7.09765625 C-3.70328125 6.12828125 -3.55890625 5.15890625 -3.41015625 4.16015625 C-2.67198528 0.14122544 -2.67198528 0.14122544 0 0 Z " fill="#8691EE" transform="translate(166.84765625,63.90234375)"/>
<path d="M0 0 C0.75341675 0.00142502 1.5068335 0.00285004 2.28308105 0.00431824 C3.13736694 0.00124161 3.99165283 -0.00183502 4.87182617 -0.00500488 C5.795802 0.00218063 6.71977783 0.00936615 7.67175293 0.01676941 C8.61860962 0.01722763 9.56546631 0.01768585 10.54101562 0.01815796 C12.54505667 0.02118206 14.54909534 0.02907306 16.55310059 0.04142761 C19.62789194 0.05966337 22.70238195 0.06193747 25.77722168 0.06169128 C27.72123471 0.06660718 29.66524569 0.07243582 31.60925293 0.07926941 C32.99521667 0.08093864 32.99521667 0.08093864 34.40917969 0.0826416 C35.69060852 0.09221138 35.69060852 0.09221138 36.9979248 0.10197449 C38.12804993 0.10769218 38.12804993 0.10769218 39.28100586 0.11352539 C41.14050293 0.24723816 41.14050293 0.24723816 43.14050293 1.24723816 C43.18322393 2.91335721 43.18114125 4.58106701 43.14050293 6.24723816 C42.14050293 7.24723816 42.14050293 7.24723816 40.31187439 7.36749268 C39.51467484 7.36527206 38.71747528 7.36305145 37.89611816 7.36076355 C36.99525986 7.36068802 36.09440155 7.36061249 35.16624451 7.36053467 C34.18708572 7.35537338 33.20792694 7.3502121 32.19909668 7.34489441 C31.20168961 7.34347946 30.20428253 7.34206451 29.176651 7.34060669 C25.97707169 7.3349893 22.77756124 7.32243387 19.57800293 7.30973816 C17.41459248 7.3047254 15.25118094 7.3001621 13.08776855 7.29606628 C7.77198968 7.28501423 2.45625122 7.2682592 -2.85949707 7.24723816 C-3.48449707 4.87223816 -3.48449707 4.87223816 -3.85949707 2.24723816 C-1.85949707 0.24723816 -1.85949707 0.24723816 0 0 Z " fill="#5E5EA4" transform="translate(167.8594970703125,170.7527618408203)"/>
<path d="M0 0 C4.9468437 3.48527625 8.09051781 6.13303532 9.5234375 12.2265625 C10.29114037 18.99103874 10.2927087 23.9091294 6.171875 29.484375 C4.75 30.9375 4.75 30.9375 1.75 32.9375 C0.265 32.4425 0.265 32.4425 -1.25 31.9375 C-0.82847656 31.38320312 -0.40695313 30.82890625 0.02734375 30.2578125 C0.57519531 29.53335938 1.12304688 28.80890625 1.6875 28.0625 C2.23277344 27.34320313 2.77804688 26.62390625 3.33984375 25.8828125 C6.34072182 21.74309704 6.36332474 17.92811503 5.75 12.9375 C3.74858387 9.07762604 1.6555175 5.94303601 -2.25 3.9375 C-6.89154109 2.77259961 -10.42991404 2.70895145 -15.0625 4 C-19.35160543 6.6071033 -21.49048335 9.53236395 -23 14.3125 C-23.0825 14.84875 -23.165 15.385 -23.25 15.9375 C-24.57 15.9375 -25.89 15.9375 -27.25 15.9375 C-26.771671 10.91504554 -25.41310458 7.8700084 -22.25 3.9375 C-15.31927844 -1.295902 -8.34138259 -2.72699046 0 0 Z " fill="#555397" transform="translate(177.25,76.0625)"/>
<path d="M0 0 C2.22998471 2.0787993 3.16715856 3.82960067 4.1328125 6.7265625 C2.8128125 6.7265625 1.4928125 6.7265625 0.1328125 6.7265625 C-0.888125 5.581875 -0.888125 5.581875 -1.9296875 4.4140625 C-8.29343229 -1.40808699 -17.06972217 -1.7752279 -25.3828125 -1.56640625 C-33.38432551 -0.89363329 -42.22835292 -0.07473751 -48.8671875 4.7265625 C-49.8571875 6.2115625 -49.8571875 6.2115625 -50.8671875 7.7265625 C-51.8571875 7.7265625 -52.8471875 7.7265625 -53.8671875 7.7265625 C-52.67540462 3.25737671 -51.79001407 1.17749659 -47.8671875 -1.2734375 C-33.94245878 -7.11283987 -13.05672337 -8.9047946 0 0 Z " fill="#EBC15B" transform="translate(82.8671875,52.2734375)"/>
<path d="M0 0 C2 2 2 2 2 5 C-4 3 -4 3 -5.98046875 2.19921875 C-14.39298605 -1.03400739 -23.39005616 -1.34614885 -31.84765625 1.97265625 C-40.31294892 6.01325874 -45.09552099 11.02036534 -50 19 C-50.99 18.67 -51.98 18.34 -53 18 C-50.77846677 10.1012152 -44.04827219 4.41122633 -37.296875 0.25390625 C-25.68843278 -6.08335558 -11.79616191 -6.08690841 0 0 Z " fill="#E8E8ED" transform="translate(76,85)"/>
<path d="M0 0 C5.94 0 11.88 0 18 0 C16.14592609 6.34288443 14.08562207 10.81015575 10 16 C6.14397632 14.48513355 4.2214143 12.48021573 2 9 C1.10579863 6.00593249 0.55271057 3.08596737 0 0 Z " fill="#ECBE4D" transform="translate(184,123)"/>
<path d="M0 0 C0.99 0.33 1.98 0.66 3 1 C2.57589844 1.4125 2.15179688 1.825 1.71484375 2.25 C-2.07369833 5.98025682 -5.65482098 9.82031049 -9.12890625 13.84375 C-15.93793226 21.69047726 -23.00518424 29.31884532 -30 37 C-29.67 37.99 -29.34 38.98 -29 40 C-31.375 39.75 -31.375 39.75 -34 39 C-35.1640625 36.953125 -35.1640625 36.953125 -36 35 C-35.36191406 34.40832031 -34.72382812 33.81664062 -34.06640625 33.20703125 C-33.24011719 32.41683594 -32.41382813 31.62664062 -31.5625 30.8125 C-30.73878906 30.03519531 -29.91507813 29.25789063 -29.06640625 28.45703125 C-26.87705998 25.8538199 -26.32606505 24.33772044 -26 21 C-24.989375 21.165 -23.97875 21.33 -22.9375 21.5 C-17.94763237 20.86636602 -17.09861478 19.44964152 -14.109375 15.64453125 C-11.420357 12.27329942 -8.50356118 9.15104477 -5.5625 6 C-4.50103761 4.85441166 -3.4398193 3.70859709 -2.37890625 2.5625 C-1.59386719 1.716875 -0.80882812 0.87125 0 0 Z " fill="#DB6C5B" transform="translate(89,129)"/>
<path d="M0 0 C1.32 0 2.64 0 4 0 C4.21914063 0.6290625 4.43828125 1.258125 4.6640625 1.90625 C9.0839232 13.83628051 14.90980065 19.65120031 26.3515625 25.125 C29.69802418 26.23061566 32.79790087 26.42791967 36.3125 26.625 C37.56675781 26.69976562 38.82101563 26.77453125 40.11328125 26.8515625 C41.06589844 26.90054688 42.01851562 26.94953125 43 27 C42.505 28.485 42.505 28.485 42 30 C33.38488579 30.44117228 26.51126238 30.50364072 19 26 C17.96875 25.401875 16.9375 24.80375 15.875 24.1875 C7.54161638 17.84688203 1.76838994 10.57271433 0 0 Z " fill="#E7E6ED" transform="translate(20,126)"/>
<path d="M0 0 C5.57894737 3.15789474 5.57894737 3.15789474 7 6 C0.25 10 0.25 10 -2 10 C-2.66 11.32 -3.32 12.64 -4 14 C-8 14 -8 14 -10.8125 11.8125 C-13 9 -13 9 -13.1875 6.4375 C-10.56317674 1.05073121 -5.74890699 -0.95815116 0 0 Z " fill="#A999F9" transform="translate(90,59)"/>
<path d="M0 0 C4.29 0 8.58 0 13 0 C13 4.29 13 8.58 13 13 C8.71 13 4.42 13 0 13 C0 8.71 0 4.42 0 0 Z " fill="#EDC257" transform="translate(148,155)"/>
<path d="M0 0 C4.29 0 8.58 0 13 0 C13 4.29 13 8.58 13 13 C8.71 13 4.42 13 0 13 C0 8.71 0 4.42 0 0 Z " fill="#E1A93E" transform="translate(130,155)"/>
<path d="M0 0 C3.63 1.65 7.26 3.3 11 5 C9.7837927 9.02283952 8.6441128 12.694859 6 16 C3.0625 17.0625 3.0625 17.0625 0 17 C-2.375 15.4375 -2.375 15.4375 -4 13 C-4.96781586 7.55603578 -2.84284709 4.44194858 0 0 Z " fill="#EABD50" transform="translate(31,158)"/>
<path d="M0 0 C0.19335938 0.66386719 0.38671875 1.32773438 0.5859375 2.01171875 C2.52751352 8.59789309 2.52751352 8.59789309 5 15 C2.75 17.5625 2.75 17.5625 0 20 C-2.0625 20.125 -2.0625 20.125 -4 19 C-7.19476408 16.07146626 -7.94437442 14.38937906 -8.5625 10.0625 C-8.30815539 4.90713047 -5.60165517 0 0 0 Z " fill="#A99AFB" transform="translate(16,67)"/>
<path d="M0 0 C1.03447266 0.01160156 1.03447266 0.01160156 2.08984375 0.0234375 C2.77949219 0.01570313 3.46914063 0.00796875 4.1796875 0 C9.33651082 0.02010457 9.33651082 0.02010457 11.58984375 2.2734375 C11.77734375 5.3359375 11.77734375 5.3359375 11.58984375 8.2734375 C9.70431845 10.1589628 7.01215544 9.40590439 4.5078125 9.41015625 C3.70988281 9.40628906 2.91195312 9.40242188 2.08984375 9.3984375 C1.29191406 9.40230469 0.49398437 9.40617187 -0.328125 9.41015625 C-6.28354858 9.40004517 -6.28354858 9.40004517 -7.41015625 8.2734375 C-7.59765625 5.3359375 -7.59765625 5.3359375 -7.41015625 2.2734375 C-4.91805186 -0.21866689 -3.40654837 0.01328089 0 0 Z " fill="#6B6BAB" transform="translate(55.41015625,58.7265625)"/>
<path d="M0 0 C0.54453749 10.28570815 -1.12199249 19.93924548 -3 30 C-4.65 29.67 -6.3 29.34 -8 29 C-8.00630858 25.47756048 -7.94636982 21.95915458 -7.875 18.4375 C-7.87886719 16.9515332 -7.87886719 16.9515332 -7.8828125 15.43554688 C-7.71610633 9.16322708 -6.82822852 5.65335443 -2.37939453 1.12915039 C-1 0 -1 0 0 0 Z " fill="#3B3673" transform="translate(77,150)"/>
<path d="M0 0 C3.96 0 7.92 0 12 0 C12 4.29 12 8.58 12 13 C8.04 13 4.08 13 0 13 C0 8.71 0 4.42 0 0 Z " fill="#DFA434" transform="translate(149,137)"/>
<path d="M0 0 C3.96 0 7.92 0 12 0 C12 4.29 12 8.58 12 13 C8.04 13 4.08 13 0 13 C0 8.71 0 4.42 0 0 Z " fill="#ECBF4F" transform="translate(113,137)"/>
<path d="M0 0 C3.96 0 7.92 0 12 0 C12 4.29 12 8.58 12 13 C8.04 13 4.08 13 0 13 C0 8.71 0 4.42 0 0 Z " fill="#DFA434" transform="translate(95,137)"/>
<path d="M0 0 C-0.3125 1.875 -0.3125 1.875 -1 4 C-4 6 -4 6 -7 6 C-7 7.32 -7 8.64 -7 10 C-7.66 10 -8.32 10 -9 10 C-9 10.66 -9 11.32 -9 12 C-7.68 12.33 -6.36 12.66 -5 13 C-5.99 13.33 -6.98 13.66 -8 14 C-8.99 13.34 -9.98 12.68 -11 12 C-11 11.34 -11 10.68 -11 10 C-11.99 10.66 -12.98 11.32 -14 12 C-18.54054054 11.45945946 -18.54054054 11.45945946 -20 10 C-20.1875 7.5625 -20.1875 7.5625 -20 5 C-19.34 4.34 -18.68 3.68 -18 3 C-15.38419521 3.3269756 -13.35921863 3.82039068 -11 5 C-10.79375 4.38125 -10.5875 3.7625 -10.375 3.125 C-7.85679214 -0.76677579 -4.2199254 -1.4066418 0 0 Z " fill="#443D77" transform="translate(73,111)"/>
<path d="M0 0 C3.96 0 7.92 0 12 0 C12 3.96 12 7.92 12 12 C8.04 12 4.08 12 0 12 C0 8.04 0 4.08 0 0 Z " fill="#ECBE4C" transform="translate(113,155)"/>
<path d="M0 0 C3.96 0 7.92 0 12 0 C12 3.96 12 7.92 12 12 C8.04 12 4.08 12 0 12 C0 8.04 0 4.08 0 0 Z " fill="#ECBE4C" transform="translate(95,155)"/>
<path d="M0 0 C3.96 0 7.92 0 12 0 C12 3.96 12 7.92 12 12 C8.04 12 4.08 12 0 12 C0 8.04 0 4.08 0 0 Z " fill="#EBBD4C" transform="translate(77,155)"/>
<path d="M0 0 C3.96 0 7.92 0 12 0 C12 3.96 12 7.92 12 12 C8.04 12 4.08 12 0 12 C0 8.04 0 4.08 0 0 Z " fill="#DFA331" transform="translate(149,120)"/>
<path d="M0 0 C3.96 0 7.92 0 12 0 C12 3.96 12 7.92 12 12 C8.04 12 4.08 12 0 12 C0 8.04 0 4.08 0 0 Z " fill="#ECBE4C" transform="translate(131,120)"/>
<path d="M0 0 C3.96 0 7.92 0 12 0 C12 3.96 12 7.92 12 12 C8.04 12 4.08 12 0 12 C0 8.04 0 4.08 0 0 Z " fill="#DFA331" transform="translate(113,120)"/>
<path d="M0 0 C0.55558594 0.32613281 1.11117187 0.65226562 1.68359375 0.98828125 C4.33582971 2.14667773 6.18180918 2.23529427 9.0625 2.1875 C9.91972656 2.18105469 10.77695313 2.17460938 11.66015625 2.16796875 C14.15477968 2.08590034 14.15477968 2.08590034 17 1 C16.67 1.99 16.34 2.98 16 4 C15.931009 6.06145107 15.91532273 8.12501401 15.9375 10.1875 C15.94652344 11.27417969 15.95554687 12.36085937 15.96484375 13.48046875 C15.97644531 14.31191406 15.98804687 15.14335937 16 16 C14.75283203 15.96519531 14.75283203 15.96519531 13.48046875 15.9296875 C12.39378906 15.91164062 11.30710937 15.89359375 10.1875 15.875 C9.10855469 15.85179687 8.02960938 15.82859375 6.91796875 15.8046875 C3.80597132 15.76976283 3.80597132 15.76976283 1 18 C2.65167557 14.4213696 4.78286492 11.25179812 7 8 C5.68 7.34 4.36 6.68 3 6 C3 5.34 3 4.68 3 4 C2.01 3.34 1.02 2.68 0 2 C0 1.34 0 0.68 0 0 Z " fill="#736FA0" transform="translate(92,117)"/>
<path d="M0 0 C2 2 4 4 6 6 C3.875 8.5625 3.875 8.5625 1 11 C0.11957031 10.71511719 -0.76085937 10.43023437 -1.66796875 10.13671875 C-4.95861451 9.64972674 -4.95861451 9.64972674 -6.93554688 11.45336914 C-9.1126768 13.64895372 -11.16068476 15.9149594 -13.1875 18.25 C-13.89841797 19.04019531 -14.60933594 19.83039063 -15.34179688 20.64453125 C-16.66527727 22.11617172 -17.98087107 23.59497049 -19.28588867 25.08300781 C-20.80646899 26.78356281 -22.36894166 28.40607499 -24 30 C-24 24.89586543 -21.85748137 23.19822411 -18.5 19.75 C-17.97535156 19.19570312 -17.45070313 18.64140625 -16.91015625 18.0703125 C-15.61558538 16.70512867 -14.30892741 15.35142505 -13 14 C-13.66 13.34 -14.32 12.68 -15 12 C-13.35 12 -11.7 12 -10 12 C-9.814375 11.443125 -9.62875 10.88625 -9.4375 10.3125 C-7.62075833 7.38991558 -5.43244405 6.06838968 -2.55859375 4.24609375 C-0.69351671 2.98639666 -0.69351671 2.98639666 0 0 Z " fill="#E18D76" transform="translate(94,120)"/>
<path d="M0 0 C-1.52983725 21.0596745 -1.52983725 21.0596745 -3 24 C-4.65 23.67 -6.3 23.34 -8 23 C-7.99395857 20.28739966 -7.94634292 17.58603109 -7.875 14.875 C-7.87757812 14.11445313 -7.88015625 13.35390625 -7.8828125 12.5703125 C-7.72979878 8.13291448 -7.17899971 5.66957398 -4.0078125 2.4453125 C-1 0 -1 0 0 0 Z " fill="#3C3775" transform="translate(69,159)"/>
<path d="M0 0 C3.3 0.33 6.6 0.66 10 1 C10 2.32 10 3.64 10 5 C8.02 5.33 6.04 5.66 4 6 C3.814375 7.27875 3.62875 8.5575 3.4375 9.875 C3.33308594 10.59429687 3.22867188 11.31359375 3.12109375 12.0546875 C2.8315703 14.08140667 2.8315703 14.08140667 4 16 C0.37 16 -3.26 16 -7 16 C-6.030625 14.47375 -5.06125 12.9475 -4.0625 11.375 C-1.76203809 7.5643525 -0.23854882 4.5324276 0 0 Z " fill="#848FED" transform="translate(187,93)"/>
<path d="M0 0 C0.99 0.33 1.98 0.66 3 1 C3.06058594 1.71027344 3.12117187 2.42054687 3.18359375 3.15234375 C3.26738281 4.07144531 3.35117188 4.99054688 3.4375 5.9375 C3.51871094 6.85402344 3.59992188 7.77054687 3.68359375 8.71484375 C3.76044976 10.96159732 3.76044976 10.96159732 5 12 C5.25 15.4375 5.25 15.4375 5 19 C2 21 2 21 -0.5625 20.8125 C-3 20 -3 20 -5 17 C-4.625 14.3125 -4.625 14.3125 -4 12 C-3.67 12 -3.34 12 -3 12 C-2.814375 13.2065625 -2.814375 13.2065625 -2.625 14.4375 C-2.41875 15.283125 -2.2125 16.12875 -2 17 C-1.34 17.33 -0.68 17.66 0 18 C0 12.06 0 6.12 0 0 Z " fill="#EABC4E" transform="translate(158,87)"/>
<path d="M0 0 C0 4.29 0 8.58 0 13 C-3.96 13 -7.92 13 -12 13 C-4.07317073 0 -4.07317073 0 0 0 Z " fill="#EBBA4C" transform="translate(89,137)"/>
<path d="M0 0 C0.99 0.33 1.98 0.66 3 1 C3.06058594 1.73605469 3.12117188 2.47210938 3.18359375 3.23046875 C3.26738281 4.20628906 3.35117188 5.18210937 3.4375 6.1875 C3.51871094 7.15042969 3.59992188 8.11335938 3.68359375 9.10546875 C3.93366915 11.98544791 3.93366915 11.98544791 4.66015625 14.67578125 C5 17 5 17 3 20 C0 20.3125 0 20.3125 -3 20 C-5 18 -5 18 -5.125 15.375 C-5.08375 14.59125 -5.0425 13.8075 -5 13 C-4.34 12.67 -3.68 12.34 -3 12 C-3 13.98 -3 15.96 -3 18 C-2.01 18 -1.02 18 0 18 C0 12.06 0 6.12 0 0 Z " fill="#E9BC56" transform="translate(81,87)"/>
<path d="M0 0 C2.63326457 2.63326457 2.71180635 4.32553101 3 8 C2.3125 10.8125 2.3125 10.8125 1 13 C-1.125 13.8125 -1.125 13.8125 -3 14 C-3 12.68 -3 11.36 -3 10 C-4.65 9.67 -6.3 9.34 -8 9 C-8 8.34 -8 7.68 -8 7 C-7.34 7 -6.68 7 -6 7 C-6 5.68 -6 4.36 -6 3 C-4.02 2.01 -2.04 1.02 0 0 Z " fill="#E9C49D" transform="translate(72,114)"/>
<path d="M0 0 C2.97 0.495 2.97 0.495 6 1 C4.7837927 5.02283952 3.6441128 8.694859 1 12 C-2.1875 12.8125 -2.1875 12.8125 -5 13 C-4.39254603 8.14036821 -2.27241033 4.2594482 0 0 Z " fill="#DEA53A" transform="translate(36,162)"/>
<path d="M0 0 C3.40755272 1.92880342 6.74147635 3.8276509 10 6 C12.31 4.35 14.62 2.7 17 1 C15.62845496 3.95409701 14.01136276 6.44008376 12 9 C12.66 9.78375 13.32 10.5675 14 11.375 C16 14 16 14 16 16 C12.66462511 14.88820837 11.36292656 13.52588702 9 11 C6.69 12.98 4.38 14.96 2 17 C3.55544811 13.88910379 5.19020355 10.96148509 7 8 C6.4946875 7.59007812 5.989375 7.18015625 5.46875 6.7578125 C4.8190625 6.21898437 4.169375 5.68015625 3.5 5.125 C2.8503125 4.59132812 2.200625 4.05765625 1.53125 3.5078125 C1.0259375 3.01023438 0.520625 2.51265625 0 2 C0 1.34 0 0.68 0 0 Z " fill="#6E6A9E" transform="translate(128,135)"/>
<path d="M0 0 C2.71212723 3.61616964 4.81005582 7.07320353 7 11 C6.02526874 12.66926454 5.04510211 14.33535642 4.0625 16 C3.51722656 16.928125 2.97195312 17.85625 2.41015625 18.8125 C1.94480469 19.534375 1.47945312 20.25625 1 21 C0.67 21 0.34 21 0 21 C0 14.07 0 7.14 0 0 Z " fill="#EDEDFE" transform="translate(171,133)"/>
<path d="M0 0 C2.05078125 0.03255208 4.1015625 0.06510417 6.15234375 0.09765625 C6.15234375 2.73765625 6.15234375 5.37765625 6.15234375 8.09765625 C-0 8.1953125 -0 8.1953125 -1.84765625 8.09765625 C-2.84765625 7.09765625 -2.84765625 7.09765625 -2.97265625 4.09765625 C-2.80810474 0.14841991 -2.80810474 0.14841991 0 0 Z " fill="#545193" transform="translate(50.84765625,59.90234375)"/>
<path d="M0 0 C0.99 0.33 1.98 0.66 3 1 C2.57589844 1.4125 2.15179688 1.825 1.71484375 2.25 C-4.61274507 8.4802413 -10.3526681 15.15474921 -16 22 C-16.66 21.67 -17.32 21.34 -18 21 C-16.58261511 17.74792908 -14.87473588 15.68638933 -12.3125 13.25 C-8.79995896 9.83360516 -5.53976348 6.28204815 -2.34765625 2.56640625 C-1.59150381 1.68751602 -0.81982149 0.81982149 0 0 Z " fill="#DB6D5B" transform="translate(89,129)"/>
<path d="M0 0 C3.29714793 0.32971479 4.6226839 0.6226839 7 3 C7 4.32 7 5.64 7 7 C4 9 4 9 1.375 8.6875 C-1 8 -1 8 -2 7 C-2.1875 4.5625 -2.1875 4.5625 -2 2 C-1.34 1.34 -0.68 0.68 0 0 Z " fill="#585497" transform="translate(55,114)"/>
<path d="M0 0 C0.66 0 1.32 0 2 0 C5.08571429 4.11428571 5.08571429 4.11428571 4.8125 6.9375 C4.544375 7.618125 4.27625 8.29875 4 9 C3.649375 10.0725 3.29875 11.145 2.9375 12.25 C2.628125 13.1575 2.31875 14.065 2 15 C1.34 15 0.68 15 0 15 C-0.68025637 13.00458132 -1.34490497 11.00382009 -2 9 C-2.268125 8.319375 -2.53625 7.63875 -2.8125 6.9375 C-3.10294267 3.93625909 -1.755836 2.34111467 0 0 Z " fill="#DED7FC" transform="translate(56,99)"/>
<path d="M0 0 C2 2 4 4 6 6 C4.35 7.65 2.7 9.3 1 11 C-1.88437779 9.70700306 -3.87219421 8.34058637 -6 6 C-5.195625 5.566875 -4.39125 5.13375 -3.5625 4.6875 C-0.72153646 3.19525998 -0.72153646 3.19525998 0 0 Z " fill="#E5BB59" transform="translate(94,120)"/>
<path d="M0 0 C0.66 0.33 1.32 0.66 2 1 C1.67 6.94 1.34 12.88 1 19 C0.01 19 -0.98 19 -2 19 C-3.20460682 12.97696588 -3.20313831 7.04707779 -2 1 C-1.34 0.67 -0.68 0.34 0 0 Z " fill="#DDA338" transform="translate(80,86)"/>
<path d="M0 0 C2.97 0.495 2.97 0.495 6 1 C2 5.66666667 -2 10.33333333 -6 15 C-6.99 14.34 -7.98 13.68 -9 13 C-8.43410156 12.48050781 -7.86820313 11.96101562 -7.28515625 11.42578125 C-6.55167969 10.72839844 -5.81820312 10.03101563 -5.0625 9.3125 C-3.96615234 8.28576172 -3.96615234 8.28576172 -2.84765625 7.23828125 C-0.80570157 4.76462368 -0.34750001 3.14956359 0 0 Z " fill="#DA8174" transform="translate(63,150)"/>
<path d="M0 0 C0.66 0 1.32 0 2 0 C2 5.94 2 11.88 2 18 C1.01 17.67 0.02 17.34 -1 17 C-1.02721176 15.10424749 -1.04649136 13.20838021 -1.0625 11.3125 C-1.07410156 10.25675781 -1.08570313 9.20101562 -1.09765625 8.11328125 C-1.00865425 5.27589738 -0.64939838 2.7561081 0 0 Z " fill="#DFA439" transform="translate(156,87)"/>
<path d="M0 0 C0.33 0 0.66 0 1 0 C1.66 1.98 2.32 3.96 3 6 C3.99 6 4.98 6 6 6 C6.33 4.02 6.66 2.04 7 0 C7.66 0 8.32 0 9 0 C9.1875 3.375 9.1875 3.375 9 7 C6 9 6 9 3.4375 8.8125 C1 8 1 8 -1 5 C-0.625 2.3125 -0.625 2.3125 0 0 Z " fill="#F9EBE4" transform="translate(154,99)"/>
<path d="M0 0 C0.66 0.33 1.32 0.66 2 1 C0.21930777 3.67414989 -1.57630564 6.33793235 -3.375 9 C-3.88289063 9.763125 -4.39078125 10.52625 -4.9140625 11.3125 C-5.40390625 12.034375 -5.89375 12.75625 -6.3984375 13.5 C-7.07398682 14.50546875 -7.07398682 14.50546875 -7.76318359 15.53125 C-8.17133301 16.0159375 -8.57948242 16.500625 -9 17 C-9.66 17 -10.32 17 -11 17 C-9.3189585 13.3650778 -7.16668 10.13401865 -4.9375 6.8125 C-4.22464844 5.74644531 -3.51179688 4.68039063 -2.77734375 3.58203125 C-1 1 -1 1 0 0 Z " fill="#F0EEFE" transform="translate(54,123)"/>
<path d="M0 0 C0.33 0 0.66 0 1 0 C1.02716824 2.54173977 1.04691969 5.08318415 1.0625 7.625 C1.07087891 8.33785156 1.07925781 9.05070313 1.08789062 9.78515625 C1.10710296 13.97344438 0.8267327 17.8728462 0 22 C-2 20 -2 20 -2.01171875 17.4609375 C-1.90472656 16.44257813 -1.79773438 15.42421875 -1.6875 14.375 C-1.57921875 13.30507812 -1.4709375 12.23515625 -1.359375 11.1328125 C-0.93314545 7.41720269 -0.49896688 3.70661111 0 0 Z " fill="#B6B2CB" transform="translate(69,157)"/>
<path d="M0 0 C1.62974564 0.76074843 3.25366648 1.53398433 4.875 2.3125 C5.77992188 2.74175781 6.68484375 3.17101562 7.6171875 3.61328125 C10 5 10 5 12 8 C8.9361192 8.43769726 6.83395091 8.60855877 4.265625 6.734375 C2.71528294 5.21356327 1.28159145 3.75423511 0 2 C0 1.34 0 0.68 0 0 Z " fill="#ECBF52" transform="translate(189,163)"/>
<path d="M0 0 C0.33 0 0.66 0 1 0 C1.33 1.98 1.66 3.96 2 6 C3.32 5.67 4.64 5.34 6 5 C6.33 3.35 6.66 1.7 7 0 C7.66 0.33 8.32 0.66 9 1 C8.125 6.875 8.125 6.875 7 8 C4.0625 8.1875 4.0625 8.1875 1 8 C-1 6 -1 6 -1.1875 3.4375 C-1 1 -1 1 0 0 Z " fill="#FCF3EF" transform="translate(77,99)"/>
<path d="M0 0 C2 2 2 2 2 5 C-2.625 7.125 -2.625 7.125 -6 6 C-6 5.01 -6 4.02 -6 3 C-4.02 2.01 -2.04 1.02 0 0 Z " fill="#EACDB1" transform="translate(72,114)"/>
<path d="M0 0 C3.63 0 7.26 0 11 0 C9.35 1.65 7.7 3.3 6 5 C3.98079663 3.69593116 1.98075027 2.36176581 0 1 C0 0.67 0 0.34 0 0 Z " fill="#E5BE61" transform="translate(132,137)"/>
<path d="M0 0 C1.65 1.65 3.3 3.3 5 5 C3.35 6.65 1.7 8.3 0 10 C0 6.7 0 3.4 0 0 Z " fill="#E1B752" transform="translate(131,139)"/>
<path d="M0 0 C3.26954202 0.56371414 4.82575883 1.49962266 7 4 C6.67 4.66 6.34 5.32 6 6 C3.13275314 5.42655063 2.1385485 5.1385485 0 3 C0 2.01 0 1.02 0 0 Z " fill="#FCFBFB" transform="translate(51,166)"/>
<path d="M0 0 C1.66611905 -0.042721 3.33382885 -0.04063832 5 0 C6 1 6 1 6.0625 3.5625 C6.041875 4.366875 6.02125 5.17125 6 6 C3.5625 5.25 3.5625 5.25 1 4 C0.1875 1.875 0.1875 1.875 0 0 Z " fill="#FCFCFE" transform="translate(97,62)"/>
<path d="M0 0 C1.9375 0.8125 1.9375 0.8125 4 2 C4.33 2.99 4.66 3.98 5 5 C2.36 5 -0.28 5 -3 5 C-2.01 3.35 -1.02 1.7 0 0 Z " fill="#E4B850" transform="translate(100,127)"/>
<path d="M0 0 C1.65 0 3.3 0 5 0 C4.75 1.875 4.75 1.875 4 4 C1.9375 5.25 1.9375 5.25 0 6 C-1.125 2.25 -1.125 2.25 0 0 Z " fill="#FBFBFE" transform="translate(13,61)"/>
<path d="M0 0 C2 1.375 2 1.375 4 3 C4 3.66 4 4.32 4 5 C1.36 5 -1.28 5 -4 5 C-2.68 3.35 -1.36 1.7 0 0 Z " fill="#E4B850" transform="translate(137,145)"/>
<path d="M0 0 C0.99 0.33 1.98 0.66 3 1 C3.33 1.99 3.66 2.98 4 4 C2.35 4.66 0.7 5.32 -1 6 C-1.66 5.01 -2.32 4.02 -3 3 C-2.01 2.01 -1.02 1.02 0 0 Z " fill="#E6BC59" transform="translate(27,76)"/>
<path d="M0 0 C1.32 0.66 2.64 1.32 4 2 C4 2.99 4 3.98 4 5 C2.68 5 1.36 5 0 5 C-0.33 4.01 -0.66 3.02 -1 2 C-0.67 1.34 -0.34 0.68 0 0 Z " fill="#E5BB57" transform="translate(85,76)"/>
<path d="M0 0 C2.31 0 4.62 0 7 0 C7 0.99 7 1.98 7 3 C4.69 3 2.38 3 0 3 C0 2.01 0 1.02 0 0 Z " fill="#ECC158" transform="translate(54,68)"/>
<path d="M0 0 C2.97 0.495 2.97 0.495 6 1 C4.60804085 3.7839183 2.84424221 3.97898997 0 5 C0 3.35 0 1.7 0 0 Z " fill="#B77A78" transform="translate(63,150)"/>
<path d="M0 0 C2.475 0.495 2.475 0.495 5 1 C5.33 2.32 5.66 3.64 6 5 C3.5625 4.1875 3.5625 4.1875 1 3 C0.67 2.01 0.34 1.02 0 0 Z " fill="#8F98F1" transform="translate(62,183)"/>
<path d="M0 0 C2.88575819 0.39803561 3.82189513 0.79009069 5.75 3.0625 C6.1625 3.701875 6.575 4.34125 7 5 C4.625 4.75 4.625 4.75 2 4 C0.6875 1.9375 0.6875 1.9375 0 0 Z " fill="#E6B65D" transform="translate(53,164)"/>
<path d="M0 0 C0 2.64 0 5.28 0 8 C-1.37562854 6.71034824 -2.70766393 5.37310707 -4 4 C-4 3.34 -4 2.68 -4 2 C-1 0 -1 0 0 0 Z " fill="#E2B751" transform="translate(107,122)"/>
<path d="M0 0 C2.64 0 5.28 0 8 0 C6.68 1.32 5.36 2.64 4 4 C2.68 2.68 1.36 1.36 0 0 Z " fill="#DEB454" transform="translate(97,120)"/>
<path d="M0 0 C0 2.64 0 5.28 0 8 C-1.32 6.35 -2.64 4.7 -4 3 C-1.125 0 -1.125 0 0 0 Z " fill="#E3B850" transform="translate(143,140)"/>
<path d="M0 0 C3.465 1.98 3.465 1.98 7 4 C7 4.99 7 5.98 7 7 C5.82780457 6.21654285 4.66236332 5.42297164 3.5 4.625 C2.8503125 4.18414062 2.200625 3.74328125 1.53125 3.2890625 C1.0259375 2.86367187 0.520625 2.43828125 0 2 C0 1.34 0 0.68 0 0 Z " fill="#837FAA" transform="translate(128,135)"/>
</svg>
